<svg width="42" height="42" viewBox="0 0 42 42" fill="none" xmlns="http://www.w3.org/2000/svg">
<g id="vuesax/bold/people">
<g id="vuesax/bold/people_2">
<g id="people">
<path id="Vector" d="M30.6776 13.5975C30.5551 13.58 30.4326 13.58 30.3101 13.5975C27.5976 13.51 25.4451 11.2875 25.4451 8.5575C25.4451 5.775 27.7026 3.5 30.5026 3.5C33.2851 3.5 35.5601 5.7575 35.5601 8.5575C35.5426 11.2875 33.3901 13.51 30.6776 13.5975Z" fill="#D26E6A"/>
<path id="Vector_2" d="M36.3825 25.7252C34.4225 27.0377 31.675 27.5277 29.1375 27.1952C29.8025 25.7602 30.1525 24.1677 30.17 22.4877C30.17 20.7377 29.785 19.0752 29.05 17.6227C31.64 17.2727 34.3875 17.7627 36.365 19.0752C39.13 20.8952 39.13 23.8877 36.3825 25.7252Z" fill="#D26E6A"/>
<path id="Vector_3" d="M11.27 13.5975C11.3925 13.58 11.515 13.58 11.6375 13.5975C14.35 13.51 16.5025 11.2875 16.5025 8.5575C16.5025 5.7575 14.245 3.5 11.445 3.5C8.66253 3.5 6.40503 5.7575 6.40503 8.5575C6.40503 11.2875 8.55753 13.51 11.27 13.5975Z" fill="#D26E6A"/>
<path id="Vector_4" d="M11.4625 22.4876C11.4625 24.1851 11.83 25.7951 12.495 27.2476C10.0275 27.5101 7.45496 26.9851 5.56496 25.7426C2.79996 23.9051 2.79996 20.9126 5.56496 19.0751C7.43746 17.8151 10.08 17.3076 12.565 17.5876C11.8475 19.0576 11.4625 20.7201 11.4625 22.4876Z" fill="#D26E6A"/>
<path id="Vector_5" d="M21.2099 27.7725C21.0699 27.755 20.9124 27.755 20.7549 27.7725C17.5349 27.6675 14.9624 25.025 14.9624 21.77C14.9799 18.445 17.6574 15.75 20.9999 15.75C24.3249 15.75 27.0199 18.445 27.0199 21.77C27.0024 25.025 24.4474 27.6675 21.2099 27.7725Z" fill="#D26E6A"/>
<path id="Vector_6" d="M15.5224 31.3951C12.8799 33.1626 12.8799 36.0676 15.5224 37.8176C18.5324 39.8301 23.4674 39.8301 26.4774 37.8176C29.1199 36.0501 29.1199 33.1451 26.4774 31.3951C23.4849 29.3826 18.5499 29.3826 15.5224 31.3951Z" fill="#D26E6A"/>
</g>
</g>
</g>
</svg>
