<svg width="24" height="24" viewBox="0 0 24 24" fill="none" xmlns="http://www.w3.org/2000/svg">
<g id="Group 1282">
<g id="Group 1283">
<path id="Vector" d="M12 5.14307C12.2274 5.14307 12.4454 5.23337 12.6061 5.39412C12.7669 5.55486 12.8572 5.77288 12.8572 6.00021V11.1431H18C18.2274 11.1431 18.4454 11.2334 18.6061 11.3941C18.7669 11.5549 18.8572 11.7729 18.8572 12.0002C18.8572 12.2275 18.7669 12.4456 18.6061 12.6063C18.4454 12.767 18.2274 12.8574 18 12.8574H12.8572V18.0002C12.8572 18.2275 12.7669 18.4456 12.6061 18.6063C12.4454 18.767 12.2274 18.8574 12 18.8574C11.7727 18.8574 11.5547 18.767 11.3939 18.6063C11.2332 18.4456 11.1429 18.2275 11.1429 18.0002V12.8574H6.00003C5.7727 12.8574 5.55468 12.767 5.39393 12.6063C5.23319 12.4456 5.14288 12.2275 5.14288 12.0002C5.14288 11.7729 5.23319 11.5549 5.39393 11.3941C5.55468 11.2334 5.7727 11.1431 6.00003 11.1431H11.1429V6.00021C11.1429 5.77288 11.2332 5.55486 11.3939 5.39412C11.5547 5.23337 11.7727 5.14307 12 5.14307Z" fill="#28619E"/>
<path id="Vector_2" fill-rule="evenodd" clip-rule="evenodd" d="M12 2.4C9.45392 2.4 7.01212 3.41143 5.21178 5.21178C3.41143 7.01212 2.4 9.45392 2.4 12C2.4 14.5461 3.41143 16.9879 5.21178 18.7882C7.01212 20.5886 9.45392 21.6 12 21.6C14.5461 21.6 16.9879 20.5886 18.7882 18.7882C20.5886 16.9879 21.6 14.5461 21.6 12C21.6 9.45392 20.5886 7.01212 18.7882 5.21178C16.9879 3.41143 14.5461 2.4 12 2.4ZM0 12C0 5.3724 5.3724 0 12 0C18.6276 0 24 5.3724 24 12C24 18.6276 18.6276 24 12 24C5.3724 24 0 18.6276 0 12Z" fill="#28619E"/>
</g>
</g>
</svg>
