<svg width="78" height="74" viewBox="0 0 78 74" fill="none" xmlns="http://www.w3.org/2000/svg">
<path d="M35.136 7.7906C33.0519 7.79044 30.9889 8.20655 29.0685 9.01441C27.1481 9.82227 25.4093 11.0055 23.9545 12.4944C22.4996 13.9833 21.3583 15.7477 20.5977 17.6837C19.8371 19.6196 19.4726 21.6879 19.5257 23.7665C19.5466 24.6457 19.2686 25.5061 18.7371 26.2076C18.2055 26.9091 17.4516 27.4104 16.5981 27.63C13.8462 28.3492 11.4505 30.0426 9.85782 32.3944C8.26514 34.7461 7.58425 37.5955 7.94215 40.4112C8.30005 43.2269 9.6723 45.8166 11.8029 47.6972C13.9336 49.5778 16.6771 50.6209 19.5218 50.632H23.4254C24.4607 50.632 25.4535 51.0423 26.1856 51.7727C26.9176 52.5031 27.3289 53.4937 27.3289 54.5266C27.3289 55.5596 26.9176 56.5502 26.1856 57.2806C25.4535 58.011 24.4607 58.4213 23.4254 58.4213H19.5218C15.0261 58.4223 10.668 56.8747 7.18373 54.0402C3.69949 51.2056 1.30284 47.2579 0.398761 42.8641C-0.505321 38.4702 0.1386 33.8997 2.22172 29.9248C4.30483 25.9499 7.69941 22.8144 11.8318 21.0481C12.3241 16.1255 14.3695 11.4857 17.6734 7.79699C20.9773 4.10825 25.3693 1.56081 30.2169 0.521517C35.0646 -0.517781 40.1178 0.00468506 44.6488 2.01368C49.1798 4.02267 52.9549 7.41454 55.4305 11.7008C61.5579 11.9233 67.3535 14.5343 71.5728 18.973C75.7921 23.4118 78.0985 29.3243 77.9968 35.441C77.8951 41.5577 75.3934 47.3906 71.0289 51.6873C66.6644 55.984 60.7851 58.4017 54.6537 58.4213C53.6184 58.4213 52.6256 58.011 51.8935 57.2806C51.1614 56.5502 50.7502 55.5596 50.7502 54.5266C50.7502 53.4937 51.1614 52.5031 51.8935 51.7727C52.6256 51.0423 53.6184 50.632 54.6537 50.632C56.7562 50.6289 58.8365 50.2022 60.7697 49.3775C62.7029 48.5528 64.4492 47.347 65.904 45.8325C67.3587 44.318 68.492 42.526 69.2357 40.5639C69.9794 38.6018 70.3183 36.51 70.232 34.4141C70.1457 32.3181 69.6361 30.2611 68.7336 28.3665C67.8312 26.4718 66.5545 24.7785 64.9802 23.3881C63.4058 21.9977 61.5663 20.9389 59.5718 20.2751C57.5773 19.6113 55.469 19.3563 53.3734 19.5252C52.5601 19.5912 51.7466 19.4013 51.0471 18.9821C50.3477 18.563 49.7974 17.9357 49.4737 17.1884C48.2638 14.3969 46.2616 12.0195 43.7139 10.3496C41.1662 8.67967 38.1843 7.79011 35.136 7.7906ZM36.2797 28.4051C37.0118 27.6749 38.0045 27.2648 39.0395 27.2648C40.0746 27.2648 41.0673 27.6749 41.7994 28.4051L49.6064 36.1944C50.3175 36.929 50.711 37.9128 50.7021 38.9339C50.6932 39.9551 50.2826 40.9319 49.5589 41.6541C48.8351 42.3762 47.8561 42.7858 46.8326 42.7946C45.8091 42.8035 44.823 42.4109 44.0868 41.7015L42.9431 40.5604V70.1053C42.9431 71.1383 42.5318 72.1289 41.7998 72.8593C41.0677 73.5897 40.0748 74 39.0395 74C38.0043 74 37.0114 73.5897 36.2793 72.8593C35.5473 72.1289 35.136 71.1383 35.136 70.1053V40.5604L33.9923 41.7015C33.256 42.4109 32.27 42.8035 31.2465 42.7946C30.223 42.7858 29.244 42.3762 28.5202 41.6541C27.7965 40.9319 27.3859 39.9551 27.377 38.9339C27.3681 37.9128 27.7616 36.929 28.4727 36.1944L36.2797 28.4051Z" fill="#E7E7E7"/>
</svg>
