<svg width="24" height="24" viewBox="0 0 24 24" fill="none" xmlns="http://www.w3.org/2000/svg">
<mask id="mask0_857_4606" style="mask-type:alpha" maskUnits="userSpaceOnUse" x="0" y="0" width="24" height="24">
<rect width="24" height="24" fill="#D9D9D9"/>
</mask>
<g mask="url(#mask0_857_4606)">
<path d="M8.95375 11.3539L11.1713 9.12112L9.44425 7.37862L8.31525 8.50762L7.2615 7.45387L8.375 6.32487L6.8365 4.78637L4.60375 7.01912L8.95375 11.3539ZM16.9713 19.3864L19.2038 17.1536L17.6653 15.6151L16.5365 16.7286L15.4828 15.6749L16.5963 14.5461L14.8635 12.8286L12.646 15.0461L16.9713 19.3864ZM7.202 20.4999H3.5V16.7979L7.88475 12.4134L2.5 7.01912L6.8365 2.68262L12.2558 8.09212L16.377 3.95562C16.5322 3.80045 16.7027 3.6857 16.8885 3.61137C17.0743 3.53703 17.2686 3.49987 17.4713 3.49987C17.6738 3.49987 17.8679 3.53703 18.0538 3.61137C18.2398 3.6857 18.4103 3.80045 18.5653 3.95562L20.0443 5.47887C20.1994 5.63387 20.3125 5.80437 20.3835 5.99037C20.4547 6.1762 20.4903 6.37037 20.4903 6.57287C20.4903 6.77553 20.4547 6.96562 20.3835 7.14312C20.3125 7.32062 20.1994 7.48695 20.0443 7.64212L15.9423 11.7691L21.3173 17.1634L16.9808 21.4999L11.5865 16.1151L7.202 20.4999ZM5 18.9999H6.5635L16.373 9.20562L14.7943 7.62687L5 17.4364V18.9999ZM15.5963 8.41912L14.7943 7.62687L16.373 9.20562L15.5963 8.41912Z" fill="#171717"/>
</g>
</svg>
