<svg width="22" height="22" viewBox="0 0 22 22" fill="none" xmlns="http://www.w3.org/2000/svg">
<mask id="mask0_936_7313" style="mask-type:alpha" maskUnits="userSpaceOnUse" x="0" y="0" width="22" height="22">
<rect width="22" height="22" fill="#D9D9D9"/>
</mask>
<g mask="url(#mask0_936_7313)">
<path d="M7.91354 17.4165V15.5832H18.7777V17.4165H7.91354ZM7.91354 11.9165V10.0832H18.7777V11.9165H7.91354ZM7.91354 6.4165V4.58317H18.7777V6.4165H7.91354ZM4.29215 18.3332C3.7942 18.3332 3.36793 18.1537 3.01334 17.7946C2.65874 17.4356 2.48145 17.004 2.48145 16.4998C2.48145 15.9957 2.65874 15.5641 3.01334 15.205C3.36793 14.846 3.7942 14.6665 4.29215 14.6665C4.79009 14.6665 5.21636 14.846 5.57095 15.205C5.92555 15.5641 6.10284 15.9957 6.10284 16.4998C6.10284 17.004 5.92555 17.4356 5.57095 17.7946C5.21636 18.1537 4.79009 18.3332 4.29215 18.3332ZM4.29215 12.8332C3.7942 12.8332 3.36793 12.6537 3.01334 12.2946C2.65874 11.9356 2.48145 11.504 2.48145 10.9998C2.48145 10.4957 2.65874 10.0641 3.01334 9.70505C3.36793 9.34602 3.7942 9.1665 4.29215 9.1665C4.79009 9.1665 5.21636 9.34602 5.57095 9.70505C5.92555 10.0641 6.10284 10.4957 6.10284 10.9998C6.10284 11.504 5.92555 11.9356 5.57095 12.2946C5.21636 12.6537 4.79009 12.8332 4.29215 12.8332ZM4.29215 7.33317C3.7942 7.33317 3.36793 7.15366 3.01334 6.79463C2.65874 6.4356 2.48145 6.004 2.48145 5.49984C2.48145 4.99567 2.65874 4.56407 3.01334 4.20505C3.36793 3.84602 3.7942 3.6665 4.29215 3.6665C4.79009 3.6665 5.21636 3.84602 5.57095 4.20505C5.92555 4.56407 6.10284 4.99567 6.10284 5.49984C6.10284 6.004 5.92555 6.4356 5.57095 6.79463C5.21636 7.15366 4.79009 7.33317 4.29215 7.33317Z" fill="#171717"/>
</g>
</svg>
