<svg width="54" height="39" viewBox="0 0 54 39" fill="none" xmlns="http://www.w3.org/2000/svg">
<g clip-path="url(#clip0_1262_2403)">
<path d="M52.3716 -0.193298H1.37158V34.8067H52.3716V-0.193298Z" fill="#F6F9F8"/>
<path d="M28.554 8.52516C29.154 7.25545 30.1826 8.86374 31.6398 8.86374C33.0969 8.86374 33.0969 8.35586 34.4683 8.35586C35.8397 8.35586 35.9255 8.86374 37.2969 8.86374C38.6683 8.86374 39.8683 7.17081 40.3826 8.52516C41.6683 11.4878 39.8683 11.911 39.8683 15.1276C39.8683 18.3442 40.3826 18.3442 40.3826 21.6454C40.3826 24.9466 39.8683 24.862 39.8683 28.1632C39.8683 31.4644 41.6683 31.803 40.3826 34.7657C39.0969 37.7283 38.754 34.4271 37.2969 34.4271C35.8398 34.4271 35.8397 34.935 34.4683 34.935C33.0969 34.935 33.0112 34.4271 31.6398 34.4271C30.2683 34.4271 29.0683 36.12 28.554 34.7657C27.2683 31.803 29.0683 31.3798 29.0683 28.1632C29.0683 24.9466 28.554 24.9466 28.554 21.6454C28.554 18.3442 29.5826 18.3442 29.0683 15.1276C28.554 11.911 27.2683 11.5724 28.554 8.52516Z" fill="#F2BE42"/>
<path d="M12.5778 16.3188C13.3493 15.0491 14.2064 16.5727 15.7493 16.5727C17.2921 16.5727 17.2064 16.2341 18.7493 16.2341C20.2921 16.2341 20.2064 16.5727 21.7493 16.5727C23.2921 16.5727 24.0635 15.0491 24.9207 16.3188C26.2064 18.2657 24.5778 18.7735 24.5778 21.059C24.5778 23.3445 24.9207 23.3445 24.9207 25.7146C24.9207 28.0847 24.5778 28 24.5778 30.3702C24.5778 32.7403 26.2064 33.1635 24.9207 35.1104C23.635 37.0573 23.2921 34.8564 21.7493 34.8564C20.2064 34.8564 20.2921 35.195 18.7493 35.195C17.2064 35.195 17.2921 34.8564 15.7493 34.8564C14.2064 34.8564 13.435 36.3801 12.5778 35.1104C11.2921 33.1635 12.9207 32.6556 12.9207 30.3702C12.9207 28.0847 12.5778 28.0847 12.5778 25.7146C12.5778 23.3445 13.3493 23.3445 12.9207 21.059C12.4921 18.7735 11.2921 18.3503 12.5778 16.3188Z" fill="#3F288F"/>
<path d="M0.508789 35.3123L0.508789 0" stroke="#A1A1A1" stroke-width="2"/>
<path d="M-0.5 35.279H52.9912" stroke="#A1A1A1" stroke-width="2"/>
</g>
<defs>
<clipPath id="clip0_1262_2403">
<rect width="54" height="39" fill="white"/>
</clipPath>
</defs>
</svg>

