<svg width="54" height="41" viewBox="0 0 54 41" fill="none" xmlns="http://www.w3.org/2000/svg">
<g clip-path="url(#clip0_1265_5270)">
<path d="M52.3242 0.452271H1.32422V35.4523H52.3242V0.452271Z" fill="#F6F9F8"/>
<path d="M0.508789 35.3123L0.508789 0" stroke="#A1A1A1" stroke-width="2"/>
<path d="M-0.5 35.279H52.9912" stroke="#A1A1A1" stroke-width="2"/>
<path d="M8 24.7197L45 11.6564" stroke="#F2BE42" stroke-width="1.5" stroke-linecap="round"/>
<path d="M13.561 11.1335C13.9752 11.1335 14.311 10.7978 14.311 10.3835C14.311 9.96933 13.9752 9.63354 13.561 9.63354C13.1468 9.63354 12.811 9.96933 12.811 10.3835C12.811 10.7978 13.1468 11.1335 13.561 11.1335Z" fill="#07365F"/>
<path d="M26.1348 14.984C26.549 14.984 26.8848 14.6482 26.8848 14.234C26.8848 13.8198 26.549 13.484 26.1348 13.484C25.7206 13.484 25.3848 13.8198 25.3848 14.234C25.3848 14.6482 25.7206 14.984 26.1348 14.984Z" fill="#07365F"/>
<path d="M36.4639 17.872C36.8781 17.872 37.2139 17.5362 37.2139 17.122C37.2139 16.7078 36.8781 16.372 36.4639 16.372C36.0497 16.372 35.7139 16.7078 35.7139 17.122C35.7139 17.5362 36.0497 17.872 36.4639 17.872Z" fill="#07365F"/>
<path d="M15.3574 20.7598C15.7716 20.7598 16.1074 20.424 16.1074 20.0098C16.1074 19.5956 15.7716 19.2598 15.3574 19.2598C14.9432 19.2598 14.6074 19.5956 14.6074 20.0098C14.6074 20.424 14.9432 20.7598 15.3574 20.7598Z" fill="#07365F"/>
<path d="M16.7043 25.573C17.1186 25.573 17.4543 25.2372 17.4543 24.823C17.4543 24.4088 17.1186 24.073 16.7043 24.073C16.2901 24.073 15.9543 24.4088 15.9543 24.823C15.9543 25.2372 16.2901 25.573 16.7043 25.573Z" fill="#07365F"/>
<path d="M23.8896 9.20828C24.3039 9.20828 24.6396 8.8725 24.6396 8.45828C24.6396 8.04407 24.3039 7.70828 23.8896 7.70828C23.4754 7.70828 23.1396 8.04407 23.1396 8.45828C23.1396 8.8725 23.4754 9.20828 23.8896 9.20828Z" fill="#07365F"/>
<path d="M11.3159 21.2411C11.7301 21.2411 12.0659 20.9053 12.0659 20.4911C12.0659 20.0768 11.7301 19.7411 11.3159 19.7411C10.9017 19.7411 10.5659 20.0768 10.5659 20.4911C10.5659 20.9053 10.9017 21.2411 11.3159 21.2411Z" fill="#07365F"/>
<path d="M36.4639 13.0587C36.8781 13.0587 37.2139 12.723 37.2139 12.3087C37.2139 11.8945 36.8781 11.5587 36.4639 11.5587C36.0497 11.5587 35.7139 11.8945 35.7139 12.3087C35.7139 12.723 36.0497 13.0587 36.4639 13.0587Z" fill="#07365F"/>
<path d="M25.6858 18.8345C26.1 18.8345 26.4358 18.4987 26.4358 18.0845C26.4358 17.6703 26.1 17.3345 25.6858 17.3345C25.2716 17.3345 24.9358 17.6703 24.9358 18.0845C24.9358 18.4987 25.2716 18.8345 25.6858 18.8345Z" fill="#07365F"/>
<path d="M27.0332 23.6477C27.4474 23.6477 27.7832 23.3119 27.7832 22.8977C27.7832 22.4835 27.4474 22.1477 27.0332 22.1477C26.619 22.1477 26.2832 22.4835 26.2832 22.8977C26.2832 23.3119 26.619 23.6477 27.0332 23.6477Z" fill="#07365F"/>
<path d="M21.644 17.872C22.0583 17.872 22.394 17.5362 22.394 17.122C22.394 16.7078 22.0583 16.372 21.644 16.372C21.2298 16.372 20.894 16.7078 20.894 17.122C20.894 17.5362 21.2298 17.872 21.644 17.872Z" fill="#07365F"/>
<path d="M22.9915 22.685C23.4057 22.685 23.7415 22.3492 23.7415 21.935C23.7415 21.5208 23.4057 21.185 22.9915 21.185C22.5772 21.185 22.2415 21.5208 22.2415 21.935C22.2415 22.3492 22.5772 22.685 22.9915 22.685Z" fill="#07365F"/>
<path d="M11.3159 28.4609C11.7301 28.4609 12.0659 28.1251 12.0659 27.7109C12.0659 27.2967 11.7301 26.9609 11.3159 26.9609C10.9017 26.9609 10.5659 27.2967 10.5659 27.7109C10.5659 28.1251 10.9017 28.4609 11.3159 28.4609Z" fill="#07365F"/>
<path d="M30.6257 14.984C31.0399 14.984 31.3757 14.6482 31.3757 14.234C31.3757 13.8198 31.0399 13.484 30.6257 13.484C30.2115 13.484 29.8757 13.8198 29.8757 14.234C29.8757 14.6482 30.2115 14.984 30.6257 14.984Z" fill="#07365F"/>
<path d="M34.218 21.7225C34.6322 21.7225 34.968 21.3867 34.968 20.9725C34.968 20.5583 34.6322 20.2225 34.218 20.2225C33.8038 20.2225 33.468 20.5583 33.468 20.9725C33.468 21.3867 33.8038 21.7225 34.218 21.7225Z" fill="#07365F"/>
<path d="M43.1997 18.8345C43.6139 18.8345 43.9497 18.4987 43.9497 18.0845C43.9497 17.6703 43.6139 17.3345 43.1997 17.3345C42.7855 17.3345 42.4497 17.6703 42.4497 18.0845C42.4497 18.4987 42.7855 18.8345 43.1997 18.8345Z" fill="#07365F"/>
<path d="M23.4404 27.498C23.8546 27.498 24.1904 27.1622 24.1904 26.748C24.1904 26.3338 23.8546 25.998 23.4404 25.998C23.0262 25.998 22.6904 26.3338 22.6904 26.748C22.6904 27.1622 23.0262 27.498 23.4404 27.498Z" fill="#07365F"/>
<path d="M32.4221 24.6103C32.8363 24.6103 33.1721 24.2745 33.1721 23.8603C33.1721 23.4461 32.8363 23.1103 32.4221 23.1103C32.0079 23.1103 31.6721 23.4461 31.6721 23.8603C31.6721 24.2745 32.0079 24.6103 32.4221 24.6103Z" fill="#07365F"/>
</g>
<defs>
<clipPath id="clip0_1265_5270">
<rect width="54" height="41" fill="white"/>
</clipPath>
</defs>
</svg>

