<svg width="60" height="45" viewBox="0 0 60 45" fill="none" xmlns="http://www.w3.org/2000/svg">
<path d="M58 2.83954H2V41.9379H58V2.83954Z" fill="#F4F8F7"/>
<path d="M9.55689 31.9451H6.14819V41.469H9.55689V31.9451Z" fill="#69BBC4"/>
<path d="M14.4265 19.4135H11.0178V41.4689H14.4265V19.4135Z" fill="#69BBC4"/>
<path d="M24.1655 19.4135H20.7568V41.4689H24.1655V19.4135Z" fill="#69BBC4"/>
<path d="M19.2957 12.8972H15.887V41.4691H19.2957V12.8972Z" fill="#69BBC4"/>
<path d="M33.9048 23.9249H30.4961V41.469H33.9048V23.9249Z" fill="#F2BE42"/>
<path d="M38.7742 19.4135H35.3655V36.9576H38.7742V19.4135Z" fill="#F2BE42"/>
<path d="M43.5806 14.9022H40.1719V32.4463H43.5806V14.9022Z" fill="#F2BE42"/>
<path d="M48.45 23.9249H45.0413V41.469H48.45V23.9249Z" fill="#F2BE42"/>
<path d="M49.8474 36.4564H53.256V41.469H49.8474V36.4564Z" fill="#F2BE42"/>
<path d="M9.55689 36.9576H6.14819V41.4689H9.55689V36.9576Z" fill="#3F288F"/>
<path d="M19.2957 25.9298H15.887V41.4689H19.2957V25.9298Z" fill="#3F288F"/>
<path d="M33.9048 25.9298H30.4961V41.4689H33.9048V25.9298Z" fill="#3F288F"/>
<path d="M14.4265 28.9374H11.0178V41.4689H14.4265V28.9374Z" fill="#3F288F"/>
<path d="M43.5806 28.9374H40.1719V41.4689H43.5806V28.9374Z" fill="#3F288F"/>
<path d="M29.0352 19.4135H25.6265V41.4689H29.0352V19.4135Z" fill="#3F288F"/>
<path d="M24.1655 22.421H20.7568V41.469H24.1655V22.421Z" fill="#3F288F"/>
<path d="M38.7742 22.421H35.3655V41.469H38.7742V22.421Z" fill="#3F288F"/>
<path d="M48.45 32.9474H45.0413V41.4689H48.45V32.9474Z" fill="#69BBC4"/>
<path d="M53.2561 38.963H49.8474V41.4693H53.2561V38.963Z" fill="#69BBC4"/>
<path d="M48.45 34.9526H45.0413V41.469H48.45V34.9526Z" fill="#3F288F"/>
<path d="M53.2561 40.4665H49.8474V41.469H53.2561V40.4665Z" fill="#3F288F"/>
<path d="M2.51733 43.1952L2.51733 2.83956" stroke="#A1A1A1" stroke-width="2"/>
<path d="M1.48022 42.1604H58" stroke="#A1A1A1" stroke-width="2"/>
</svg>

