<svg width="60" height="45" viewBox="0 0 60 45" fill="none" xmlns="http://www.w3.org/2000/svg">
<g clip-path="url(#clip0_3006_273)">
<path d="M56.2622 2.96387H3.37329V38.8613H56.2622V2.96387Z" fill="#F6F9F8"/>
<path d="M30.4611 11.0021C30.4855 11.0013 30.9901 11.0013 31.014 11.0013C35.0428 11.0013 35.4686 17.3532 36.0642 22.13C36.2177 23.3577 36.2703 24.6969 36.4555 25.6045C37.5638 31.0325 40.7307 34.9732 45.1447 36.4157C46.0725 36.7145 46.2905 36.033 45.3662 35.7267C41.4544 34.4482 38.307 30.4806 37.2903 25.4992C37.1132 24.6323 37.1232 23.2054 36.9731 21.999C36.3176 16.7438 35.8978 10.2624 30.5306 10.2624C30.4916 10.2624 30.5193 10.259 30.4805 10.2594C29.2654 10.2666 27.6537 11.1303 26.7873 11.8471C25.4884 9.05743 24.8184 7.0957 22.0683 7.0957C22.0299 7.0957 22.0746 7.08975 22.0362 7.0901C16.9952 7.17703 15.0327 15.0273 14.7402 16.8147C14.3946 18.5938 14.0878 19.0315 13.6132 20.4817C12.6061 23.4921 9.58082 26.6329 6.73203 28.6418C5.92341 29.1339 6.36439 29.6346 7.17301 29.1425C7.35725 29.031 12.2505 26.4587 14.2022 20.8905C14.6989 19.4742 15.0761 18.7677 15.429 17.1806C16.5949 11.9306 18.3232 7.74681 21.8726 7.68569C21.8975 7.6853 21.9253 7.68626 21.9499 7.68626C24.1254 7.68626 25.5049 10.1633 26.3163 12.3842C24.7579 14.546 23.8298 17.6048 23.171 20.9114C22.8245 22.65 22.431 24.0599 21.9543 25.5763C20.9909 27.3803 15.8139 31.7816 15.7724 31.8098C14.996 32.3374 15.386 32.9204 16.1624 32.3928C16.3452 32.2686 17.4384 31.3395 22.4162 25.9724C22.9109 24.3996 23.698 22.7858 24.0504 21.0188C24.5662 18.4286 25.4106 13.4152 26.7815 12.8901C27.6504 14.547 27.5961 16.4728 27.7694 18.2409C27.8508 18.9454 28.1015 21.4224 28.1858 21.9809C28.8472 26.3661 29.2679 29.2361 33.4985 30.829C34.4449 31.1163 34.2527 30.3537 33.3011 30.0789C30.2144 29.1653 29.4373 25.9885 28.6989 21.092C28.617 20.552 28.5415 19.8955 28.4611 19.2005C28.2629 16.902 28.0571 14.6665 27.4326 12.4227C28.0528 11.6493 29.3531 11.0374 30.4611 11.0021Z" fill="#3F288F"/>
<path d="M22.7409 4.5513H21.7039V8.65386H22.7409V4.5513Z" fill="#69BBC4"/>
<path d="M22.7409 11.7308H21.7039V15.8333H22.7409V11.7308Z" fill="#69BBC4"/>
<path d="M22.7409 18.9103H21.7039V23.0128H22.7409V18.9103Z" fill="#69BBC4"/>
<path d="M22.7409 33.2693H21.7039V37.3718H22.7409V33.2693Z" fill="#69BBC4"/>
<path d="M32.0741 4.5513H31.0371V8.65386H32.0741V4.5513Z" fill="#F2BE42"/>
<path d="M32.0741 11.7308H31.0371V15.8333H32.0741V11.7308Z" fill="#F2BE42"/>
<path d="M32.0741 18.9103H31.0371V23.0128H32.0741V18.9103Z" fill="#F2BE42"/>
<path d="M32.0741 33.2693H31.0371V37.3718H32.0741V33.2693Z" fill="#F2BE42"/>
<path d="M39.4702 14.2453C39.4946 14.2445 39.9992 14.2445 40.0231 14.2445C44.0519 14.2445 44.4776 20.5964 45.0733 25.3732C45.2268 26.6009 45.2794 27.9401 45.4646 28.8477C46.5729 34.2757 49.7398 38.2164 54.1538 39.659C55.0816 39.9577 55.2996 39.2763 54.3752 38.97C50.4634 37.6914 47.3161 33.7238 46.2993 28.7424C46.1223 27.8755 46.1323 26.4486 45.9822 25.2422C45.3266 19.9871 44.9068 13.5056 39.5397 13.5056C39.5007 13.5056 39.5284 13.5023 39.4895 13.5026C38.2744 13.5098 36.6034 14.1701 35.7369 14.8869C34.438 12.0972 33.8275 10.3389 31.0774 10.3389C31.0389 10.3389 31.0837 10.333 31.0453 10.3333C26.0042 10.4203 24.0901 17.0499 23.7976 18.8373C23.452 20.6164 23.0969 22.2747 22.6222 23.7249C21.6152 26.7353 18.5899 29.8762 15.7411 31.885C14.9325 32.3772 15.3382 32.6661 16.1468 32.174C18.9779 29.2745 20.5184 29.5608 23.2113 24.1338C23.7079 22.7174 23.8632 20.9921 24.2161 19.405C25.382 14.155 27.3323 10.99 30.8817 10.9289C30.9065 10.9285 30.9344 10.9295 30.959 10.9295C33.1345 10.9295 34.2599 13.0926 35.0713 15.3135C33.5128 17.4753 32.8389 20.848 32.1801 24.1546C31.8336 25.8932 31.4754 27.6913 30.9987 29.2077C29.1882 34.9643 24.8229 37.4599 24.7815 37.4882C24.005 38.0158 24.3951 38.5987 25.1715 38.0711C25.3543 37.9469 29.906 35.6415 31.8487 29.4627C32.3434 27.8899 32.7071 26.029 33.0594 24.2621C33.5753 21.6719 34.4197 16.6584 35.7906 16.1333C36.6595 17.7902 36.6052 19.716 36.7785 21.4841C36.8599 22.1886 37.1105 24.6656 37.1948 25.2241C37.8562 29.6094 39.4758 32.1047 42.0767 34.6903C43.0231 34.9777 42.8872 34.29 41.8793 33.9403C39.7105 31.603 37.9032 30.5805 37.1648 25.6839C37.0829 25.1439 36.9699 23.6257 36.8895 22.9307C36.6913 20.6322 36.6122 17.8815 35.9877 15.6377C36.6079 14.8643 38.3621 14.2806 39.4702 14.2453Z" fill="#3F288F"/>
<path d="M32.0741 26.0898H31.0371V30.1923H32.0741V26.0898Z" fill="#F2BE42"/>
<path d="M22.7409 26.0898H21.7039V30.1923H22.7409V26.0898Z" fill="#69BBC4"/>
<path d="M40.3705 4.5513H39.3335V8.65386H40.3705V4.5513Z" fill="#8F1F14"/>
<path d="M40.3705 11.7308H39.3335V15.8333H40.3705V11.7308Z" fill="#8F1F14"/>
<path d="M40.3705 18.9103H39.3335V23.0128H40.3705V18.9103Z" fill="#8F1F14"/>
<path d="M40.3705 33.2693H39.3335V37.3718H40.3705V33.2693Z" fill="#8F1F14"/>
<path d="M40.3705 26.0898H39.3335V30.1923H40.3705V26.0898Z" fill="#8F1F14"/>
<path d="M2.52759 38.7178L2.52759 2.50001" stroke="#A1A1A1" stroke-width="2"/>
<path d="M1.48145 38.6836H56.9538" stroke="#A1A1A1" stroke-width="2"/>
</g>
<defs>
<clipPath id="clip0_3006_273">
<rect width="56" height="40" fill="white" transform="translate(2 2.5)"/>
</clipPath>
</defs>
</svg>

