<svg width="60" height="45" viewBox="0 0 60 45" fill="none" xmlns="http://www.w3.org/2000/svg">
<path d="M58 2.90405H2V42.0023H58V2.90405Z" fill="#F4F8F7"/>
<path d="M10.2964 28.83L50.7408 16.3856" stroke="#F2BE42" stroke-width="1.5"/>
<path d="M16.4752 16.7805C16.9592 16.7805 17.3517 16.3881 17.3517 15.904C17.3517 15.4199 16.9592 15.0275 16.4752 15.0275C15.9911 15.0275 15.5986 15.4199 15.5986 15.904C15.5986 16.3881 15.9911 16.7805 16.4752 16.7805Z" fill="#3F288F"/>
<path d="M28.7461 20.2866C29.2302 20.2866 29.6227 19.8941 29.6227 19.41C29.6227 18.9259 29.2302 18.5335 28.7461 18.5335C28.2621 18.5335 27.8696 18.9259 27.8696 19.41C27.8696 19.8941 28.2621 20.2866 28.7461 20.2866Z" fill="#3F288F"/>
<path d="M38.8265 22.9162C39.3106 22.9162 39.703 22.5238 39.703 22.0397C39.703 21.5556 39.3106 21.1631 38.8265 21.1631C38.3424 21.1631 37.95 21.5556 37.95 22.0397C37.95 22.5238 38.3424 22.9162 38.8265 22.9162Z" fill="#3F288F"/>
<path d="M18.2283 25.5457C18.7124 25.5457 19.1048 25.1533 19.1048 24.6692C19.1048 24.1851 18.7124 23.7927 18.2283 23.7927C17.7442 23.7927 17.3518 24.1851 17.3518 24.6692C17.3518 25.1533 17.7442 25.5457 18.2283 25.5457Z" fill="#3F288F"/>
<path d="M19.5428 29.9285C20.0269 29.9285 20.4193 29.536 20.4193 29.0519C20.4193 28.5678 20.0269 28.1754 19.5428 28.1754C19.0587 28.1754 18.6663 28.5678 18.6663 29.0519C18.6663 29.536 19.0587 29.9285 19.5428 29.9285Z" fill="#3F288F"/>
<path d="M26.555 15.0275C27.0391 15.0275 27.4315 14.635 27.4315 14.1509C27.4315 13.6668 27.0391 13.2744 26.555 13.2744C26.0709 13.2744 25.6785 13.6668 25.6785 14.1509C25.6785 14.635 26.0709 15.0275 26.555 15.0275Z" fill="#3F288F"/>
<path d="M14.284 25.984C14.7681 25.984 15.1605 25.5916 15.1605 25.1075C15.1605 24.6234 14.7681 24.231 14.284 24.231C13.7999 24.231 13.4075 24.6234 13.4075 25.1075C13.4075 25.5916 13.7999 25.984 14.284 25.984Z" fill="#3F288F"/>
<path d="M38.8265 18.5336C39.3106 18.5336 39.703 18.1411 39.703 17.657C39.703 17.1729 39.3106 16.7805 38.8265 16.7805C38.3424 16.7805 37.95 17.1729 37.95 17.657C37.95 18.1411 38.3424 18.5336 38.8265 18.5336Z" fill="#3F288F"/>
<path d="M28.3079 23.7927C28.792 23.7927 29.1844 23.4002 29.1844 22.9161C29.1844 22.432 28.792 22.0396 28.3079 22.0396C27.8238 22.0396 27.4314 22.432 27.4314 22.9161C27.4314 23.4002 27.8238 23.7927 28.3079 23.7927Z" fill="#3F288F"/>
<path d="M29.6231 28.1754C30.1072 28.1754 30.4996 27.783 30.4996 27.2989C30.4996 26.8148 30.1072 26.4224 29.6231 26.4224C29.139 26.4224 28.7466 26.8148 28.7466 27.2989C28.7466 27.783 29.139 28.1754 29.6231 28.1754Z" fill="#3F288F"/>
<path d="M24.3636 22.9162C24.8477 22.9162 25.2401 22.5238 25.2401 22.0397C25.2401 21.5556 24.8477 21.1631 24.3636 21.1631C23.8795 21.1631 23.4871 21.5556 23.4871 22.0397C23.4871 22.5238 23.8795 22.9162 24.3636 22.9162Z" fill="#3F288F"/>
<path d="M25.6788 27.2989C26.1629 27.2989 26.5553 26.9064 26.5553 26.4224C26.5553 25.9383 26.1629 25.5458 25.6788 25.5458C25.1947 25.5458 24.8022 25.9383 24.8022 26.4224C24.8022 26.9064 25.1947 27.2989 25.6788 27.2989Z" fill="#3F288F"/>
<path d="M14.284 32.5581C14.7681 32.5581 15.1605 32.1657 15.1605 31.6816C15.1605 31.1975 14.7681 30.8051 14.284 30.8051C13.7999 30.8051 13.4075 31.1975 13.4075 31.6816C13.4075 32.1657 13.7999 32.5581 14.284 32.5581Z" fill="#3F288F"/>
<path d="M33.1292 20.2866C33.6133 20.2866 34.0057 19.8941 34.0057 19.41C34.0057 18.9259 33.6133 18.5335 33.1292 18.5335C32.6451 18.5335 32.2527 18.9259 32.2527 19.41C32.2527 19.8941 32.6451 20.2866 33.1292 20.2866Z" fill="#3F288F"/>
<path d="M36.6348 26.4224C37.1189 26.4224 37.5113 26.0299 37.5113 25.5458C37.5113 25.0617 37.1189 24.6693 36.6348 24.6693C36.1507 24.6693 35.7583 25.0617 35.7583 25.5458C35.7583 26.0299 36.1507 26.4224 36.6348 26.4224Z" fill="#3F288F"/>
<path d="M45.4004 23.7927C45.8845 23.7927 46.277 23.4002 46.277 22.9161C46.277 22.432 45.8845 22.0396 45.4004 22.0396C44.9164 22.0396 44.5239 22.432 44.5239 22.9161C44.5239 23.4002 44.9164 23.7927 45.4004 23.7927Z" fill="#3F288F"/>
<path d="M26.1168 31.6813C26.6008 31.6813 26.9933 31.2888 26.9933 30.8047C26.9933 30.3207 26.6008 29.9282 26.1168 29.9282C25.6327 29.9282 25.2402 30.3207 25.2402 30.8047C25.2402 31.2888 25.6327 31.6813 26.1168 31.6813Z" fill="#3F288F"/>
<path d="M34.8821 29.0519C35.3662 29.0519 35.7587 28.6594 35.7587 28.1753C35.7587 27.6913 35.3662 27.2988 34.8821 27.2988C34.398 27.2988 34.0056 27.6913 34.0056 28.1753C34.0056 28.6594 34.398 29.0519 34.8821 29.0519Z" fill="#3F288F"/>
<path d="M2 43.1331L2 2.68868" stroke="#A1A1A1" stroke-width="2"/>
<path d="M2 42.0959H57.8112" stroke="#A1A1A1" stroke-width="2"/>
</svg>

