<svg width="60" height="45" viewBox="0 0 60 45" fill="none" xmlns="http://www.w3.org/2000/svg">
<g clip-path="url(#clip0_3006_740)">
<mask id="mask0_3006_740" style="mask-type:alpha" maskUnits="userSpaceOnUse" x="18" y="10" width="24" height="25">
<path d="M42 10.5H18V34.5H42V10.5Z" fill="#D9D9D9"/>
</mask>
<g mask="url(#mask0_3006_740)">
<path d="M25.4 32.1539L24.3461 31.1L30.9 24.5308L34.4 28.0308L39.5749 22.8558L40.6441 23.9249L34.4 30.1539L30.9 26.6539L25.4 32.1539ZM22.3077 31C21.8026 31 21.375 30.8249 21.025 30.4749C20.675 30.1249 20.5 29.6973 20.5 29.1923V15.8077C20.5 15.3026 20.675 14.875 21.025 14.525C21.375 14.175 21.8026 14 22.3077 14H35.6923C36.1973 14 36.6249 14.175 36.9749 14.525C37.3249 14.875 37.5 15.3026 37.5 15.8077V20.0077H22V29.1923C22 29.2692 22.032 29.3397 22.0961 29.4039C22.1602 29.4679 22.2308 29.5 22.3077 29.5V31ZM22 18.5077H36V15.8077C36 15.7308 35.9679 15.6602 35.9039 15.5961C35.8397 15.532 35.7692 15.5 35.6923 15.5H22.3077C22.2308 15.5 22.1602 15.532 22.0961 15.5961C22.032 15.6602 22 15.7308 22 15.8077V18.5077Z" fill="#1C1B1F"/>
</g>
</g>
<defs>
<clipPath id="clip0_3006_740">
<rect width="60" height="45" fill="white"/>
</clipPath>
</defs>
</svg>

