<svg width="60" height="45" viewBox="0 0 60 45" fill="none" xmlns="http://www.w3.org/2000/svg">
<mask id="mask0_3006_725" style="mask-type:alpha" maskUnits="userSpaceOnUse" x="18" y="10" width="24" height="25">
<rect x="18" y="10.5" width="24" height="24" fill="#D9D9D9"/>
</mask>
<g mask="url(#mask0_3006_725)">
<path d="M23 31.5C22.45 31.5 21.9792 31.3042 21.5875 30.9125C21.1958 30.5208 21 30.05 21 29.5V15.5C21 14.95 21.1958 14.4792 21.5875 14.0875C21.9792 13.6958 22.45 13.5 23 13.5H37C37.55 13.5 38.0208 13.6958 38.4125 14.0875C38.8042 14.4792 39 14.95 39 15.5V29.5C39 30.05 38.8042 30.5208 38.4125 30.9125C38.0208 31.3042 37.55 31.5 37 31.5H23ZM29 25.5H23V29.5H29V25.5ZM31 25.5V29.5H37V25.5H31ZM29 23.5V19.5H23V23.5H29ZM31 23.5H37V19.5H31V23.5ZM23 17.5H37V15.5H23V17.5Z" fill="#1C1B1F"/>
</g>
</svg>

