<svg width="60" height="45" viewBox="0 0 60 45" fill="none" xmlns="http://www.w3.org/2000/svg">
<g clip-path="url(#clip0_3006_650)">
<path d="M56.2622 2.96387H3.37329V38.8613H56.2622V2.96387Z" fill="#F6F9F8"/>
<path d="M2.52759 38.7178L2.52759 2.50001" stroke="#A1A1A1" stroke-width="2"/>
<path d="M1.48145 38.6836H56.9538" stroke="#A1A1A1" stroke-width="2"/>
<path d="M34.6447 11.0071C34.6738 11.0063 35.2762 11.0063 35.3048 11.0063C40.1145 11.0063 40.6228 17.3582 41.3339 22.135C41.5172 23.3627 41.58 24.7019 41.8011 25.6095C43.1243 31.0375 46.9051 34.9782 52.1747 36.4208C53.2824 36.7195 53.5426 36.0381 52.4391 35.7318C47.769 34.4532 44.0115 30.4856 42.7977 25.5042C42.5863 24.6373 42.5982 23.2104 42.419 22.004C41.6364 16.7489 41.1352 10.2674 34.7276 10.2674C34.6811 10.2674 34.7141 10.2641 34.6678 10.2644C33.2171 10.2716 31.293 11.1353 30.2586 11.8521C28.7079 9.06245 27.5796 7.11541 24.2964 7.11541C24.2504 7.11541 24.3039 7.10945 24.258 7.1098C18.2397 7.19673 16.3493 14.5587 16.0001 16.3462C15.5875 18.1252 15.0973 19.0365 14.5306 20.4867C13.3284 23.4971 10.0678 26.1322 6.66673 28.141C5.70135 28.6331 5.87666 29.6397 6.84204 29.1475C7.06199 29.036 13.1514 26.5921 15.4815 21.0239C16.0744 19.6075 16.2772 18.7727 16.6985 17.1856C18.0904 11.9356 20.1538 7.75183 24.3912 7.69071C24.4209 7.69032 24.4541 7.69128 24.4835 7.69128C27.0807 7.69128 28.4243 9.85442 29.393 12.0753C27.5324 14.2371 26.7278 17.6098 25.9414 20.9164C25.5276 22.655 25.1 24.4531 24.5309 25.9695C22.3695 31.7261 17.158 34.2217 17.1085 34.2499C16.1815 34.7776 16.6471 35.3605 17.5741 34.8329C17.7923 34.7087 23.2264 32.4033 25.5457 26.2245C26.1363 24.6517 26.5704 22.7908 26.9911 21.0239C27.607 18.4336 28.6151 13.4202 30.2517 12.8951C31.2891 14.552 31.2242 16.4778 31.4312 18.2459C31.5283 18.9504 31.8276 21.4274 31.9282 21.9859C32.7178 26.3711 33.2201 29.2412 38.2708 30.834C39.4007 31.1213 39.1713 30.3587 38.0351 30.0839C34.3501 29.1703 33.4224 25.9936 32.5408 21.097C32.4431 20.557 32.3529 19.9005 32.2569 19.2055C32.0203 16.907 31.7746 14.6716 31.029 12.4277C31.7695 11.6544 33.3218 11.0424 34.6447 11.0071Z" fill="#3F288F"/>
<path d="M23.7778 4.5H22.7407V8.5H23.7778V4.5Z" fill="#69BBC4"/>
<path d="M23.7778 11.5H22.7407V15.5H23.7778V11.5Z" fill="#69BBC4"/>
<path d="M23.7778 18.5H22.7407V22.5H23.7778V18.5Z" fill="#69BBC4"/>
<path d="M23.7778 25.5H22.7407V29.5H23.7778V25.5Z" fill="#69BBC4"/>
<path d="M23.7778 32.5H22.7407V36.5H23.7778V32.5Z" fill="#69BBC4"/>
<path d="M35.1852 4.5H34.1482V8.5H35.1852V4.5Z" fill="#F2BE42"/>
<path d="M35.1852 11.5H34.1482V15.5H35.1852V11.5Z" fill="#F2BE42"/>
<path d="M35.1852 18.5H34.1482V22.5H35.1852V18.5Z" fill="#F2BE42"/>
<path d="M35.1852 25.5H34.1482V29.5H35.1852V25.5Z" fill="#F2BE42"/>
<path d="M35.1852 32.5H34.1482V36.5H35.1852V32.5Z" fill="#F2BE42"/>
</g>
<defs>
<clipPath id="clip0_3006_650">
<rect width="56" height="40" fill="white" transform="translate(2 2.5)"/>
</clipPath>
</defs>
</svg>

