<svg width="24" height="24" viewBox="0 0 24 24" fill="none" xmlns="http://www.w3.org/2000/svg">
<mask id="mask0_1553_2315" style="mask-type:alpha" maskUnits="userSpaceOnUse" x="0" y="0" width="24" height="24">
<rect width="24" height="24" fill="#D9D9D9"/>
</mask>
<g mask="url(#mask0_1553_2315)">
<path d="M5 21C4.45 21 3.97917 20.8042 3.5875 20.4125C3.19583 20.0208 3 19.55 3 19V3H5V19H21V21H5Z" fill="#171717"/>
<path d="M6 9.5V18.5H10V9.5H6Z" fill="#171717"/>
<path d="M11 4.5V18.5H15V4.5H11Z" fill="#171717"/>
<path d="M16 13.5V18.5H20V13.5H16Z" fill="#171717"/>
<path d="M17 12.5C17 10.9667 17.5333 9.66667 18.6 8.6C19.6667 7.53333 20.9667 7 22.5 7C20.9667 7 19.6667 6.46667 18.6 5.4C17.5333 4.33333 17 3.03333 17 1.5C17 3.03333 16.4667 4.33333 15.4 5.4C14.3333 6.46667 13.0333 7 11.5 7C13.0333 7 14.3333 7.53333 15.4 8.6C16.4667 9.66667 17 10.9667 17 12.5Z" fill="white"/>
<path d="M18.4 12.5C18.4 10.9667 18.9333 9.66667 20 8.6C21.0667 7.53334 22.3667 7 23.9 7C22.3667 7 21.0667 6.46667 20 5.4C18.9333 4.33333 18.4 3.03333 18.4 1.5C18.4 3.03333 17.8667 4.33333 16.8 5.4C15.7333 6.46667 14.4333 7 12.9 7C14.4333 7 15.7333 7.53334 16.8 8.6C17.8667 9.66667 18.4 10.9667 18.4 12.5Z" fill="#171717"/>
</g>
</svg>

