<svg width="24" height="24" viewBox="0 0 24 24" fill="none" xmlns="http://www.w3.org/2000/svg">
<mask id="mask0_1396_37" style="mask-type:alpha" maskUnits="userSpaceOnUse" x="0" y="0" width="24" height="24">
<rect width="24" height="24" fill="#D9D9D9"/>
</mask>
<g mask="url(#mask0_1396_37)">
<path d="M5 21C4.45 21 3.97917 20.8042 3.5875 20.4125C3.19583 20.0208 3 19.55 3 19V3H5V19H21V21H5Z" fill="#171717"/>
<path d="M18.2032 4.13118L6.25964 16.0747L7.16839 16.9835L19.1119 5.03993L18.2032 4.13118ZM11.842 4.8452C11.7554 4.8452 11.6797 4.87766 11.6148 4.94257C11.5499 5.00748 11.5174 5.08321 11.5174 5.16975C11.5174 5.2563 11.5499 5.33203 11.6148 5.39694C11.6797 5.46185 11.7554 5.49431 11.842 5.49431C11.9285 5.49431 12.0042 5.46185 12.0691 5.39694C12.1341 5.33203 12.1665 5.2563 12.1665 5.16975C12.1665 5.08321 12.1341 5.00748 12.0691 4.94257C12.0042 4.87766 11.9285 4.8452 11.842 4.8452ZM14.4384 4.8452C14.3518 4.8452 14.2761 4.87766 14.2112 4.94257C14.1463 5.00748 14.1138 5.08321 14.1138 5.16975C14.1138 5.2563 14.1463 5.33203 14.2112 5.39694C14.2761 5.46185 14.3518 5.49431 14.4384 5.49431C14.5249 5.49431 14.6007 5.46185 14.6656 5.39694C14.7305 5.33203 14.7629 5.2563 14.7629 5.16975C14.7629 5.08321 14.7305 5.00748 14.6656 4.94257C14.6007 4.87766 14.5249 4.8452 14.4384 4.8452ZM9.24553 6.46797C9.06161 6.46797 8.90745 6.53017 8.78304 6.65459C8.65863 6.779 8.59642 6.93316 8.59642 7.11707C8.59642 7.30099 8.65863 7.45515 8.78304 7.57956C8.90745 7.70397 9.06161 7.76618 9.24553 7.76618C9.42944 7.76618 9.5836 7.70397 9.70802 7.57956C9.83243 7.45515 9.89463 7.30099 9.89463 7.11707C9.89463 6.93316 9.83243 6.779 9.70802 6.65459C9.5836 6.53017 9.42944 6.46797 9.24553 6.46797ZM11.842 6.46797C11.658 6.46797 11.5039 6.53017 11.3795 6.65459C11.2551 6.779 11.1928 6.93316 11.1928 7.11707C11.1928 7.30099 11.2551 7.45515 11.3795 7.57956C11.5039 7.70397 11.658 7.76618 11.842 7.76618C12.0259 7.76618 12.18 7.70397 12.3044 7.57956C12.4289 7.45515 12.4911 7.30099 12.4911 7.11707C12.4911 6.93316 12.4289 6.779 12.3044 6.65459C12.18 6.53017 12.0259 6.46797 11.842 6.46797ZM14.4384 6.46797C14.2545 6.46797 14.1003 6.53017 13.9759 6.65459C13.8515 6.779 13.7893 6.93316 13.7893 7.11707C13.7893 7.30099 13.8515 7.45515 13.9759 7.57956C14.1003 7.70397 14.2545 7.76618 14.4384 7.76618C14.6223 7.76618 14.7765 7.70397 14.9009 7.57956C15.0253 7.45515 15.0875 7.30099 15.0875 7.11707C15.0875 6.93316 15.0253 6.779 14.9009 6.65459C14.7765 6.53017 14.6223 6.46797 14.4384 6.46797ZM11.842 8.73984C11.5607 8.73984 11.3281 8.8318 11.1442 9.01571C10.9602 9.19962 10.8683 9.43222 10.8683 9.7135C10.8683 9.99478 10.9602 10.2274 11.1442 10.4113C11.3281 10.5952 11.5607 10.6872 11.842 10.6872C12.1232 10.6872 12.3558 10.5952 12.5397 10.4113C12.7237 10.2274 12.8156 9.99478 12.8156 9.7135C12.8156 9.43222 12.7237 9.19962 12.5397 9.01571C12.3558 8.8318 12.1232 8.73984 11.842 8.73984ZM9.24553 9.06439C9.06161 9.06439 8.90745 9.1266 8.78304 9.25101C8.65863 9.37542 8.59642 9.52959 8.59642 9.7135C8.59642 9.89741 8.65863 10.0516 8.78304 10.176C8.90745 10.3004 9.06161 10.3626 9.24553 10.3626C9.42944 10.3626 9.5836 10.3004 9.70802 10.176C9.83243 10.0516 9.89463 9.89741 9.89463 9.7135C9.89463 9.52959 9.83243 9.37542 9.70802 9.25101C9.5836 9.1266 9.42944 9.06439 9.24553 9.06439ZM16.905 9.08062L16.4019 9.58368C16.3587 9.80005 16.4046 9.98396 16.5399 10.1354C16.6751 10.2869 16.8401 10.3626 17.0348 10.3626C17.2187 10.3626 17.3729 10.3004 17.4973 10.176C17.6217 10.0516 17.6839 9.89741 17.6839 9.7135C17.6839 9.51877 17.6082 9.35379 17.4567 9.21856C17.3053 9.08332 17.1214 9.03735 16.905 9.08062ZM7.29821 9.38895C7.21166 9.38895 7.13593 9.4214 7.07102 9.48631C7.00611 9.55122 6.97365 9.62695 6.97365 9.7135C6.97365 9.80005 7.00611 9.87578 7.07102 9.94069C7.13593 10.0056 7.21166 10.0381 7.29821 10.0381C7.38476 10.0381 7.46048 10.0056 7.5254 9.94069C7.59031 9.87578 7.62276 9.80005 7.62276 9.7135C7.62276 9.62695 7.59031 9.55122 7.5254 9.48631C7.46048 9.4214 7.38476 9.38895 7.29821 9.38895ZM18.9821 9.38895C18.8956 9.38895 18.8198 9.4214 18.7549 9.48631C18.69 9.55122 18.6576 9.62695 18.6576 9.7135C18.6576 9.80005 18.69 9.87578 18.7549 9.94069C18.8198 10.0056 18.8956 10.0381 18.9821 10.0381C19.0687 10.0381 19.1444 10.0056 19.2093 9.94069C19.2742 9.87578 19.3067 9.80005 19.3067 9.7135C19.3067 9.62695 19.2742 9.55122 19.2093 9.48631C19.1444 9.4214 19.0687 9.38895 18.9821 9.38895ZM14.6331 11.3687L13.4972 12.5047C13.5513 12.7318 13.6595 12.9185 13.8217 13.0645C13.984 13.2106 14.1896 13.2836 14.4384 13.2836C14.7197 13.2836 14.9523 13.1916 15.1362 13.0077C15.3201 12.8238 15.412 12.5912 15.412 12.3099C15.412 12.0611 15.3363 11.8528 15.1849 11.6852C15.0334 11.5175 14.8495 11.412 14.6331 11.3687ZM9.24553 11.6608C9.06161 11.6608 8.90745 11.723 8.78304 11.8474C8.65863 11.9718 8.59642 12.126 8.59642 12.3099C8.59642 12.4938 8.65863 12.648 8.78304 12.7724C8.90745 12.8968 9.06161 12.959 9.24553 12.959C9.42944 12.959 9.5836 12.8968 9.70802 12.7724C9.83243 12.648 9.89463 12.4938 9.89463 12.3099C9.89463 12.126 9.83243 11.9718 9.70802 11.8474C9.5836 11.723 9.42944 11.6608 9.24553 11.6608ZM17.0348 11.6608C16.8509 11.6608 16.6967 11.723 16.5723 11.8474C16.4479 11.9718 16.3857 12.126 16.3857 12.3099C16.3857 12.4938 16.4479 12.648 16.5723 12.7724C16.6967 12.8968 16.8509 12.959 17.0348 12.959C17.2187 12.959 17.3729 12.8968 17.4973 12.7724C17.6217 12.648 17.6839 12.4938 17.6839 12.3099C17.6839 12.126 17.6217 11.9718 17.4973 11.8474C17.3729 11.723 17.2187 11.6608 17.0348 11.6608ZM7.29821 11.9854C7.21166 11.9854 7.13593 12.0178 7.07102 12.0827C7.00611 12.1476 6.97365 12.2234 6.97365 12.3099C6.97365 12.3965 7.00611 12.4722 7.07102 12.5371C7.13593 12.602 7.21166 12.6345 7.29821 12.6345C7.38476 12.6345 7.46048 12.602 7.5254 12.5371C7.59031 12.4722 7.62276 12.3965 7.62276 12.3099C7.62276 12.2234 7.59031 12.1476 7.5254 12.0827C7.46048 12.0178 7.38476 11.9854 7.29821 11.9854ZM18.9821 11.9854C18.8956 11.9854 18.8198 12.0178 18.7549 12.0827C18.69 12.1476 18.6576 12.2234 18.6576 12.3099C18.6576 12.3965 18.69 12.4722 18.7549 12.5371C18.8198 12.602 18.8956 12.6345 18.9821 12.6345C19.0687 12.6345 19.1444 12.602 19.2093 12.5371C19.2742 12.4722 19.3067 12.3965 19.3067 12.3099C19.3067 12.2234 19.2742 12.1476 19.2093 12.0827C19.1444 12.0178 19.0687 11.9854 18.9821 11.9854ZM14.4384 14.2572C14.2545 14.2572 14.1003 14.3195 13.9759 14.4439C13.8515 14.5683 13.7893 14.7224 13.7893 14.9064C13.7893 15.0903 13.8515 15.2444 13.9759 15.3688C14.1003 15.4932 14.2545 15.5555 14.4384 15.5555C14.6223 15.5555 14.7765 15.4932 14.9009 15.3688C15.0253 15.2444 15.0875 15.0903 15.0875 14.9064C15.0875 14.7224 15.0253 14.5683 14.9009 14.4439C14.7765 14.3195 14.6223 14.2572 14.4384 14.2572ZM11.7284 14.2735L11.2091 14.7928C11.1766 15.0091 11.2253 15.1903 11.3551 15.3364C11.4849 15.4824 11.6472 15.5555 11.842 15.5555C12.0259 15.5555 12.18 15.4932 12.3044 15.3688C12.4289 15.2444 12.4911 15.0903 12.4911 14.9064C12.4911 14.7116 12.418 14.5493 12.272 14.4195C12.1259 14.2897 11.9447 14.241 11.7284 14.2735ZM17.0348 14.2572C16.8509 14.2572 16.6967 14.3195 16.5723 14.4439C16.4479 14.5683 16.3857 14.7224 16.3857 14.9064C16.3857 15.0903 16.4479 15.2444 16.5723 15.3688C16.6967 15.4932 16.8509 15.5555 17.0348 15.5555C17.2187 15.5555 17.3729 15.4932 17.4973 15.3688C17.6217 15.2444 17.6839 15.0903 17.6839 14.9064C17.6839 14.7224 17.6217 14.5683 17.4973 14.4439C17.3729 14.3195 17.2187 14.2572 17.0348 14.2572ZM11.842 16.5291C11.7554 16.5291 11.6797 16.5616 11.6148 16.6265C11.5499 16.6914 11.5174 16.7671 11.5174 16.8537C11.5174 16.9402 11.5499 17.0159 11.6148 17.0809C11.6797 17.1458 11.7554 17.1782 11.842 17.1782C11.9285 17.1782 12.0042 17.1458 12.0691 17.0809C12.1341 17.0159 12.1665 16.9402 12.1665 16.8537C12.1665 16.7671 12.1341 16.6914 12.0691 16.6265C12.0042 16.5616 11.9285 16.5291 11.842 16.5291ZM14.4384 16.5291C14.3518 16.5291 14.2761 16.5616 14.2112 16.6265C14.1463 16.6914 14.1138 16.7671 14.1138 16.8537C14.1138 16.9402 14.1463 17.0159 14.2112 17.0809C14.2761 17.1458 14.3518 17.1782 14.4384 17.1782C14.5249 17.1782 14.6007 17.1458 14.6656 17.0809C14.7305 17.0159 14.7629 16.9402 14.7629 16.8537C14.7629 16.7671 14.7305 16.6914 14.6656 16.6265C14.6007 16.5616 14.5249 16.5291 14.4384 16.5291Z" fill="#171717"/>
</g>
</svg>

