<svg width="24" height="24" viewBox="0 0 24 24" fill="none" xmlns="http://www.w3.org/2000/svg">
<mask id="mask0_1396_36" style="mask-type:alpha" maskUnits="userSpaceOnUse" x="0" y="0" width="24" height="24">
<rect width="24" height="24" fill="#D9D9D9"/>
</mask>
<g mask="url(#mask0_1396_36)">
<path d="M5 21C4.45 21 3.97917 20.8042 3.5875 20.4125C3.19583 20.0208 3 19.55 3 19V3H5V19H21V21H5ZM6.5 18V9H8V18H6.5ZM12 18V4H13.5V18H12Z" fill="#171717"/>
<path d="M8.5 6V18H10V12V6H8.5Z" fill="#171717"/>
<path d="M14 6V18H15.5V6H14Z" fill="#171717"/>
<path d="M19 15V18H20.5V16.5V15H19Z" fill="#171717"/>
<path d="M17 14V18H18.5V14H17Z" fill="#171717"/>
</g>
</svg>

