<svg width="24" height="24" viewBox="0 0 24 24" fill="none" xmlns="http://www.w3.org/2000/svg">
<mask id="mask0_1265_5415" style="mask-type:alpha" maskUnits="userSpaceOnUse" x="0" y="0" width="24" height="24">
<path d="M24 0H0V24H24V0Z" fill="#D9D9D9"/>
</mask>
<g mask="url(#mask0_1265_5415)">
<path d="M7.39997 21.6539L6.34615 20.6L12.9 14.0308L16.4 17.5308L21.5749 12.3558L22.6441 13.4249L16.4 19.6539L12.9 16.1539L7.39997 21.6539ZM4.30771 20.5C3.80257 20.5 3.375 20.3249 3.025 19.9749C2.675 19.6249 2.5 19.1973 2.5 18.6923V5.30771C2.5 4.80257 2.675 4.375 3.025 4.025C3.375 3.675 3.80257 3.5 4.30771 3.5H17.6923C18.1973 3.5 18.6249 3.675 18.9749 4.025C19.3249 4.375 19.5 4.80257 19.5 5.30771V9.50771H3.99997V18.6923C3.99997 18.7692 4.03203 18.8397 4.09612 18.9039C4.16024 18.9679 4.23077 19 4.30771 19V20.5ZM3.99997 8.00772H18V5.30771C18 5.23077 17.9679 5.16024 17.9039 5.09612C17.8397 5.03203 17.7692 4.99997 17.6923 4.99997H4.30771C4.23077 4.99997 4.16024 5.03203 4.09612 5.09612C4.03203 5.16024 3.99997 5.23077 3.99997 5.30771V8.00772Z" fill="#1C1B1F"/>
</g>
</svg>

