<svg width="104" height="104" viewBox="0 0 104 104" fill="none" xmlns="http://www.w3.org/2000/svg">
<rect x="15" y="45" width="37" height="10" rx="3" fill="#28619E" stroke="#28619E" stroke-width="4"/>
<rect x="15" y="81" width="37" height="10" rx="3" fill="#28619E" stroke="#28619E" stroke-width="4"/>
<rect x="15" y="63" width="37" height="10" rx="3" fill="#64C9E2" stroke="#64C9E2" stroke-width="4"/>
<rect x="2" y="2" width="100" height="100" rx="4" stroke="#666666" stroke-width="4"/>
<rect x="61" y="11" width="29" height="22" rx="3" fill="#666666" stroke="#666666" stroke-width="4"/>
<path d="M53.4129 11.005H14.9029C14.66 10.9867 14.4159 11.0188 14.1859 11.0992C13.9559 11.1796 13.745 11.3066 13.5663 11.4723C13.3877 11.638 13.2452 11.8387 13.1478 12.062C13.0503 12.2853 13 12.5264 13 12.77C13 13.0136 13.0503 13.2547 13.1478 13.478C13.2452 13.7013 13.3877 13.902 13.5663 14.0677C13.745 14.2334 13.9559 14.3604 14.1859 14.4408C14.4159 14.5212 14.66 14.5533 14.9029 14.535H53.4129C53.8581 14.5015 54.2742 14.301 54.5777 13.9737C54.8813 13.6464 55.05 13.2164 55.05 12.77C55.05 12.3236 54.8813 11.8937 54.5777 11.5663C54.2742 11.239 53.8581 11.0385 53.4129 11.005Z" fill="#666666"/>
<path d="M45.7244 18.005H14.5409C14.3442 17.9867 14.1465 18.0188 13.9603 18.0992C13.774 18.1796 13.6032 18.3066 13.4586 18.4723C13.3139 18.638 13.1986 18.8387 13.1196 19.062C13.0407 19.2853 13 19.5264 13 19.77C13 20.0136 13.0407 20.2547 13.1196 20.478C13.1986 20.7013 13.3139 20.902 13.4586 21.0677C13.6032 21.2334 13.774 21.3604 13.9603 21.4408C14.1465 21.5212 14.3442 21.5533 14.5409 21.535H45.7244C46.0849 21.5015 46.4218 21.301 46.6676 20.9737C46.9134 20.6464 47.05 20.2164 47.05 19.77C47.05 19.3236 46.9134 18.8937 46.6676 18.5663C46.4218 18.239 46.0849 18.0385 45.7244 18.005Z" fill="#666666"/>
<path d="M38.0358 24.545H14.1789C14.0284 24.5267 13.8771 24.5588 13.7347 24.6392C13.5922 24.7196 13.4615 24.8466 13.3508 25.0123C13.2402 25.178 13.1519 25.3788 13.0915 25.6021C13.0312 25.8254 13 26.0664 13 26.31C13 26.5537 13.0312 26.7947 13.0915 27.018C13.1519 27.2413 13.2402 27.4421 13.3508 27.6078C13.4615 27.7735 13.5922 27.9005 13.7347 27.9809C13.8771 28.0613 14.0284 28.0933 14.1789 28.075H38.0358C38.3116 28.0415 38.5694 27.841 38.7574 27.5137C38.9455 27.1864 39.05 26.7565 39.05 26.31C39.05 25.8636 38.9455 25.4337 38.7574 25.1064C38.5694 24.7791 38.3116 24.5786 38.0358 24.545Z" fill="#666666"/>
<path d="M47.6465 31.0851H14.6314C14.4231 31.0668 14.2139 31.0988 14.0167 31.1792C13.8195 31.2596 13.6387 31.3867 13.4855 31.5523C13.3324 31.718 13.2102 31.9188 13.1267 32.1421C13.0431 32.3654 13 32.6064 13 32.8501C13 33.0937 13.0431 33.3347 13.1267 33.558C13.2102 33.7813 13.3324 33.9821 13.4855 34.1478C13.6387 34.3135 13.8195 34.4405 14.0167 34.5209C14.2139 34.6013 14.4231 34.6334 14.6314 34.6151H47.6465C48.0282 34.5815 48.3849 34.381 48.6451 34.0537C48.9054 33.7264 49.05 33.2965 49.05 32.8501C49.05 32.4037 48.9054 31.9737 48.6451 31.6464C48.3849 31.3191 48.0282 31.1186 47.6465 31.0851Z" fill="#666666"/>
<path d="M80.1916 44.005H59.9979C59.8705 43.9867 59.7425 44.0188 59.6218 44.0992C59.5012 44.1796 59.3906 44.3066 59.297 44.4723C59.2033 44.638 59.1286 44.8387 59.0775 45.062C59.0264 45.2853 59 45.5264 59 45.77C59 46.0136 59.0264 46.2547 59.0775 46.478C59.1286 46.7013 59.2033 46.902 59.297 47.0677C59.3906 47.2334 59.5012 47.3604 59.6218 47.4408C59.7425 47.5212 59.8705 47.5533 59.9979 47.535H80.1916C80.425 47.5015 80.6432 47.301 80.8024 46.9737C80.9615 46.6464 81.05 46.2164 81.05 45.77C81.05 45.3236 80.9615 44.8937 80.8024 44.5663C80.6432 44.239 80.425 44.0385 80.1916 44.005Z" fill="#666666"/>
<path d="M85.958 51.005H60.2694C60.1073 50.9867 59.9445 51.0188 59.7911 51.0992C59.6376 51.1796 59.4969 51.3066 59.3778 51.4723C59.2586 51.638 59.1636 51.8387 59.0986 52.062C59.0336 52.2853 59 52.5264 59 52.77C59 53.0136 59.0336 53.2547 59.0986 53.478C59.1636 53.7013 59.2586 53.902 59.3778 54.0677C59.4969 54.2334 59.6376 54.3604 59.7911 54.4408C59.9445 54.5212 60.1073 54.5533 60.2694 54.535H85.958C86.2549 54.5015 86.5325 54.301 86.735 53.9737C86.9375 53.6464 87.05 53.2164 87.05 52.77C87.05 52.3236 86.9375 51.8937 86.735 51.5663C86.5325 51.239 86.2549 51.0385 85.958 51.005Z" fill="#666666"/>
</svg>
