<svg width="65" height="87" viewBox="0 0 65 87" fill="none" xmlns="http://www.w3.org/2000/svg">
<path d="M63.99 21.6604C63.9567 21.515 63.9063 21.3741 63.84 21.2404L63.78 21.1304C63.7047 20.9945 63.6104 20.8699 63.5 20.7604L43.97 1.21044C43.8517 1.10178 43.7208 1.00777 43.58 0.930438H43.48C43.3445 0.858142 43.1998 0.80433 43.05 0.770439C42.9369 0.760114 42.8231 0.760114 42.71 0.770439H6.13C4.50503 0.773083 2.94738 1.41977 1.79836 2.5688C0.649332 3.71782 0.00264437 5.27547 0 6.90044V80.5504C0.00264437 82.1754 0.649332 83.7331 1.79836 84.8821C2.94738 86.0311 4.50503 86.6778 6.13 86.6804H57.89C59.515 86.6778 61.0726 86.0311 62.2216 84.8821C63.3707 83.7331 64.0174 82.1754 64.02 80.5504V22.0004C64.0206 21.8864 64.0105 21.7726 63.99 21.6604ZM57.99 20.2204H47.38C46.6135 20.2204 45.8784 19.916 45.3365 19.374C44.7945 18.832 44.49 18.0969 44.49 17.3304V6.73044L57.99 20.2204ZM57.9 83.1504H6.13C5.44996 83.1348 4.8029 82.8543 4.3266 82.3687C3.85031 81.883 3.58243 81.2307 3.58 80.5504V6.82044C3.58263 6.13434 3.85635 5.47709 4.3415 4.99194C4.82665 4.50679 5.4839 4.23307 6.17 4.23044H40.95V17.3304C40.95 19.0358 41.6274 20.6713 42.8333 21.8771C44.0392 23.083 45.6747 23.7604 47.38 23.7604H60.48V80.5504C60.48 81.2383 60.2075 81.8981 59.722 82.3854C59.2366 82.8727 58.5778 83.1478 57.89 83.1504H57.9Z" fill="#666666"/>
<path d="M50.9403 48.3702H12.4303C12.1873 48.3519 11.9432 48.384 11.7132 48.4644C11.4832 48.5448 11.2723 48.6718 11.0937 48.8375C10.9151 49.0032 10.7725 49.204 10.6751 49.4273C10.5776 49.6506 10.5273 49.8916 10.5273 50.1352C10.5273 50.3789 10.5776 50.6199 10.6751 50.8432C10.7725 51.0665 10.9151 51.2673 11.0937 51.433C11.2723 51.5987 11.4832 51.7257 11.7132 51.8061C11.9432 51.8865 12.1873 51.9185 12.4303 51.9002H50.9403C51.3855 51.8667 51.8015 51.6662 52.1051 51.3389C52.4087 51.0116 52.5773 50.5817 52.5773 50.1352C52.5773 49.6888 52.4087 49.2589 52.1051 48.9316C51.8015 48.6043 51.3855 48.4038 50.9403 48.3702Z" fill="#28619E"/>
<path d="M50.9402 59.7197H12.4302C11.9607 59.7197 11.5105 59.9062 11.1786 60.2381C10.8466 60.5701 10.6602 61.0203 10.6602 61.4897C10.6602 61.9592 10.8466 62.4094 11.1786 62.7413C11.5105 63.0732 11.9607 63.2597 12.4302 63.2597H50.9402C51.4096 63.2597 51.8598 63.0732 52.1917 62.7413C52.5237 62.4094 52.7102 61.9592 52.7102 61.4897C52.7102 61.0203 52.5237 60.5701 52.1917 60.2381C51.8598 59.9062 51.4096 59.7197 50.9402 59.7197Z" fill="#64C9E2"/>
</svg>
