<svg width="50" height="60" viewBox="0 0 50 60" fill="none" xmlns="http://www.w3.org/2000/svg">
<path d="M44.4129 0.00500021H5.90295C5.65999 -0.0133001 5.41588 0.0187545 5.18589 0.0991584C4.95589 0.179562 4.74498 0.306586 4.56634 0.47227C4.38771 0.637955 4.2452 0.838734 4.14775 1.06204C4.0503 1.28534 4 1.52636 4 1.77C4 2.01364 4.0503 2.25466 4.14775 2.47797C4.2452 2.70127 4.38771 2.90205 4.56634 3.06773C4.74498 3.23342 4.95589 3.36044 5.18589 3.44084C5.41588 3.52124 5.65999 3.5533 5.90295 3.535H44.4129C44.8581 3.50147 45.2742 3.30097 45.5777 2.97366C45.8813 2.64635 46.05 2.21642 46.05 1.77C46.05 1.32358 45.8813 0.893651 45.5777 0.566344C45.2742 0.239038 44.8581 0.0385314 44.4129 0.00500021Z" fill="#28619E"/>
<path d="M14.8735 34.7722H1.58228C0.632913 34.7722 0 34.1393 0 33.1899V19.5823C0 18.6329 0.632913 18 1.58228 18H14.8735C15.8228 18 16.4557 18.6329 16.4557 19.5823V33.1899C16.4557 34.1393 15.8228 34.7722 14.8735 34.7722ZM3.16457 31.6076H13.2912V21.1646H3.16457V31.6076Z" fill="#28619E"/>
<path d="M14.8735 59.6125H1.58228C0.632913 59.6125 0 58.9796 0 58.0302V44.4226C0 43.4732 0.632913 42.8403 1.58228 42.8403H14.8735C15.8228 42.8403 16.4557 43.4732 16.4557 44.4226V58.0302C16.4557 58.9796 15.8228 59.6125 14.8735 59.6125ZM3.16457 56.448H13.2912V46.0049H3.16457V56.448Z" fill="#28619E"/>
<path d="M7.59546 54.3943C7.12078 54.3943 6.80432 54.2361 6.48787 53.9196C5.85496 53.2867 5.85496 52.3373 6.48787 51.7044L9.4942 48.6981C10.1271 48.0652 11.0765 48.0652 11.7094 48.6981C12.3423 49.331 12.3423 50.2804 11.7094 50.9133L8.70306 53.9196C8.38661 54.2361 7.91192 54.3943 7.59546 54.3943Z" fill="#28619E"/>
<path d="M7.59474 54.3941C7.12005 54.3941 6.8036 54.2358 6.48714 53.9194L4.90486 52.3371C4.27195 51.7042 4.27195 50.7548 4.90486 50.1219C5.53777 49.489 6.48714 49.489 7.12006 50.1219L8.70234 51.7042C9.33525 52.3371 9.33525 53.2865 8.70234 53.9194C8.38588 54.2358 7.9112 54.3941 7.59474 54.3941Z" fill="#28619E"/>
<path d="M43.9871 30.66H22.1516C21.2022 30.66 20.5693 30.0271 20.5693 29.0778C20.5693 28.1284 21.2022 27.4955 22.1516 27.4955H43.9871C44.9365 27.4955 45.5694 28.1284 45.5694 29.0778C45.5694 30.0271 44.9365 30.66 43.9871 30.66Z" fill="#28619E"/>
<path d="M48.4175 49.0153H22.1516C21.2022 49.0153 20.5693 48.3824 20.5693 47.433C20.5693 46.4836 21.2022 45.8507 22.1516 45.8507H48.4175C49.3669 45.8507 49.9998 46.4836 49.9998 47.433C49.9998 48.3824 49.3669 49.0153 48.4175 49.0153Z" fill="#28619E"/>
<path d="M43.9871 56.7682H22.1516C21.2022 56.7682 20.5693 56.1353 20.5693 55.1859C20.5693 54.2366 21.2022 53.6036 22.1516 53.6036H43.9871C44.9365 53.6036 45.5694 54.2366 45.5694 55.1859C45.5694 56.1353 44.9365 56.7682 43.9871 56.7682Z" fill="#28619E"/>
<path d="M48.4175 22.9053H22.1516C21.2022 22.9053 20.5693 22.2724 20.5693 21.323C20.5693 20.3736 21.2022 19.7407 22.1516 19.7407H48.4175C49.3669 19.7407 49.9998 20.3736 49.9998 21.323C49.9998 22.2724 49.3669 22.9053 48.4175 22.9053Z" fill="#28619E"/>
<path d="M7.59546 29.552C7.12078 29.552 6.80432 29.3938 6.48787 29.0773C5.85496 28.4444 5.85496 27.495 6.48787 26.8621L9.4942 23.8558C10.1271 23.2229 11.0765 23.2229 11.7094 23.8558C12.3423 24.4887 12.3423 25.4381 11.7094 26.071L8.70306 29.0773C8.38661 29.3938 7.91192 29.552 7.59546 29.552Z" fill="#28619E"/>
<path d="M7.59474 29.5537C7.12005 29.5537 6.8036 29.3955 6.48714 29.079L4.90486 27.4968C4.27195 26.8639 4.27195 25.9145 4.90486 25.2816C5.53777 24.6487 6.48714 24.6487 7.12006 25.2816L8.70234 26.8639C9.33525 27.4968 9.33525 28.4461 8.70234 29.079C8.38588 29.3955 7.9112 29.5537 7.59474 29.5537Z" fill="#28619E"/>
</svg>
