<svg width="44" height="69" viewBox="0 0 44 69" fill="none" xmlns="http://www.w3.org/2000/svg">
<path d="M41.4129 0.00500021H2.90295C2.65999 -0.0133001 2.41588 0.0187545 2.18589 0.0991584C1.95589 0.179562 1.74498 0.306586 1.56634 0.47227C1.38771 0.637955 1.2452 0.838734 1.14775 1.06204C1.0503 1.28534 1 1.52636 1 1.77C1 2.01364 1.0503 2.25466 1.14775 2.47797C1.2452 2.70127 1.38771 2.90205 1.56634 3.06773C1.74498 3.23342 1.95589 3.36044 2.18589 3.44084C2.41588 3.52124 2.65999 3.5533 2.90295 3.535H41.4129C41.8581 3.50147 42.2742 3.30097 42.5777 2.97366C42.8813 2.64635 43.05 2.21642 43.05 1.77C43.05 1.32358 42.8813 0.893651 42.5777 0.566344C42.2742 0.239038 41.8581 0.0385314 41.4129 0.00500021Z" fill="#64C9E2"/>
<g clip-path="url(#clip0)">
<path d="M26.9709 19.5205C27.5845 18.9069 28.5816 18.9069 29.1952 19.5205C29.8088 20.1341 29.8088 21.1184 29.1952 21.732L24.7466 26.1806C24.133 26.7941 23.1487 26.7941 22.5351 26.1806C21.9215 25.567 21.9215 24.5699 22.5351 23.9563L26.9709 19.5205ZM17.5241 29.517L42.3236 38.0562C43.1417 38.3374 43.5764 39.2323 43.2951 40.0504C43.1417 40.4978 42.7966 40.8302 42.3875 40.9964L31.4323 45.4449L26.9965 56.4002C26.6641 57.2055 25.7565 57.6018 24.9512 57.2695C24.5037 57.0905 24.1969 56.7453 24.0563 56.3235L15.5171 31.524C15.2359 30.693 15.6833 29.7982 16.5014 29.517C16.8466 29.4019 17.2045 29.4147 17.5241 29.517ZM9.95638 36.535C10.57 35.9214 11.5671 35.9214 12.1807 36.535C12.7943 37.1486 12.7943 38.1329 12.1807 38.7465L7.7321 43.1951C7.1185 43.8087 6.13419 43.8087 5.52059 43.1951C4.90699 42.5815 4.90699 41.5844 5.52059 40.9708L9.95638 36.535ZM18.9302 22.4734C18.9302 23.3299 18.2272 24.033 17.3579 24.033C16.4886 24.033 15.7856 23.3299 15.7856 22.4734V16.184C15.7856 15.3148 16.4886 14.6117 17.3579 14.6117C18.2272 14.6117 18.9302 15.3148 18.9302 16.184V22.4734ZM8.46074 29.7854C9.33 29.7854 10.0331 30.4885 10.0331 31.3578C10.0331 32.227 9.33 32.9301 8.46074 32.9301H2.18416C1.3149 32.9301 0.611816 32.227 0.611816 31.3578C0.611816 30.4885 1.3149 29.7854 2.18416 29.7854H8.46074ZM12.1807 23.9563C12.7943 24.5699 12.7943 25.567 12.1807 26.1806C11.5671 26.7941 10.57 26.7941 9.95638 26.1806L5.52059 21.732C4.90699 21.1184 4.90699 20.1341 5.52059 19.5205C6.13419 18.9069 7.1185 18.9069 7.7321 19.5205L12.1807 23.9563Z" fill="#64C9E2"/>
</g>
<defs>
<clipPath id="clip0">
<rect width="44" height="55" fill="white" transform="translate(0 14)"/>
</clipPath>
</defs>
</svg>
