<svg width="24" height="24" viewBox="0 0 24 24" fill="none" xmlns="http://www.w3.org/2000/svg">
<path d="M16.9733 0H7.02667L0 7.02667V16.9733L7.02667 24H16.9733L24 16.9733V7.02667L16.9733 0ZM21.3333 15.8667L15.8667 21.3333H8.13334L2.66667 15.8667V8.13334L8.13334 2.66667H15.8667L21.3333 8.13334V15.8667Z" fill="#B9261A"/>
<path d="M12 18.6667C12.7364 18.6667 13.3333 18.0697 13.3333 17.3333C13.3333 16.597 12.7364 16 12 16C11.2636 16 10.6667 16.597 10.6667 17.3333C10.6667 18.0697 11.2636 18.6667 12 18.6667Z" fill="#B9261A"/>
<path d="M10.6667 5.33333H13.3333V14.6667H10.6667V5.33333Z" fill="#B9261A"/>
</svg>
