<svg width="25" height="25" viewBox="0 0 25 25" fill="none" xmlns="http://www.w3.org/2000/svg">
<path d="M18.75 10.4166L17.2812 8.93748L10.4167 15.8021L7.71875 13.1146L6.25 14.5833L10.4167 18.75L18.75 10.4166ZM19.7917 4.16665H15.4375C15 2.95831 13.8542 2.08331 12.5 2.08331C11.1458 2.08331 10 2.95831 9.5625 4.16665H5.20833C5.0625 4.16665 4.92708 4.17706 4.79167 4.20831C4.38542 4.29165 4.02083 4.49998 3.73958 4.78123C3.55208 4.96873 3.39583 5.1979 3.29167 5.4479C3.1875 5.68748 3.125 5.95831 3.125 6.24998V20.8333C3.125 21.1146 3.1875 21.3958 3.29167 21.6458C3.39583 21.8958 3.55208 22.1146 3.73958 22.3125C4.02083 22.5937 4.38542 22.8021 4.79167 22.8854C4.92708 22.9062 5.0625 22.9166 5.20833 22.9166H19.7917C20.9375 22.9166 21.875 21.9791 21.875 20.8333V6.24998C21.875 5.10415 20.9375 4.16665 19.7917 4.16665ZM12.5 3.90623C12.9271 3.90623 13.2812 4.2604 13.2812 4.68748C13.2812 5.11456 12.9271 5.46873 12.5 5.46873C12.0729 5.46873 11.7188 5.11456 11.7188 4.68748C11.7188 4.2604 12.0729 3.90623 12.5 3.90623ZM19.7917 20.8333H5.20833V6.24998H19.7917V20.8333Z" fill="#336F8A"/>
</svg>
