<svg width="24" height="24" viewBox="0 0 24 24" fill="none" xmlns="http://www.w3.org/2000/svg">
<path d="M4.37891 15.2L5.24493 15.7L4.37891 15.2ZM9.22865 6.80005L8.36262 6.30005L9.22865 6.80005ZM14.7715 6.80005L15.6375 6.30005L14.7715 6.80005ZM19.6212 15.2L20.4873 14.7L19.6212 15.2ZM11.1863 4.17285L11.5931 5.08639V5.08639L11.1863 4.17285ZM12.8135 4.17285L12.4067 5.08639L12.8135 4.17285ZM3.89649 19.618L3.3087 20.4271H3.3087L3.89649 19.618ZM3.08281 18.209L4.07734 18.1045L3.08281 18.209ZM20.1036 19.618L20.6914 20.4271L20.1036 19.618ZM20.9173 18.209L21.9118 18.3135L20.9173 18.209ZM12.0498 16H13.0498C13.0498 15.4477 12.6021 15 12.0498 15V16ZM12.0498 16.1L12.0496 17.1C12.3148 17.1001 12.5692 16.9947 12.7568 16.8072C12.9444 16.6196 13.0498 16.3653 13.0498 16.1H12.0498ZM11.9502 16.1H10.9502C10.9502 16.6522 11.3978 17.0998 11.9499 17.1L11.9502 16.1ZM11.9502 16V15C11.3979 15 10.9502 15.4477 10.9502 16H11.9502ZM13 9C13 8.44771 12.5523 8 12 8C11.4477 8 11 8.44771 11 9H13ZM11 13C11 13.5523 11.4477 14 12 14C12.5523 14 13 13.5523 13 13H11ZM16.8499 19H7.15039V21H16.8499V19ZM5.24493 15.7L10.0947 7.30005L8.36262 6.30005L3.51288 14.7L5.24493 15.7ZM13.9055 7.30005L18.7552 15.7L20.4873 14.7L15.6375 6.30005L13.9055 7.30005ZM10.0947 7.30005C10.5593 6.49534 10.8739 5.95235 11.1427 5.57183C11.4145 5.18704 11.548 5.10647 11.5931 5.08639L10.7796 3.2593C10.231 3.50354 9.84039 3.94897 9.50913 4.41791C9.17486 4.89111 8.80746 5.52957 8.36262 6.30005L10.0947 7.30005ZM15.6375 6.30005C15.1926 5.52949 14.8252 4.89105 14.4908 4.4178C14.1594 3.94884 13.7687 3.5035 13.2202 3.2593L12.4067 5.08639C12.4519 5.10651 12.5855 5.18717 12.8574 5.57194C13.1262 5.95242 13.4409 6.49541 13.9055 7.30005L15.6375 6.30005ZM11.5931 5.08639C11.852 4.97112 12.1478 4.97112 12.4067 5.08639L13.2202 3.2593C12.4435 2.91348 11.5563 2.91348 10.7796 3.2593L11.5931 5.08639ZM7.15039 19C6.22124 19 5.59374 18.999 5.12987 18.9564C4.66083 18.9134 4.52428 18.8381 4.48427 18.809L3.3087 20.4271C3.79443 20.78 4.37539 20.8956 4.94715 20.9481C5.52409 21.001 6.26068 21 7.15039 21V19ZM3.51288 14.7C3.06801 15.4706 2.69887 16.108 2.45625 16.6341C2.21581 17.1555 2.02554 17.7165 2.08829 18.3135L4.07734 18.1045C4.07216 18.0553 4.07522 17.8993 4.27245 17.4716C4.4675 17.0486 4.78037 16.5047 5.24493 15.7L3.51288 14.7ZM4.48427 18.809C4.25484 18.6423 4.10694 18.3861 4.07734 18.1045L2.08829 18.3135C2.17718 19.1593 2.62101 19.9274 3.3087 20.4271L4.48427 18.809ZM16.8499 21C17.7396 21 18.4761 21.001 19.0531 20.9481C19.6248 20.8956 20.2057 20.7799 20.6914 20.4271L19.5159 18.809C19.4758 18.8381 19.3393 18.9134 18.8703 18.9564C18.4065 18.999 17.779 19 16.8499 19V21ZM18.7552 15.7C19.2198 16.5047 19.5326 17.0486 19.7277 17.4716C19.9249 17.8993 19.928 18.0553 19.9228 18.1045L21.9118 18.3135C21.9746 17.7165 21.7843 17.1555 21.5439 16.6341C21.3013 16.108 20.9321 15.4706 20.4873 14.7L18.7552 15.7ZM20.6914 20.4271C21.3791 19.9274 21.8229 19.1593 21.9118 18.3135L19.9228 18.1045C19.8932 18.3861 19.7453 18.6423 19.5159 18.809L20.6914 20.4271ZM11.0498 16V16.1H13.0498V16H11.0498ZM12.0501 15.1L11.9504 15.1L11.9499 17.1L12.0496 17.1L12.0501 15.1ZM12.9502 16.1V16H10.9502V16.1H12.9502ZM11.9502 17H12.0498V15H11.9502V17ZM11 9V13H13V9H11Z" fill="#F2BE42"/>
</svg>
