<svg width="35" height="35" viewBox="0 0 35 35" fill="none" xmlns="http://www.w3.org/2000/svg">
<circle cx="17.5" cy="17.5" r="17.5" fill="#E06766"/>
<mask id="mask0_1329_363" style="mask-type:alpha" maskUnits="userSpaceOnUse" x="6" y="7" width="22" height="22">
<rect x="6" y="7" width="22" height="22" fill="#D9D9D9"/>
</mask>
<g mask="url(#mask0_1329_363)">
<path d="M12.4166 26.25C11.9125 26.25 11.4809 26.0705 11.1218 25.7115C10.7628 25.3524 10.5833 24.9208 10.5833 24.4167V12.5H9.66663V10.6667H14.25V9.75H19.75V10.6667H24.3333V12.5H23.4166V24.4167C23.4166 24.9208 23.2371 25.3524 22.8781 25.7115C22.5191 26.0705 22.0875 26.25 21.5833 26.25H12.4166ZM21.5833 12.5H12.4166V24.4167H21.5833V12.5ZM14.25 22.5833H16.0833V14.3333H14.25V22.5833ZM17.9166 22.5833H19.75V14.3333H17.9166V22.5833Z" fill="white"/>
</g>
</svg>
