<svg width="20" height="20" viewBox="0 0 20 20" fill="none" xmlns="http://www.w3.org/2000/svg">
<path d="M10 2C7.87827 2 5.84344 2.84285 4.34315 4.34315C2.84285 5.84344 2 7.87827 2 10C2 12.1217 2.84285 14.1566 4.34315 15.6569C5.84344 17.1571 7.87827 18 10 18C12.1217 18 14.1566 17.1571 15.6569 15.6569C17.1571 14.1566 18 12.1217 18 10C18 7.87827 17.1571 5.84344 15.6569 4.34315C14.1566 2.84285 12.1217 2 10 2ZM0 10C0 4.477 4.477 0 10 0C15.523 0 20 4.477 20 10C20 15.523 15.523 20 10 20C4.477 20 0 15.523 0 10Z" fill="#B3B3B3"/>
<path d="M9.99994 12C9.73472 12 9.48037 11.8946 9.29283 11.7071C9.1053 11.5196 8.99994 11.2652 8.99994 11V5C8.99994 4.73478 9.1053 4.48043 9.29283 4.29289C9.48037 4.10536 9.73472 4 9.99994 4C10.2652 4 10.5195 4.10536 10.707 4.29289C10.8946 4.48043 10.9999 4.73478 10.9999 5V11C10.9999 11.2652 10.8946 11.5196 10.707 11.7071C10.5195 11.8946 10.2652 12 9.99994 12ZM8.49994 14.5C8.49994 14.1022 8.65797 13.7206 8.93928 13.4393C9.22058 13.158 9.60211 13 9.99994 13C10.3978 13 10.7793 13.158 11.0606 13.4393C11.3419 13.7206 11.4999 14.1022 11.4999 14.5C11.4999 14.8978 11.3419 15.2794 11.0606 15.5607C10.7793 15.842 10.3978 16 9.99994 16C9.60211 16 9.22058 15.842 8.93928 15.5607C8.65797 15.2794 8.49994 14.8978 8.49994 14.5Z" fill="#B3B3B3"/>
</svg>
