<svg width="1649" height="1257" viewBox="0 0 1649 1257" fill="none" xmlns="http://www.w3.org/2000/svg">
<path d="M345.334 378.959L401.518 410.138V472.496L345.334 503.674L289.149 472.496V410.138L345.334 378.959Z" stroke="#E4EFEE" stroke-width="8"/>
<path d="M233.312 378.959L289.496 410.138V472.496L233.312 503.674L177.128 472.496V410.138L233.312 378.959Z" stroke="#E4EFEE" stroke-width="8"/>
<path d="M458.162 378.959L514.346 410.138V472.496L458.162 503.674L401.977 472.496V410.138L458.162 378.959Z" stroke="#E4EFEE" stroke-width="8"/>
<path d="M402.554 285.229L458.738 316.407V378.765L402.554 409.944L346.369 378.765V316.407L402.554 285.229Z" stroke="#E4EFEE" stroke-width="8"/>
<path d="M289.726 285.229L345.91 316.407V378.765L289.726 409.944L233.541 378.765V316.407L289.726 285.229Z" stroke="#E4EFEE" stroke-width="8"/>
<path d="M120.484 378.959L176.668 410.138V472.496L120.484 503.674L64.2994 472.496V410.138L120.484 378.959Z" stroke="#E4EFEE" stroke-width="8"/>
<path d="M795.839 378.959L852.023 410.138V472.496L795.839 503.674L739.655 472.496V410.138L795.839 378.959Z" stroke="#E4EFEE" stroke-width="8"/>
<path d="M64.876 472.689L121.06 503.868V566.226L64.876 597.405L8.69174 566.226V503.868L64.876 472.689Z" stroke="#E4EFEE" stroke-width="8"/>
<path d="M740.232 472.689L796.416 503.868V566.226L740.232 597.405L684.047 566.226V503.868L740.232 472.689Z" stroke="#E4EFEE" stroke-width="8"/>
<path d="M683.012 378.959L739.196 410.138V472.496L683.012 503.674L626.827 472.496V410.138L683.012 378.959Z" stroke="#E4EFEE" stroke-width="8"/>
<path d="M795.839 191.498L852.023 222.871V285.616L795.839 316.988L739.655 285.616V222.871L795.839 191.498Z" stroke="#E4EFEE" stroke-width="8"/>
<path d="M233.312 191.498L289.496 222.871V285.616L233.312 316.988L177.128 285.616V222.871L233.312 191.498Z" stroke="#E4EFEE" stroke-width="8"/>
<path d="M458.162 191.498L514.346 222.871V285.616L458.162 316.988L401.977 285.616V222.871L458.162 191.498Z" stroke="#E4EFEE" stroke-width="8"/>
<path d="M514.979 285.229L571.512 316.407V378.765L514.979 409.944L458.445 378.765V316.407L514.979 285.229Z" stroke="#E4EFEE" stroke-width="8"/>
<path d="M514.979 472.689L571.512 503.868V566.226L514.979 597.405L458.445 566.226V503.868L514.979 472.689Z" stroke="#E4EFEE" stroke-width="8"/>
<path d="M458.162 566.42L514.346 597.599V659.956L458.162 691.135L401.977 659.956V597.599L458.162 566.42Z" stroke="#E4EFEE" stroke-width="8"/>
<path d="M795.839 566.42L852.023 597.599V659.956L795.839 691.135L739.655 659.956V597.599L795.839 566.42Z" stroke="#E4EFEE" stroke-width="8"/>
<path d="M683.012 566.42L739.196 597.599V659.956L683.012 691.135L626.827 659.956V597.599L683.012 566.42Z" stroke="#E4EFEE" stroke-width="8"/>
<path d="M627.403 472.689L683.587 503.868V566.226L627.403 597.405L571.219 566.226V503.868L627.403 472.689Z" stroke="#E4EFEE" stroke-width="8"/>
<path d="M570.586 378.959L627.119 410.138V472.496L570.586 503.674L514.053 472.496V410.138L570.586 378.959Z" stroke="#E4EFEE" stroke-width="8"/>
<path d="M570.586 191.498L627.119 222.871V285.616L570.586 316.988L514.053 285.616V222.871L570.586 191.498Z" stroke="#E4EFEE" stroke-width="8"/>
<path d="M570.586 566.42L627.119 597.599V659.956L570.586 691.135L514.053 659.956V597.599L570.586 566.42Z" stroke="#E4EFEE" stroke-width="8"/>
<path d="M627.403 97.7676L683.587 129.14V191.885L627.403 223.258L571.219 191.885V129.14L627.403 97.7676Z" stroke="#E4EFEE" stroke-width="8"/>
<path d="M1301.8 472.451L1357.98 503.63V565.988L1301.8 597.167L1245.61 565.988V503.63L1301.8 472.451Z" stroke="#E4EFEE" stroke-width="8"/>
<path d="M1359.02 4.57422L1415.2 35.7531V98.1108L1359.02 129.29L1302.83 98.1108V35.7531L1359.02 4.57422Z" stroke="#E4EFEE" stroke-width="8"/>
<path d="M1189.77 472.451L1245.96 503.63V565.988L1189.77 597.167L1133.59 565.988V503.63L1189.77 472.451Z" stroke="#E4EFEE" stroke-width="8"/>
<path d="M1246.19 566.182L1302.37 597.36V659.718L1246.19 690.897L1190 659.718V597.36L1246.19 566.182Z" stroke="#E4EFEE" stroke-width="8"/>
<path d="M1303.41 98.3047L1359.59 129.484V191.841L1303.41 223.02L1247.22 191.841V129.484L1303.41 98.3047Z" stroke="#E4EFEE" stroke-width="8"/>
<path d="M1359.02 566.182L1415.2 597.36V659.718L1359.02 690.897L1302.83 659.718V597.36L1359.02 566.182Z" stroke="#E4EFEE" stroke-width="8"/>
<path d="M1415.43 98.3047L1471.61 129.484V191.841L1415.43 223.02L1359.25 191.841V129.484L1415.43 98.3047Z" stroke="#E4EFEE" stroke-width="8"/>
<path d="M1471.44 4.57422L1527.97 35.7531V98.1108L1471.44 129.29L1414.91 98.1108V35.7531L1471.44 4.57422Z" stroke="#E4EFEE" stroke-width="8"/>
<path d="M1359.02 378.721L1415.2 409.9V472.257L1359.02 503.436L1302.83 472.257V409.9L1359.02 378.721Z" stroke="#E4EFEE" stroke-width="8"/>
<path d="M1246.19 378.721L1302.37 409.9V472.257L1246.19 503.436L1190 472.257V409.9L1246.19 378.721Z" stroke="#E4EFEE" stroke-width="8"/>
<path d="M1134.17 378.721L1190.35 409.9V472.257L1134.17 503.436L1077.98 472.257V409.9L1134.17 378.721Z" stroke="#E4EFEE" stroke-width="8"/>
<path d="M1076.95 472.451L1133.13 503.63V565.988L1076.95 597.167L1020.76 565.988V503.63L1076.95 472.451Z" stroke="#E4EFEE" stroke-width="8"/>
<path d="M1134.17 566.182L1190.35 597.36V659.718L1134.17 690.897L1077.98 659.718V597.36L1134.17 566.182Z" stroke="#E4EFEE" stroke-width="8"/>
<path d="M1021.34 566.182L1077.52 597.36V659.718L1021.34 690.897L965.153 659.718V597.36L1021.34 566.182Z" stroke="#E4EFEE" stroke-width="8"/>
<path d="M964.924 472.451L1021.11 503.63V565.988L964.924 597.167L908.739 565.988V503.63L964.924 472.451Z" stroke="#E4EFEE" stroke-width="8"/>
<path d="M1021.34 378.721L1077.52 409.9V472.257L1021.34 503.436L965.153 472.257V409.9L1021.34 378.721Z" stroke="#E4EFEE" stroke-width="8"/>
<path d="M1076.95 284.99L1133.13 316.363V379.108L1076.95 410.48L1020.76 379.108V316.363L1076.95 284.99Z" stroke="#E4EFEE" stroke-width="8"/>
<path d="M1301.8 284.99L1357.98 316.363V379.108L1301.8 410.48L1245.61 379.108V316.363L1301.8 284.99Z" stroke="#E4EFEE" stroke-width="8"/>
<path d="M1414.62 284.99L1470.81 316.363V379.108L1414.62 410.48L1358.44 379.108V316.363L1414.62 284.99Z" stroke="#E4EFEE" stroke-width="8"/>
<path d="M1471.44 566.182L1527.97 597.36V659.718L1471.44 690.897L1414.91 659.718V597.36L1471.44 566.182Z" stroke="#E4EFEE" stroke-width="8"/>
<path d="M1359.02 191.26L1415.2 222.632V285.377L1359.02 316.75L1302.83 285.377V222.632L1359.02 191.26Z" stroke="#E4EFEE" stroke-width="8"/>
<path d="M1189.77 659.911L1245.96 691.09V753.448L1189.77 784.627L1133.59 753.448V691.09L1189.77 659.911Z" stroke="#E4EFEE" stroke-width="8"/>
<path d="M1076.95 659.911L1133.13 691.09V753.448L1076.95 784.627L1020.76 753.448V691.09L1076.95 659.911Z" stroke="#E4EFEE" stroke-width="8"/>
<path d="M1134.17 191.26L1190.35 222.632V285.377L1134.17 316.75L1077.98 285.377V222.632L1134.17 191.26Z" stroke="#E4EFEE" stroke-width="8"/>
<path d="M964.924 659.911L1021.11 691.09V753.448L964.924 784.627L908.739 753.448V691.09L964.924 659.911Z" stroke="#E4EFEE" stroke-width="8"/>
<path d="M909.316 566.182L965.5 597.36V659.718L909.316 690.897L853.132 659.718V597.36L909.316 566.182Z" stroke="#E4EFEE" stroke-width="8"/>
<path d="M1583.87 566.182L1640.05 597.36V659.718L1583.87 690.897L1527.68 659.718V597.36L1583.87 566.182Z" stroke="#E4EFEE" stroke-width="8"/>
<path d="M965.73 98.3047L1021.91 129.484V191.841L965.73 223.02L909.546 191.841V129.484L965.73 98.3047Z" stroke="#E4EFEE" stroke-width="8"/>
<path d="M852.096 472.451L908.28 503.63V565.988L852.096 597.167L795.912 565.988V503.63L852.096 472.451Z" stroke="#E4EFEE" stroke-width="8"/>
<path d="M1527.05 472.451L1583.58 503.63V565.988L1527.05 597.167L1470.52 565.988V503.63L1527.05 472.451Z" stroke="#E4EFEE" stroke-width="8"/>
<path d="M909.316 4.57422L965.5 35.7531V98.1108L909.316 129.29L853.132 98.1108V35.7531L909.316 4.57422Z" stroke="#E4EFEE" stroke-width="8"/>
<path d="M852.096 284.99L908.28 316.363V379.108L852.096 410.48L795.912 379.108V316.363L852.096 284.99Z" stroke="#E4EFEE" stroke-width="8"/>
<path d="M1527.05 284.99L1583.58 316.363V379.108L1527.05 410.48L1470.52 379.108V316.363L1527.05 284.99Z" stroke="#E4EFEE" stroke-width="8"/>
<path d="M852.096 659.911L908.28 691.09V753.448L852.096 784.627L795.912 753.448V691.09L852.096 659.911Z" stroke="#E4EFEE" stroke-width="8"/>
<path d="M909.316 191.26L965.5 222.632V285.377L909.316 316.75L853.132 285.377V222.632L909.316 191.26Z" stroke="#E4EFEE" stroke-width="8"/>
<path d="M1583.87 191.26L1640.05 222.632V285.377L1583.87 316.75L1527.68 285.377V222.632L1583.87 191.26Z" stroke="#E4EFEE" stroke-width="8"/>
<path d="M909.316 378.721L965.5 409.9V472.257L909.316 503.436L853.132 472.257V409.9L909.316 378.721Z" stroke="#E4EFEE" stroke-width="8"/>
<path d="M964.924 284.99L1021.11 316.363V379.108L964.924 410.48L908.739 379.108V316.363L964.924 284.99Z" stroke="#E4EFEE" stroke-width="8"/>
<path d="M402.554 845.999L458.738 877.178V939.536L402.554 970.714L346.369 939.536V877.178L402.554 845.999Z" stroke="#E4EFEE" stroke-width="8"/>
<path d="M289.726 845.999L345.91 877.178V939.536L289.726 970.714L233.541 939.536V877.178L289.726 845.999Z" stroke="#E4EFEE" stroke-width="8"/>
<path d="M346.945 939.729L403.13 970.907V1033.27L346.945 1064.44L290.761 1033.27V970.907L346.945 939.729Z" stroke="#E4EFEE" stroke-width="8"/>
<path d="M458.968 939.729L515.152 970.907V1033.27L458.968 1064.44L402.783 1033.27V970.907L458.968 939.729Z" stroke="#E4EFEE" stroke-width="8"/>
<path d="M514.979 845.999L571.512 877.178V939.536L514.979 970.714L458.445 939.536V877.178L514.979 845.999Z" stroke="#E4EFEE" stroke-width="8"/>
<path d="M458.968 752.27L515.152 783.448V845.806L458.968 876.985L402.783 845.806V783.448L458.968 752.27Z" stroke="#E4EFEE" stroke-width="8"/>
<path d="M796.645 939.729L852.83 970.907V1033.27L796.645 1064.44L740.461 1033.27V970.907L796.645 939.729Z" stroke="#E4EFEE" stroke-width="8"/>
<path d="M740.232 845.999L796.416 877.178V939.536L740.232 970.714L684.047 939.536V877.178L740.232 845.999Z" stroke="#E4EFEE" stroke-width="8"/>
<path d="M796.645 752.27L852.83 783.448V845.806L796.645 876.985L740.461 845.806V783.448L796.645 752.27Z" stroke="#E4EFEE" stroke-width="8"/>
<path d="M120.484 1126.42L176.668 1157.79V1220.53L120.484 1251.91L64.2994 1220.53V1157.79L120.484 1126.42Z" stroke="#E4EFEE" stroke-width="8"/>
<path d="M233.312 1126.42L289.496 1157.79V1220.53L233.312 1251.91L177.128 1220.53V1157.79L233.312 1126.42Z" stroke="#E4EFEE" stroke-width="8"/>
<path d="M289.726 658.539L345.91 689.718V752.076L289.726 783.254L233.541 752.076V689.718L289.726 658.539Z" stroke="#E4EFEE" stroke-width="8"/>
<path d="M402.554 658.539L458.738 689.718V752.076L402.554 783.254L346.369 752.076V689.718L402.554 658.539Z" stroke="#E4EFEE" stroke-width="8"/>
<path d="M458.162 1126.42L514.346 1157.79V1220.53L458.162 1251.91L401.977 1220.53V1157.79L458.162 1126.42Z" stroke="#E4EFEE" stroke-width="8"/>
<path d="M514.979 658.539L571.512 689.718V752.076L514.979 783.254L458.445 752.076V689.718L514.979 658.539Z" stroke="#E4EFEE" stroke-width="8"/>
<path d="M571.795 752.27L627.98 783.448V845.806L571.795 876.985L515.611 845.806V783.448L571.795 752.27Z" stroke="#E4EFEE" stroke-width="8"/>
<path d="M571.795 939.729L627.98 970.907V1033.27L571.795 1064.44L515.611 1033.27V970.907L571.795 939.729Z" stroke="#E4EFEE" stroke-width="8"/>
<path d="M514.979 1032.68L571.512 1064.06V1126.8L514.979 1158.17L458.445 1126.8V1064.06L514.979 1032.68Z" stroke="#E4EFEE" stroke-width="8"/>
<path d="M289.726 1032.68L345.91 1064.06V1126.8L289.726 1158.17L233.541 1126.8V1064.06L289.726 1032.68Z" stroke="#E4EFEE" stroke-width="8"/>
<path d="M740.232 1032.68L796.416 1064.06V1126.8L740.232 1158.17L684.047 1126.8V1064.06L740.232 1032.68Z" stroke="#E4EFEE" stroke-width="8"/>
<path d="M684.22 939.729L740.754 970.907V1033.27L684.22 1064.44L627.687 1033.27V970.907L684.22 939.729Z" stroke="#E4EFEE" stroke-width="8"/>
<path d="M627.403 845.999L683.587 877.178V939.536L627.403 970.714L571.219 939.536V877.178L627.403 845.999Z" stroke="#E4EFEE" stroke-width="8"/>
<path d="M627.403 658.539L683.587 689.718V752.076L627.403 783.254L571.219 752.076V689.718L627.403 658.539Z" stroke="#E4EFEE" stroke-width="8"/>
<path d="M684.22 752.27L740.754 783.448V845.806L684.22 876.985L627.687 845.806V783.448L684.22 752.27Z" stroke="#E4EFEE" stroke-width="8"/>
<path d="M740.232 658.539L796.416 689.718V752.076L740.232 783.254L684.047 752.076V689.718L740.232 658.539Z" stroke="#E4EFEE" stroke-width="8"/>
<path d="M1359.02 939.49L1415.2 970.669V1033.03L1359.02 1064.21L1302.83 1033.03V970.669L1359.02 939.49Z" stroke="#E4EFEE" stroke-width="8"/>
<path d="M1246.19 939.49L1302.37 970.669V1033.03L1246.19 1064.21L1190 1033.03V970.669L1246.19 939.49Z" stroke="#E4EFEE" stroke-width="8"/>
<path d="M1303.41 1033.22L1359.59 1064.4V1126.76L1303.41 1157.94L1247.22 1126.76V1064.4L1303.41 1033.22Z" stroke="#E4EFEE" stroke-width="8"/>
<path d="M1134.17 939.49L1190.35 970.669V1033.03L1134.17 1064.21L1077.98 1033.03V970.669L1134.17 939.49Z" stroke="#E4EFEE" stroke-width="8"/>
<path d="M1190.58 1033.22L1246.76 1064.4V1126.76L1190.58 1157.94L1134.4 1126.76V1064.4L1190.58 1033.22Z" stroke="#E4EFEE" stroke-width="8"/>
<path d="M1078.56 1033.22L1134.74 1064.4V1126.76L1078.56 1157.94L1022.37 1126.76V1064.4L1078.56 1033.22Z" stroke="#E4EFEE" stroke-width="8"/>
<path d="M1021.34 939.49L1077.52 970.669V1033.03L1021.34 1064.21L965.153 1033.03V970.669L1021.34 939.49Z" stroke="#E4EFEE" stroke-width="8"/>
<path d="M1078.56 845.761L1134.74 876.94V939.297L1078.56 970.476L1022.37 939.297V876.94L1078.56 845.761Z" stroke="#E4EFEE" stroke-width="8"/>
<path d="M909.316 752.03L965.5 783.209V845.567L909.316 876.746L853.132 845.567V783.209L909.316 752.03Z" stroke="#E4EFEE" stroke-width="8"/>
<path d="M965.73 845.761L1021.91 876.94V939.297L965.73 970.476L909.546 939.297V876.94L965.73 845.761Z" stroke="#E4EFEE" stroke-width="8"/>
<path d="M1021.34 752.03L1077.52 783.209V845.567L1021.34 876.746L965.153 845.567V783.209L1021.34 752.03Z" stroke="#E4EFEE" stroke-width="8"/>
</svg>

