<svg width="24" height="24" viewBox="0 0 24 24" fill="none" xmlns="http://www.w3.org/2000/svg">
<mask id="mask0_3898_24" style="mask-type:alpha" maskUnits="userSpaceOnUse" x="0" y="0" width="24" height="24">
<rect width="24" height="24" fill="#D9D9D9"/>
</mask>
<g mask="url(#mask0_3898_24)">
<path d="M11 11V4H22V11H11ZM2 20V13H12V20H2ZM2 11V4H9V11H2ZM13 9H20V6H13V9ZM4 18H10V15H4V18ZM4 9H7V6H4V9ZM14 22V18.925L19.525 13.425C19.675 13.275 19.8417 13.1667 20.025 13.1C20.2083 13.0333 20.3917 13 20.575 13C20.775 13 20.9667 13.0375 21.15 13.1125C21.3333 13.1875 21.5 13.3 21.65 13.45L22.575 14.375C22.725 14.525 22.8333 14.6917 22.9 14.875C22.9667 15.0583 23 15.2417 23 15.425C23 15.6083 22.9667 15.7958 22.9 15.9875C22.8333 16.1792 22.725 16.35 22.575 16.5L17.075 22H14ZM15.5 20.5H16.45L19.475 17.45L19.025 16.975L18.55 16.525L15.5 19.55V20.5ZM19.025 16.975L18.55 16.525L19.475 17.45L19.025 16.975Z" fill="#1C1B1F"/>
</g>
</svg>

