<svg width="24" height="24" viewBox="0 0 24 24" fill="none" xmlns="http://www.w3.org/2000/svg">
<mask id="mask0_4452_2034" style="mask-type:alpha" maskUnits="userSpaceOnUse" x="0" y="0" width="24" height="24">
<rect x="24" width="24" height="24" transform="rotate(90 24 0)" fill="#D9D9D9"/>
</mask>
<g mask="url(#mask0_4452_2034)">
<path d="M2 11L7 11C7.93333 11 8.625 10.8583 9.075 10.575C9.525 10.2917 9.96667 9.91667 10.4 9.45L11.825 10.875C11.6417 11.075 11.4458 11.2667 11.2375 11.45C11.0292 11.6333 10.8083 11.8167 10.575 12C10.8917 12.2333 11.1708 12.4708 11.4125 12.7125C11.6542 12.9542 11.8917 13.2 12.125 13.45C12.7083 14.0833 13.3833 14.6583 14.15 15.175C14.9167 15.6917 16.2583 15.9667 18.175 16L16.6 14.425L18 13L22 17L18 21L16.6 19.6L18.175 18C15.7917 17.9667 14.0958 17.6 13.0875 16.9C12.0792 16.2 11.2583 15.5 10.625 14.8C10.1417 14.2667 9.67083 13.8333 9.2125 13.5C8.75417 13.1667 8.01667 13 7 13L2 13V11ZM15.825 6.2C16.1583 6.13333 16.525 6.0875 16.925 6.0625C17.325 6.0375 17.7417 6.01667 18.175 6L16.6 4.4L18 3L22 7L18 11L16.6 9.575L18.15 8C17.8 8 17.4708 8.01667 17.1625 8.05C16.8542 8.08333 16.5667 8.11667 16.3 8.15L15.825 6.2ZM11.425 8.35C11.775 8.01667 12.1833 7.69583 12.65 7.3875C13.1167 7.07917 13.6917 6.80833 14.375 6.575L14.85 8.5C14.4 8.66667 14.0167 8.85833 13.7 9.075C13.3833 9.29167 13.1 9.525 12.85 9.775L11.425 8.35Z" fill="#1C1B1F"/>
</g>
</svg>

