<svg width="24" height="24" viewBox="0 0 24 24" fill="none" xmlns="http://www.w3.org/2000/svg">
<mask id="mask0_4401_348" style="mask-type:alpha" maskUnits="userSpaceOnUse" x="0" y="0" width="24" height="24">
<rect width="24" height="24" fill="#D9D9D9"/>
</mask>
<g mask="url(#mask0_4401_348)">
<path d="M14.9125 2.5875C15.6375 3.3125 16 4.2 16 5.25C16 6.11667 15.7417 6.87917 15.225 7.5375C14.7083 8.19583 14.05 8.64167 13.25 8.875L13.25 11L19.25 11L19.25 15L21.75 15L21.75 22L14.75 22L14.75 15L17.25 15L17.25 13L7.25 13L7.25 15.125C8.05 15.3583 8.70833 15.8042 9.225 16.4625C9.74167 17.1208 10 17.8833 10 18.75C10 19.8 9.6375 20.6875 8.9125 21.4125C8.1875 22.1375 7.3 22.5 6.25 22.5C5.2 22.5 4.3125 22.1375 3.5875 21.4125C2.8625 20.6875 2.5 19.8 2.5 18.75C2.5 17.8833 2.75833 17.1208 3.275 16.4625C3.79167 15.8042 4.45 15.3583 5.25 15.125L5.25 11L11.25 11L11.25 8.875C10.45 8.64167 9.79166 8.19583 9.275 7.5375C8.75833 6.87917 8.5 6.11667 8.5 5.25C8.5 4.2 8.8625 3.3125 9.5875 2.5875C10.3125 1.8625 11.2 1.5 12.25 1.5C13.3 1.5 14.1875 1.8625 14.9125 2.5875ZM5.0125 17.5125C4.67083 17.8542 4.5 18.2667 4.5 18.75C4.5 19.2333 4.67083 19.6458 5.0125 19.9875C5.35417 20.3292 5.76667 20.5 6.25 20.5C6.73333 20.5 7.14583 20.3292 7.4875 19.9875C7.82917 19.6458 8 19.2333 8 18.75C8 18.2667 7.82917 17.8542 7.4875 17.5125C7.14583 17.1708 6.73333 17 6.25 17C5.76667 17 5.35417 17.1708 5.0125 17.5125ZM19.75 17L16.75 17L16.75 20L19.75 20L19.75 17ZM11.0125 4.0125C10.6708 4.35417 10.5 4.76667 10.5 5.25C10.5 5.73333 10.6708 6.14583 11.0125 6.4875C11.3542 6.82917 11.7667 7 12.25 7C12.7333 7 13.1458 6.82917 13.4875 6.4875C13.8292 6.14583 14 5.73333 14 5.25C14 4.76667 13.8292 4.35417 13.4875 4.0125C13.1458 3.67083 12.7333 3.5 12.25 3.5C11.7667 3.5 11.3542 3.67083 11.0125 4.0125Z" fill="#1C1B1F"/>
</g>
</svg>

