<svg width="24" height="24" viewBox="0 0 24 24" fill="none" xmlns="http://www.w3.org/2000/svg">
  <path d="M10.192 4.072a2 2 0 0 1 3.616 0 2 2 0 0 0 2.519 1.043 2 2 0 0 1 2.557 2.557 2 2 0 0 0 1.044 2.52 2 2 0 0 1 0 3.616 2 2 0 0 0-1.044 2.519 2 2 0 0 1-2.557 2.557 2 2 0 0 0-2.52 1.044 2 2 0 0 1-3.616 0 2 2 0 0 0-2.519-1.044 2 2 0 0 1-2.557-2.557 2 2 0 0 0-1.044-2.52 2 2 0 0 1 0-3.616 2 2 0 0 0 1.044-2.519 2 2 0 0 1 2.557-2.557 2 2 0 0 0 2.52-1.044Z" stroke="currentColor" stroke-width="1.5"/>
  <circle cx="12" cy="12" r="3" stroke="currentColor" stroke-width="1.5"/>
</svg>
