<svg width="42" height="42" viewBox="0 0 42 42" fill="none" xmlns="http://www.w3.org/2000/svg">
<circle cx="21" cy="21" r="21" fill="#F3F5F6"/>
<g clip-path="url(#clip0_512_4653)">
<path d="M19.1918 13.0722C19.8878 11.5048 22.1122 11.5048 22.8082 13.0722V13.0722C23.2359 14.0354 24.3437 14.4943 25.3272 14.1156V14.1156C26.9277 13.4994 28.5006 15.0723 27.8844 16.6728V16.6728C27.5057 17.6563 27.9646 18.7641 28.9278 19.1918V19.1918C30.4952 19.8878 30.4952 22.1122 28.9278 22.8082V22.8082C27.9646 23.2359 27.5057 24.3437 27.8844 25.3272V25.3272C28.5006 26.9277 26.9277 28.5006 25.3272 27.8844V27.8844C24.3437 27.5057 23.2359 27.9646 22.8082 28.9278V28.9278C22.1122 30.4952 19.8878 30.4952 19.1918 28.9278V28.9278C18.7641 27.9646 17.6563 27.5057 16.6728 27.8844V27.8844C15.0723 28.5006 13.4994 26.9277 14.1156 25.3272V25.3272C14.4943 24.3437 14.0354 23.2359 13.0722 22.8082V22.8082C11.5048 22.1122 11.5048 19.8878 13.0722 19.1918V19.1918C14.0354 18.7641 14.4943 17.6563 14.1156 16.6728V16.6728C13.4994 15.0723 15.0723 13.4994 16.6728 14.1156V14.1156C17.6563 14.4943 18.7641 14.0354 19.1918 13.0722V13.0722Z" stroke="#212529" stroke-width="1.5"/>
<circle cx="21" cy="21" r="3" stroke="#212529" stroke-width="1.5"/>
</g>
<defs>
<clipPath id="clip0_512_4653">
<rect width="24" height="24" fill="white" transform="translate(9 9)"/>
</clipPath>
</defs>
</svg>
