<svg width="23" height="20" viewBox="0 0 23 20" fill="none" xmlns="http://www.w3.org/2000/svg">
<path d="M7.90726 0H15.0229C17.1201 0 19.1314 0.833109 20.6144 2.31605C22.0973 3.799 22.9304 5.8103 22.9304 7.9075C22.9304 10.0047 22.0973 12.016 20.6144 13.4989C19.1314 14.9819 17.1201 15.815 15.0229 15.815H9.18529L3.69823 19.7477C3.46861 19.9123 3.19306 20.0006 2.91054 20C2.62802 19.9994 2.35283 19.9101 2.12386 19.7446C1.8949 19.5791 1.72375 19.3458 1.63461 19.0777C1.54547 18.8096 1.54285 18.5203 1.62712 18.2506L2.93699 14.0579C1.66521 13.03 0.743353 11.6332 0.298347 10.0597C-0.14666 8.48621 -0.0929279 6.81346 0.452147 5.27177C0.997223 3.73008 2.00683 2.39529 3.34196 1.45117C4.67708 0.507061 6.27206 6.61419e-05 7.90726 0ZM4.47714 12.9813L5.02565 13.353L3.71777 17.5395L8.61203 14.0315H15.0229C16.6471 14.0315 18.2048 13.3863 19.3533 12.2378C20.5017 11.0894 21.1469 9.53169 21.1469 7.9075C21.1469 6.28331 20.5017 4.72564 19.3533 3.57717C18.2048 2.42869 16.6471 1.78349 15.0229 1.78349H7.90726C6.5963 1.7836 5.31997 2.20437 4.26597 2.98392C3.21197 3.76347 2.43592 4.86066 2.05195 6.11413C1.66799 7.36761 1.69637 8.71121 2.13292 9.94735C2.56948 11.1835 3.39116 12.2469 4.47714 12.9813Z" fill="#666666"/>
<path d="M5.41353 9.25112C4.67153 9.07596 4.21202 8.33245 4.38718 7.59045C4.56234 6.84845 5.30585 6.38894 6.04785 6.5641C6.78985 6.73926 7.24936 7.48277 7.0742 8.22477C6.89904 8.96677 6.15553 9.42628 5.41353 9.25112Z" fill="#666666"/>
<path d="M10.4889 8.88367C9.94982 8.34458 9.94982 7.47054 10.4889 6.93145C11.028 6.39236 11.902 6.39236 12.4411 6.93145C12.9802 7.47054 12.9802 8.34458 12.4411 8.88367C11.902 9.42276 11.028 9.42276 10.4889 8.88367Z" fill="#666666"/>
<path d="M16.8828 9.25112C16.1408 9.07596 15.6813 8.33245 15.8564 7.59045C16.0316 6.84845 16.7751 6.38894 17.5171 6.5641C18.2591 6.73926 18.7186 7.48277 18.5434 8.22477C18.3683 8.96677 17.6248 9.42628 16.8828 9.25112Z" fill="#666666"/>
</svg>
