<svg width="20" height="20" viewBox="0 0 20 20" fill="none" xmlns="http://www.w3.org/2000/svg">
<mask id="mask0_759_5500" style="mask-type:alpha" maskUnits="userSpaceOnUse" x="0" y="0" width="20" height="20">
<rect width="20" height="20" fill="#D9D9D9"/>
</mask>
<g mask="url(#mask0_759_5500)">
<path d="M4.42316 17.0834C4.00757 17.0834 3.6526 16.9362 3.35827 16.6419C3.06392 16.3475 2.91675 15.9926 2.91675 15.577V4.42317C2.91675 4.00757 3.06392 3.6526 3.35827 3.35827C3.6526 3.06392 4.00757 2.91675 4.42316 2.91675H15.577C15.9926 2.91675 16.3475 3.06392 16.6419 3.35827C16.9362 3.6526 17.0834 4.00757 17.0834 4.42317V9.69396C16.8783 9.60636 16.6729 9.53212 16.4672 9.47123C16.2615 9.41032 16.0503 9.36171 15.8334 9.32539V4.42317C15.8334 4.35905 15.8067 4.30028 15.7533 4.24685C15.6998 4.19344 15.6411 4.16673 15.577 4.16673H4.42316C4.35905 4.16673 4.30028 4.19344 4.24685 4.24685C4.19344 4.30028 4.16673 4.35905 4.16673 4.42317V15.577C4.16673 15.6411 4.19344 15.6998 4.24685 15.7533C4.30028 15.8067 4.35905 15.8334 4.42316 15.8334H9.30456C9.33553 16.0642 9.38147 16.2824 9.44237 16.488C9.50326 16.6937 9.57751 16.8921 9.66512 17.0834H4.42316ZM4.16673 15.8334V4.16673V9.32539V9.2629V15.8334ZM6.04175 13.8622H9.3895C9.42582 13.6454 9.47977 13.4341 9.55135 13.2284C9.62294 13.0228 9.70093 12.8174 9.78533 12.6122H6.04175V13.8622ZM6.04175 10.625H11.3254C11.6844 10.3206 12.0674 10.0655 12.4744 9.85983C12.8815 9.65418 13.3173 9.50808 13.7821 9.42154V9.37508H6.04175V10.625ZM6.04175 7.38787H13.9584V6.13789H6.04175V7.38787ZM15.0001 18.7981C13.9595 18.7981 13.0743 18.4333 12.3446 17.7036C11.6149 16.9739 11.2501 16.0887 11.2501 15.0481C11.2501 14.0075 11.6149 13.1224 12.3446 12.3927C13.0743 11.663 13.9595 11.2982 15.0001 11.2982C16.0406 11.2982 16.9258 11.663 17.6555 12.3927C18.3852 13.1224 18.75 14.0075 18.75 15.0481C18.75 16.0887 18.3852 16.9739 17.6555 17.7036C16.9258 18.4333 16.0406 18.7981 15.0001 18.7981ZM14.6315 17.5001H15.3686V15.4167H17.452V14.6796H15.3686V12.5962H14.6315V14.6796H12.5481V15.4167H14.6315V17.5001Z" fill="#1C1B1F"/>
</g>
</svg>
