<svg width="63" height="45" viewBox="0 0 63 45" fill="none" xmlns="http://www.w3.org/2000/svg">
<rect x="8" y="2.3241" width="53.0769" height="34.425" fill="#E6F2F1"/>
<rect x="15.3848" y="15.1232" width="10.1538" height="19.4192" fill="#FFC107"/>
<rect x="28.7693" y="6.29614" width="9.69231" height="28.2462" fill="#E06766"/>
<rect x="40.769" y="22.626" width="10.1538" height="11.9163" fill="#5381B1"/>
<path d="M8.70711 0.292873C8.31658 -0.0976486 7.68342 -0.0976486 7.29289 0.292873L0.928931 6.65684C0.538406 7.04736 0.538406 7.68053 0.928931 8.07105C1.31946 8.46157 1.95262 8.46157 2.34314 8.07105L8 2.4142L13.6569 8.07105C14.0474 8.46157 14.6805 8.46157 15.0711 8.07105C15.4616 7.68052 15.4616 7.04736 15.0711 6.65684L8.70711 0.292873ZM9 37.6317L9 0.999981L7 0.999981L7 37.6317L9 37.6317Z" fill="#007C70"/>
<path d="M62.7071 37.8975C63.0976 37.507 63.0976 36.8738 62.7071 36.4833L56.3432 30.1194C55.9526 29.7288 55.3195 29.7288 54.9289 30.1194C54.5384 30.5099 54.5384 31.1431 54.9289 31.5336L60.5858 37.1904L54.9289 42.8473C54.5384 43.2378 54.5384 43.871 54.9289 44.2615C55.3195 44.652 55.9526 44.652 56.3432 44.2615L62.7071 37.8975ZM8 38.1904H62V36.1904H8V38.1904Z" fill="#007C70"/>
</svg>
