<?xml version="1.0" encoding="UTF-8" standalone="no"?>
<svg
   width="10"
   height="10"
   viewBox="0 0 10 10"
   fill="none"
   version="1.1"
   id="svg1"
   sodipodi:docname="clipboard-copy.svg"
   inkscape:version="1.4 (e7c3feb1, 2024-10-09)"
   xmlns:inkscape="http://www.inkscape.org/namespaces/inkscape"
   xmlns:sodipodi="http://sodipodi.sourceforge.net/DTD/sodipodi-0.dtd"
   xmlns="http://www.w3.org/2000/svg"
   xmlns:svg="http://www.w3.org/2000/svg">
  <defs
     id="defs1" />
  <sodipodi:namedview
     id="namedview1"
     pagecolor="#505050"
     bordercolor="#eeeeee"
     borderopacity="1"
     inkscape:showpageshadow="0"
     inkscape:pageopacity="0"
     inkscape:pagecheckerboard="0"
     inkscape:deskcolor="#505050"
     inkscape:zoom="19.98066"
     inkscape:cx="9.0087114"
     inkscape:cy="8.4581791"
     inkscape:window-width="1520"
     inkscape:window-height="1027"
     inkscape:window-x="662"
     inkscape:window-y="59"
     inkscape:window-maximized="0"
     inkscape:current-layer="svg1" />
  <mask
     id="mask0_764_6313"
     maskUnits="userSpaceOnUse"
     x="0"
     y="0"
     width="24"
     height="24">
    <rect
       width="24"
       height="24"
       fill="#ffc107"
       id="rect1"
       x="0"
       y="0" />
  </mask>
  <path
     d="m 3.7949668,2.0894495 c -0.275,0 -0.51042,0.09792 -0.70625,0.29375 -0.19583,0.19583 -0.29375,0.43125 -0.29375,0.70625 v 6 c 0,0.275 0.09792,0.5104 0.29375,0.7063 0.19583,0.1958 0.43125,0.2937005 0.70625,0.2937005 h 4.5 c 0.275,0 0.5104,-0.0979 0.7063,-0.2937005 0.1957997,-0.1959 0.2936997,-0.4313 0.2936997,-0.7063 v -6 c 0,-0.275 -0.0979,-0.51042 -0.2936997,-0.70625 -0.1959,-0.19583 -0.4313,-0.29375 -0.7063,-0.29375 z m 0,1 h 4.5 v 6 h -4.5 z m -2,-2.99999998 c -0.275,0 -0.51042,0.09792 -0.70625,0.29375 -0.19583004,0.19583 -0.29375004,0.43125 -0.29375004,0.70624998 v 7 H 1.7949668 v -7 h 5.5 V 0.08944952 Z"
     fill="#1c1b1f"
     fill-opacity="0.6"
     id="path1-0" />
</svg>
