<svg width="20" height="20" viewBox="0 0 20 20" fill="none" xmlns="http://www.w3.org/2000/svg">
<mask id="mask0_759_5478" style="mask-type:alpha" maskUnits="userSpaceOnUse" x="0" y="0" width="20" height="20">
<rect width="20" height="20" fill="#D9D9D9"/>
</mask>
<g mask="url(#mask0_759_5478)">
<path d="M14.9999 17.2036L14.1218 16.3126L15.6426 14.7918H10.2083V13.5418H15.6426L14.1218 12.0082L14.9999 11.13L18.0368 14.1668L14.9999 17.2036ZM17.0833 9.4633H15.8333V4.42324C15.8333 4.35913 15.8066 4.30036 15.7531 4.24693C15.6997 4.19351 15.6409 4.1668 15.5768 4.1668H13.7499V6.34626H6.24996V4.1668H4.42304C4.35893 4.1668 4.30016 4.19351 4.24673 4.24693C4.19331 4.30036 4.16661 4.35913 4.16661 4.42324V15.577C4.16661 15.6411 4.19331 15.6999 4.24673 15.7533C4.30016 15.8068 4.35893 15.8335 4.42304 15.8335H8.54163V17.0834H4.42304C4.00745 17.0834 3.65248 16.9363 3.35815 16.6419C3.0638 16.3476 2.91663 15.9926 2.91663 15.577V4.42324C2.91663 4.00764 3.0638 3.65267 3.35815 3.35834C3.65248 3.06399 4.00745 2.91682 4.42304 2.91682H8.09452C8.20991 2.51085 8.44575 2.17432 8.80204 1.90724C9.15833 1.64014 9.55763 1.50659 9.99994 1.50659C10.4593 1.50659 10.865 1.64014 11.2171 1.90724C11.5691 2.17432 11.8028 2.51085 11.9182 2.91682H15.5768C15.9924 2.91682 16.3474 3.06399 16.6417 3.35834C16.9361 3.65267 17.0833 4.00764 17.0833 4.42324V9.4633ZM9.99994 4.26297C10.2147 4.26297 10.3939 4.19112 10.5376 4.04743C10.6813 3.90373 10.7531 3.72451 10.7531 3.50976C10.7531 3.29502 10.6813 3.11581 10.5376 2.97211C10.3939 2.82842 10.2147 2.75657 9.99994 2.75657C9.7852 2.75657 9.60599 2.82842 9.46229 2.97211C9.31858 3.11581 9.24673 3.29502 9.24673 3.50976C9.24673 3.72451 9.31858 3.90373 9.46229 4.04743C9.60599 4.19112 9.7852 4.26297 9.99994 4.26297Z" fill="#1C1B1F"/>
</g>
</svg>
