<?xml version="1.0" encoding="UTF-8" standalone="no"?>
<svg
   width="25"
   height="25"
   viewBox="0 0 25 25"
   fill="none"
   version="1.1"
   id="svg145"
   sodipodi:docname="database_reverse.svg"
   inkscape:version="1.2.2 (b0a8486, 2022-12-01)"
   xmlns:inkscape="http://www.inkscape.org/namespaces/inkscape"
   xmlns:sodipodi="http://sodipodi.sourceforge.net/DTD/sodipodi-0.dtd"
   xmlns="http://www.w3.org/2000/svg"
   xmlns:svg="http://www.w3.org/2000/svg">
  <defs
     id="defs149" />
  <sodipodi:namedview
     id="namedview147"
     pagecolor="#ffffff"
     bordercolor="#000000"
     borderopacity="0.25"
     inkscape:showpageshadow="2"
     inkscape:pageopacity="0.0"
     inkscape:pagecheckerboard="0"
     inkscape:deskcolor="#d1d1d1"
     showgrid="false"
     inkscape:zoom="15.636717"
     inkscape:cx="7.4823892"
     inkscape:cy="9.2410704"
     inkscape:window-width="1064"
     inkscape:window-height="729"
     inkscape:window-x="2122"
     inkscape:window-y="163"
     inkscape:window-maximized="0"
     inkscape:current-layer="svg145" />
  <mask
     id="mask0_1184_394"
     style="mask-type:alpha"
     maskUnits="userSpaceOnUse"
     x="0"
     y="0"
     width="25"
     height="25">
    <rect
       x="0.687012"
       y="0.917725"
       width="24"
       height="24"
       fill="#D9D9D9"
       id="rect138" />
  </mask>
  <g
     mask="url(#mask0_1184_394)"
     id="g143"
     transform="matrix(0.79393219,0,0,0.84773308,0.12025366,0.22805326)">
    <path
       d="m 12.687,22.9177 c -1.25,0 -2.4208,-0.2375 -3.51249,-0.7125 -1.09166,-0.475 -2.04166,-1.1166 -2.85,-1.925 -0.80833,-0.8083 -1.45,-1.7583 -1.925,-2.85 -0.475,-1.0916 -0.7125,-2.2625 -0.7125,-3.5125 h 2 c 0,1.95 0.67917,3.6042 2.0375,4.9625 1.35833,1.3584 3.01249,2.0375 4.96249,2.0375 1.95,0 3.6042,-0.6791 4.9625,-2.0375 1.3583,-1.3583 2.0375,-3.0125 2.0375,-4.9625 0,-1.95 -0.6792,-3.6041 -2.0375,-4.96248 C 16.2912,7.59689 14.637,6.91772 12.687,6.91772 h -0.15 l 1.55,1.55 -1.4,1.45 -3.99999,-4 3.99999,-4 1.4,1.45 -1.55,1.55 h 0.15 c 1.25,0 2.4208,0.2375 3.5125,0.7125 1.0917,0.475 2.0417,1.11667 2.85,1.925 0.8083,0.80834 1.45,1.75834 1.925,2.84998 0.475,1.0917 0.7125,2.2625 0.7125,3.5125 0,1.25 -0.2375,2.4209 -0.7125,3.5125 -0.475,1.0917 -1.1167,2.0417 -1.925,2.85 -0.8083,0.8084 -1.7583,1.45 -2.85,1.925 -1.0917,0.475 -2.2625,0.7125 -3.5125,0.7125 z"
       fill="#1c1b1f"
       id="path141" />
  </g>
</svg>
