<?xml version="1.0" encoding="UTF-8" standalone="no"?>
<svg
   width="24"
   height="24"
   viewBox="0 0 24 24"
   fill="none"
   version="1.1"
   id="svg9"
   sodipodi:docname="database_recode.svg"
   inkscape:version="1.2.2 (b0a8486, 2022-12-01)"
   xmlns:inkscape="http://www.inkscape.org/namespaces/inkscape"
   xmlns:sodipodi="http://sodipodi.sourceforge.net/DTD/sodipodi-0.dtd"
   xmlns="http://www.w3.org/2000/svg"
   xmlns:svg="http://www.w3.org/2000/svg">
  <defs
     id="defs13">
    <mask
       id="mask0_682_1551"
       maskUnits="userSpaceOnUse"
       x="0"
       y="1"
       width="24"
       height="24">
      <rect
         y="1"
         width="24"
         height="24"
         fill="#d9d9d9"
         id="rect5561"
         x="0" />
    </mask>
    <mask
       id="mask0_1187_412"
       maskUnits="userSpaceOnUse"
       x="0"
       y="0"
       width="24"
       height="24">
      <rect
         width="24"
         height="24"
         fill="#d9d9d9"
         id="rect1212"
         x="0"
         y="0" />
    </mask>
  </defs>
  <sodipodi:namedview
     id="namedview11"
     pagecolor="#ffffff"
     bordercolor="#000000"
     borderopacity="0.25"
     inkscape:showpageshadow="2"
     inkscape:pageopacity="0.0"
     inkscape:pagecheckerboard="0"
     inkscape:deskcolor="#d1d1d1"
     showgrid="false"
     inkscape:zoom="16.585378"
     inkscape:cx="9.2852873"
     inkscape:cy="6.3911718"
     inkscape:window-width="1390"
     inkscape:window-height="1022"
     inkscape:window-x="290"
     inkscape:window-y="0"
     inkscape:window-maximized="0"
     inkscape:current-layer="g7" />
  <mask
     id="mask0_1183_388"
     style="mask-type:alpha"
     maskUnits="userSpaceOnUse"
     x="0"
     y="0"
     width="24"
     height="24">
    <rect
       width="24"
       height="24"
       fill="#D9D9D9"
       id="rect2" />
  </mask>
  <g
     mask="url(#mask0_1183_388)"
     id="g7">
    <path
       d="m 10.515225,18.995592 c -1.105935,0 -2.1476395,-0.212724 -3.1251056,-0.638171 C 6.4126532,17.931975 5.5580666,17.347717 4.8263595,16.60458 4.0946524,15.861444 3.5193446,14.993532 3.1004296,14.000846 2.6815146,13.008159 2.4720571,11.950192 2.4720571,10.827012 h 1.340528 c 0,0.80549 0.1340529,1.577012 0.4021584,2.314431 0.2681056,0.737418 0.6395459,1.401116 1.114314,1.991091 0.4747681,0.589976 1.0417042,1.092004 1.700795,1.506082 0.6590907,0.414079 1.3796245,0.706242 2.1616015,0.87642 L 7.4320109,15.72816 8.3703805,14.775159 12.324938,18.791377 c -0.290425,0.06807 -0.589296,0.119125 -0.896478,0.153161 -0.307182,0.03403 -0.611616,0.05106 -0.913235,0.05106 z m 6.702641,-8.16858 c 0,-0.80549 -0.134053,-1.576991 -0.402159,-2.3144302 C 16.547602,7.7751428 16.176141,7.1114457 15.701394,6.5214905 15.226645,5.9315352 14.659669,5.429508 14.000599,5.0154086 13.341527,4.6013093 12.620994,4.3091668 11.838997,4.1389881 L 13.59844,5.9258649 12.66007,6.8788659 8.7055125,2.8626475 C 8.9959577,2.7945765 9.294809,2.7435223 9.601991,2.7094866 c 0.307182,-0.034036 0.611615,-0.051054 0.913234,-0.051054 1.105936,0 2.14766,0.2127235 3.125107,0.6381703 0.977445,0.4254469 1.832032,1.009725 2.56376,1.7528411 0.731726,0.7431161 1.307014,1.6110277 1.725929,2.6037348 0.418915,0.992707 0.628373,2.0506537 0.628373,3.1738332 z"
       fill="#1c1b1f"
       id="path5"
       style="stroke-width:0.675469"
       sodipodi:nodetypes="ssssccsssccccssscsssccccssssscc" />
    <g
       mask="url(#mask0_682_1551)"
       id="g5566"
       transform="translate(-11.23019,6.9499869)" />
    <g
       mask="url(#mask0_1187_412)"
       id="g1217"
       transform="matrix(0.64850568,0,0,0.68090427,8.7371813,7.3431143)"
       style="fill:#000000;fill-opacity:1">
      <path
         d="M 10,16.4 6,12.4 7.4,11 10,13.6 16.6,7 18,8.4 Z"
         fill="#1c1b1f"
         id="path1215"
         style="fill:#000000;fill-opacity:1" />
    </g>
    <path
       d="M 4.8741791,9.3805171 V 3.6643345 H 3.4031009 V 2.2352888 h 2.9421563 v 7.1452283 z"
       fill="#1c1b1f"
       id="path5-7"
       sodipodi:nodetypes="ccccccc"
       style="stroke-width:0.724955" />
  </g>
</svg>
