<svg width="20" height="20" viewBox="0 0 20 20" fill="none" xmlns="http://www.w3.org/2000/svg">
<mask id="mask0_734_1647" style="mask-type:alpha" maskUnits="userSpaceOnUse" x="0" y="0" width="20" height="20">
<rect width="20" height="20" fill="#D9D9D9"/>
</mask>
<g mask="url(#mask0_734_1647)">
<path d="M6.08975 17.0834C5.67415 17.0834 5.31919 16.9362 5.02485 16.6419C4.73051 16.3475 4.58333 15.9926 4.58333 15.577V5.00009H3.75V3.75011H7.49998V3.01294H12.5V3.75011H16.25V5.00009H15.4166V15.577C15.4166 15.9979 15.2708 16.3542 14.9791 16.6459C14.6875 16.9376 14.3312 17.0834 13.9102 17.0834H6.08975ZM14.1666 5.00009H5.83331V15.577C5.83331 15.6518 5.85735 15.7132 5.90544 15.7613C5.95352 15.8094 6.01496 15.8334 6.08975 15.8334H13.9102C13.9743 15.8334 14.0331 15.8067 14.0865 15.7533C14.1399 15.6999 14.1666 15.6411 14.1666 15.577V5.00009ZM7.83654 14.1668H9.08652V6.66675H7.83654V14.1668ZM10.9134 14.1668H12.1634V6.66675H10.9134V14.1668Z" fill="#1C1B1F"/>
</g>
</svg>
