<?xml version="1.0" encoding="UTF-8" standalone="no"?>
<svg
   width="63"
   height="45"
   viewBox="0 0 63 45"
   fill="none"
   version="1.1"
   id="svg14"
   sodipodi:docname="descriptiveStatsStringsAndNumerical.svg"
   inkscape:version="1.2.2 (b0a8486, 2022-12-01)"
   xmlns:inkscape="http://www.inkscape.org/namespaces/inkscape"
   xmlns:sodipodi="http://sodipodi.sourceforge.net/DTD/sodipodi-0.dtd"
   xmlns="http://www.w3.org/2000/svg"
   xmlns:svg="http://www.w3.org/2000/svg">
  <defs
     id="defs18">
    <mask
       id="mask0_717_7267"
       maskUnits="userSpaceOnUse"
       x="0"
       y="0"
       width="18"
       height="18">
      <rect
         id="Bounding box"
         width="18"
         height="18"
         fill="#d9d9d9"
         x="0"
         y="0" />
    </mask>
    <mask
       id="mask0_1244_382"
       maskUnits="userSpaceOnUse"
       x="0"
       y="0"
       width="54"
       height="55">
      <rect
         width="38.1138"
         height="38.1138"
         transform="matrix(-0.793464,-0.608617,-0.608617,0.793464,53.7764,24.1433)"
         fill="#d9d9d9"
         id="rect8735"
         x="0"
         y="0" />
    </mask>
  </defs>
  <sodipodi:namedview
     id="namedview16"
     pagecolor="#ffffff"
     bordercolor="#000000"
     borderopacity="0.25"
     inkscape:showpageshadow="2"
     inkscape:pageopacity="0.0"
     inkscape:pagecheckerboard="0"
     inkscape:deskcolor="#d1d1d1"
     showgrid="false"
     inkscape:zoom="6.1571073"
     inkscape:cx="36.1371"
     inkscape:cy="34.918995"
     inkscape:window-width="1101"
     inkscape:window-height="856"
     inkscape:window-x="225"
     inkscape:window-y="0"
     inkscape:window-maximized="0"
     inkscape:current-layer="svg14" />
  <rect
     x="1.8869984"
     y="2.8138309"
     width="17.32023"
     height="40.555138"
     fill="#e06766"
     id="rect6"
     style="opacity:1;fill:#ffffff;fill-opacity:1;stroke:#000000;stroke-width:1.07684;stroke-dasharray:none;stroke-opacity:0.446078" />
  <text
     xml:space="preserve"
     style="font-style:normal;font-variant:normal;font-weight:bold;font-stretch:normal;font-size:10.6667px;font-family:sans-serif;-inkscape-font-specification:'sans-serif, Bold';font-variant-ligatures:normal;font-variant-caps:normal;font-variant-numeric:normal;font-variant-east-asian:normal;fill:#1c1b1f;fill-opacity:0.6;stroke-width:2.3788;stroke-dasharray:none"
     x="6.7637138"
     y="12.560867"
     id="text7645-3"
     transform="scale(0.96219387,1.0392916)"><tspan
       sodipodi:role="line"
       x="6.7637138"
       y="12.560867"
       id="tspan4199"
       style="font-style:normal;font-variant:normal;font-weight:bold;font-stretch:normal;font-size:10.6667px;font-family:sans-serif;-inkscape-font-specification:'sans-serif, Bold';font-variant-ligatures:normal;font-variant-caps:normal;font-variant-numeric:normal;font-variant-east-asian:normal;stroke-width:2.3788">A</tspan><tspan
       sodipodi:role="line"
       x="6.7637138"
       y="25.894241"
       style="font-style:normal;font-variant:normal;font-weight:bold;font-stretch:normal;font-size:10.6667px;font-family:sans-serif;-inkscape-font-specification:'sans-serif, Bold';font-variant-ligatures:normal;font-variant-caps:normal;font-variant-numeric:normal;font-variant-east-asian:normal;stroke-width:2.3788"
       id="tspan1943">B</tspan><tspan
       sodipodi:role="line"
       x="6.7637138"
       y="39.227619"
       style="font-style:normal;font-variant:normal;font-weight:bold;font-stretch:normal;font-size:10.6667px;font-family:sans-serif;-inkscape-font-specification:'sans-serif, Bold';font-variant-ligatures:normal;font-variant-caps:normal;font-variant-numeric:normal;font-variant-east-asian:normal;stroke-width:2.3788"
       id="tspan1945">C</tspan></text>
  <g
     id="table_view"
     transform="matrix(1.3482026,0,0,1.3876739,41.163908,14.094623)">
    <mask
       id="mask8332"
       maskUnits="userSpaceOnUse"
       x="0"
       y="0"
       width="18"
       height="18">
      <rect
         id="rect8330"
         width="18"
         height="18"
         fill="#d9d9d9"
         x="0"
         y="0" />
    </mask>
    <g
       mask="url(#mask0_717_7267)"
       id="g7831"
       transform="translate(0.40448771,0.26965848)">
      <path
         id="table_view_2"
         d="m 6.98077,15.375 c -0.37403,0 -0.6935,-0.1325 -0.9584,-0.3974 C 5.75746,14.7127 5.625,14.3932 5.625,14.0192 V 6.98078 C 5.625,6.60674 5.75746,6.28727 6.02237,6.02237 6.28727,5.75746 6.60674,5.625 6.98077,5.625 h 7.03843 c 0.374,0 0.6935,0.13246 0.9584,0.39737 0.2649,0.2649 0.3974,0.58437 0.3974,0.95841 v 7.03842 c 0,0.374 -0.1325,0.6935 -0.3974,0.9584 -0.2649,0.2649 -0.5844,0.3974 -0.9584,0.3974 z M 6.74998,8.49519 H 14.25 V 6.98078 C 14.25,6.91346 14.2283,6.85817 14.1851,6.81489 14.1418,6.77162 14.0865,6.74998 14.0192,6.74998 H 6.98077 c -0.06731,0 -0.1226,0.02164 -0.16588,0.06491 C 6.77162,6.85817 6.74998,6.91346 6.74998,6.98078 Z M 9.62016,11.3798 H 11.3798 V 9.62016 H 9.62016 Z m 0,2.8702 H 11.3798 V 12.5048 H 9.62016 Z M 6.74998,11.3798 H 8.49519 V 9.62016 H 6.74998 Z m 5.75482,0 H 14.25 V 9.62016 H 12.5048 Z M 6.98077,14.25 H 8.49519 V 12.5048 H 6.74998 v 1.5144 c 0,0.0673 0.02164,0.1226 0.06491,0.1659 0.04328,0.0432 0.09857,0.0649 0.16588,0.0649 z m 5.52403,0 h 1.5144 c 0.0673,0 0.1226,-0.0217 0.1659,-0.0649 0.0432,-0.0433 0.0649,-0.0986 0.0649,-0.1659 V 12.5048 H 12.5048 Z M 3.98078,12.375 C 3.60674,12.375 3.28727,12.2425 3.02237,11.9776 2.75746,11.7127 2.625,11.3932 2.625,11.0192 V 3.98078 C 2.625,3.60674 2.75746,3.28727 3.02237,3.02237 3.28727,2.75746 3.60674,2.625 3.98078,2.625 h 7.03842 c 0.374,0 0.6935,0.13246 0.9584,0.39737 0.2649,0.2649 0.3974,0.58437 0.3974,0.95841 V 4.875 H 11.25 V 3.98078 C 11.25,3.91346 11.2283,3.85817 11.1851,3.81489 11.1418,3.77162 11.0865,3.74998 11.0192,3.74998 H 3.98078 c -0.06732,0 -0.12261,0.02164 -0.16589,0.06491 C 3.77162,3.85817 3.74998,3.91346 3.74998,3.98078 v 7.03842 c 0,0.0673 0.02164,0.1226 0.06491,0.1659 0.04328,0.0432 0.09857,0.0649 0.16589,0.0649 H 4.875 v 1.125 z"
         fill="#1c1b1f" />
    </g>
  </g>
  <g
     mask="url(#mask0_1244_382)"
     id="g8740"
     transform="matrix(0.69515362,0,0,0.78005281,25.770405,-13.21209)">
    <path
       d="m 11.954,29.0907 3.3828,-4.4102 c 0.8674,-1.1308 2.0076,-1.7894 3.4207,-1.9757 1.413,-0.1863 2.685,0.1542 3.8159,1.0217 l 11.8156,9.063 -8.5724,1.1302 0.3287,2.3613 12.5888,-1.6597 -1.6596,-12.5888 -2.3659,0.2945 1.1302,8.5725 -11.8157,-9.0631 c -1.6543,-1.2689 -3.5133,-1.7673 -5.5772,-1.4952 -2.0639,0.2721 -3.7303,1.2353 -4.9992,2.8895 l -3.3828,4.4103 z"
       fill="#1c1b1f"
       id="path8738" />
  </g>
  <rect
     x="21.887001"
     y="2.8138309"
     width="17.32023"
     height="40.555138"
     fill="#e06766"
     id="rect1997"
     style="opacity:1;fill:#ffffff;fill-opacity:1;stroke:#000000;stroke-width:1.07684;stroke-dasharray:none;stroke-opacity:0.446078" />
  <text
     xml:space="preserve"
     style="font-style:normal;font-variant:normal;font-weight:bold;font-stretch:normal;font-size:10.6667px;font-family:sans-serif;-inkscape-font-specification:'sans-serif, Bold';font-variant-ligatures:normal;font-variant-caps:normal;font-variant-numeric:normal;font-variant-east-asian:normal;fill:#1c1b1f;fill-opacity:0.6;stroke-width:2.3788;stroke-dasharray:none"
     x="27.549545"
     y="12.560867"
     id="text2005"
     transform="scale(0.96219387,1.0392916)"><tspan
       sodipodi:role="line"
       x="27.549545"
       y="12.560867"
       id="tspan1999"
       style="font-style:normal;font-variant:normal;font-weight:bold;font-stretch:normal;font-size:10.6667px;font-family:sans-serif;-inkscape-font-specification:'sans-serif, Bold';font-variant-ligatures:normal;font-variant-caps:normal;font-variant-numeric:normal;font-variant-east-asian:normal;stroke-width:2.3788">1</tspan><tspan
       sodipodi:role="line"
       x="27.549545"
       y="25.894243"
       style="font-style:normal;font-variant:normal;font-weight:bold;font-stretch:normal;font-size:10.6667px;font-family:sans-serif;-inkscape-font-specification:'sans-serif, Bold';font-variant-ligatures:normal;font-variant-caps:normal;font-variant-numeric:normal;font-variant-east-asian:normal;stroke-width:2.3788"
       id="tspan2001">2</tspan><tspan
       sodipodi:role="line"
       x="27.549545"
       y="39.227619"
       style="font-style:normal;font-variant:normal;font-weight:bold;font-stretch:normal;font-size:10.6667px;font-family:sans-serif;-inkscape-font-specification:'sans-serif, Bold';font-variant-ligatures:normal;font-variant-caps:normal;font-variant-numeric:normal;font-variant-east-asian:normal;stroke-width:2.3788"
       id="tspan2003">3</tspan></text>
</svg>
