<svg width="20" height="20" viewBox="0 0 20 20" fill="none" xmlns="http://www.w3.org/2000/svg">
<mask id="mask0_759_5317" style="mask-type:alpha" maskUnits="userSpaceOnUse" x="0" y="0" width="20" height="20">
<rect width="20" height="20" fill="#D9D9D9"/>
</mask>
<g mask="url(#mask0_759_5317)">
<path d="M5.25642 17.9165C4.83547 17.9165 4.47917 17.7707 4.1875 17.479C3.89583 17.1874 3.75 16.8311 3.75 16.4101V3.58967C3.75 3.16873 3.89583 2.81242 4.1875 2.52075C4.47917 2.22909 4.83547 2.08325 5.25642 2.08325H11.875L16.25 6.45821V16.4101C16.25 16.8311 16.1041 17.1874 15.8125 17.479C15.5208 17.7707 15.1645 17.9165 14.7435 17.9165H5.25642ZM11.25 7.08321V3.33323H5.25642C5.19231 3.33323 5.13353 3.35994 5.0801 3.41336C5.02669 3.46679 4.99998 3.52556 4.99998 3.58967V16.4101C4.99998 16.4742 5.02669 16.533 5.0801 16.5864C5.13353 16.6399 5.19231 16.6666 5.25642 16.6666H14.7435C14.8077 16.6666 14.8664 16.6399 14.9199 16.5864C14.9733 16.533 15 16.4742 15 16.4101V7.08321H11.25Z" fill="#1C1B1F"/>
</g>
</svg>
