<svg width="18" height="18" viewBox="0 0 18 18" fill="none" xmlns="http://www.w3.org/2000/svg">
<mask id="mask0_717_7509" style="mask-type:alpha" maskUnits="userSpaceOnUse" x="0" y="0" width="18" height="18">
<rect width="18" height="18" fill="#D9D9D9"/>
</mask>
<g mask="url(#mask0_717_7509)">
<path d="M3.74998 14.25H4.69613L12.3736 6.57255L11.4274 5.62641L3.74998 13.3038V14.25ZM2.625 15.375V12.8365L12.5178 2.94808C12.6312 2.84507 12.7564 2.76547 12.8935 2.70928C13.0305 2.65309 13.1742 2.625 13.3246 2.625C13.475 2.625 13.6206 2.65169 13.7616 2.70506C13.9026 2.75843 14.0274 2.84328 14.136 2.95961L15.0519 3.88701C15.1682 3.99566 15.2512 4.12068 15.3007 4.26208C15.3502 4.40347 15.375 4.54486 15.375 4.68624C15.375 4.83706 15.3492 4.98098 15.2977 5.11802C15.2462 5.25507 15.1643 5.3803 15.0519 5.49371L5.16343 15.375H2.625ZM11.8922 6.10778L11.4274 5.62641L12.3736 6.57255L11.8922 6.10778Z" fill="#1C1B1F"/>
</g>
</svg>
