<svg width="25" height="25" viewBox="0 0 25 25" fill="none" xmlns="http://www.w3.org/2000/svg">
<mask id="mask0_1300_1946" style="mask-type:alpha" maskUnits="userSpaceOnUse" x="0" y="0" width="25" height="25">
<rect x="0.747864" y="0.700439" width="24" height="24" fill="#D9D9D9"/>
</mask>
<g mask="url(#mask0_1300_1946)">
<path d="M21.4479 22.4697L18.2479 19.2697V21.8504H16.7479V16.7004H21.8979V18.2004H19.2921L22.4921 21.4004L21.4479 22.4697ZM12.7479 22.2004C11.4337 22.2004 10.1987 21.9511 9.04286 21.4524C7.88703 20.9538 6.88161 20.277 6.02661 19.4222C5.17161 18.5674 4.49478 17.5621 3.99611 16.4064C3.49728 15.2508 3.24786 14.016 3.24786 12.7022C3.24786 11.3882 3.4972 10.1531 3.99586 8.99694C4.49453 7.84077 5.17128 6.83511 6.02611 5.97994C6.88095 5.12477 7.8862 4.44769 9.04186 3.94869C10.1975 3.44986 11.4323 3.20044 12.7461 3.20044C14.0601 3.20044 15.2952 3.44986 16.4514 3.94869C17.6075 4.44736 18.6132 5.12419 19.4684 5.97919C20.3235 6.83419 21.0006 7.83961 21.4996 8.99544C21.9984 10.1513 22.2479 11.3863 22.2479 12.7004C22.2479 13.0018 22.2336 13.303 22.2051 13.6042C22.1766 13.9055 22.1338 14.2069 22.0766 14.5082H20.5364C20.6069 14.2069 20.6597 13.9055 20.6949 13.6042C20.7302 13.303 20.7479 13.0018 20.7479 12.7004C20.7479 12.3371 20.7239 11.9739 20.6759 11.6107C20.6277 11.2474 20.5524 10.8863 20.4499 10.5274H16.7324C16.7952 10.8863 16.8408 11.2474 16.8691 11.6107C16.8973 11.9739 16.9114 12.3371 16.9114 12.7004C16.9114 13.0018 16.9013 13.303 16.8811 13.6042C16.8608 13.9055 16.8304 14.2069 16.7901 14.5082H15.2901C15.3306 14.2069 15.3609 13.9055 15.3811 13.6042C15.4013 13.303 15.4114 13.0018 15.4114 12.7004C15.4114 12.3371 15.3973 11.9739 15.3691 11.6107C15.3408 11.2474 15.2953 10.8863 15.2326 10.5274H10.2631C10.2004 10.8863 10.1549 11.2476 10.1266 11.6114C10.0984 11.9753 10.0844 12.3391 10.0844 12.7029C10.0844 13.0666 10.0984 13.4295 10.1266 13.7917C10.1549 14.154 10.2004 14.5146 10.2631 14.8734H13.9401V16.3734H10.6074C10.829 17.1601 11.1152 17.9149 11.4659 18.6377C11.8167 19.3604 12.244 20.0409 12.7479 20.6792C13.0492 20.6792 13.3504 20.6616 13.6516 20.6264C13.9529 20.5911 14.2543 20.5568 14.5556 20.5234V22.0447C14.2543 22.078 13.9529 22.1123 13.6516 22.1474C13.3504 22.1828 13.0492 22.2004 12.7479 22.2004ZM5.04586 14.8734H8.76336C8.70053 14.5146 8.65495 14.1533 8.62661 13.7894C8.59845 13.4256 8.58436 13.0618 8.58436 12.6979C8.58436 12.3343 8.59845 11.9714 8.62661 11.6092C8.65495 11.2469 8.70053 10.8863 8.76336 10.5274H5.04586C4.94336 10.8863 4.86803 11.2476 4.81986 11.6114C4.77186 11.9753 4.74786 12.3391 4.74786 12.7029C4.74786 13.0666 4.77186 13.4295 4.81986 13.7917C4.86803 14.154 4.94336 14.5146 5.04586 14.8734ZM5.67486 9.02744H9.06261C9.23478 8.30177 9.46386 7.59986 9.74986 6.92169C10.0357 6.24336 10.3895 5.59527 10.8114 4.97744C9.68953 5.22611 8.68345 5.70427 7.79311 6.41194C6.90261 7.11961 6.19653 7.99144 5.67486 9.02744ZM10.8114 20.4234C10.4089 19.7991 10.063 19.1479 9.77386 18.4697C9.4847 17.7915 9.24911 17.0928 9.06711 16.3734H5.67486C6.19653 17.4029 6.9042 18.2715 7.79786 18.9792C8.69153 19.687 9.69603 20.1684 10.8114 20.4234ZM10.6074 9.02744H14.8884C14.6755 8.24027 14.3889 7.48886 14.0284 6.77319C13.6679 6.05769 13.241 5.37386 12.7479 4.72169C12.2504 5.36002 11.8224 6.04044 11.4641 6.76294C11.1058 7.48544 10.8202 8.24027 10.6074 9.02744ZM16.4286 9.02744H19.8209C19.2992 7.99144 18.5931 7.11802 17.7026 6.40719C16.8123 5.69619 15.8062 5.21961 14.6844 4.97744C15.0869 5.60177 15.4279 6.25461 15.7074 6.93594C15.9869 7.61744 16.2273 8.31461 16.4286 9.02744Z" fill="#5381B1"/>
</g>
</svg>
