<svg width="40" height="40" viewBox="0 0 40 40" fill="none" xmlns="http://www.w3.org/2000/svg">
<circle cx="20" cy="20" r="20" fill="#007C70"/>
<path d="M12 28C11.45 28 10.9792 27.8042 10.5875 27.4125C10.1958 27.0208 10 26.55 10 26V14C10 13.45 10.1958 12.9792 10.5875 12.5875C10.9792 12.1958 11.45 12 12 12H18L20 14H28C28.55 14 29.0208 14.1958 29.4125 14.5875C29.8042 14.9792 30 15.45 30 16H19.175L17.175 14H12V26L14.4 18H31.5L28.925 26.575C28.7917 27.0083 28.5458 27.3542 28.1875 27.6125C27.8292 27.8708 27.4333 28 27 28H12ZM14.1 26H27L28.8 20H15.9L14.1 26Z" fill="#FCFDFC"/>
<mask id="mask0_759_5099" style="mask-type:alpha" maskUnits="userSpaceOnUse" x="8" y="8" width="24" height="24">
<rect x="8" y="8" width="24" height="24" fill="#FCFDFC"/>
</mask>
<g mask="url(#mask0_759_5099)">
</g>
</svg>
