<?xml version="1.0" encoding="UTF-8" standalone="no"?>
<svg
   width="24"
   height="24"
   viewBox="0 0 24 24"
   fill="none"
   version="1.1"
   id="svg189"
   sodipodi:docname="folder_open_blue.svg"
   inkscape:version="1.2.2 (b0a8486, 2022-12-01)"
   xmlns:inkscape="http://www.inkscape.org/namespaces/inkscape"
   xmlns:sodipodi="http://sodipodi.sourceforge.net/DTD/sodipodi-0.dtd"
   xmlns="http://www.w3.org/2000/svg"
   xmlns:svg="http://www.w3.org/2000/svg">
  <defs
     id="defs193" />
  <sodipodi:namedview
     id="namedview191"
     pagecolor="#ffffff"
     bordercolor="#000000"
     borderopacity="0.25"
     inkscape:showpageshadow="2"
     inkscape:pageopacity="0.0"
     inkscape:pagecheckerboard="0"
     inkscape:deskcolor="#d1d1d1"
     showgrid="false"
     inkscape:zoom="9.1717143"
     inkscape:cx="0.10903087"
     inkscape:cy="11.993396"
     inkscape:window-width="1920"
     inkscape:window-height="1052"
     inkscape:window-x="0"
     inkscape:window-y="0"
     inkscape:window-maximized="1"
     inkscape:current-layer="svg189" />
  <mask
     id="mask0_764_5557"
     style="mask-type:alpha"
     maskUnits="userSpaceOnUse"
     x="0"
     y="0"
     width="24"
     height="24">
    <rect
       width="24"
       height="24"
       fill="#1C1B1F"
       id="rect182" />
  </mask>
  <g
     mask="url(#mask0_764_5557)"
     id="g187"
     style="fill:#28619e;fill-opacity:1;opacity:1;fill-rule:nonzero;stroke-width:1;stroke-dasharray:none">
    <path
       d="M4 20C3.45 20 2.97917 19.8042 2.5875 19.4125C2.19583 19.0208 2 18.55 2 18V6C2 5.45 2.19583 4.97917 2.5875 4.5875C2.97917 4.19583 3.45 4 4 4H10L12 6H20C20.55 6 21.0208 6.19583 21.4125 6.5875C21.8042 6.97917 22 7.45 22 8H11.175L9.175 6H4V18L6.4 10H23.5L20.925 18.575C20.7917 19.0083 20.5458 19.3542 20.1875 19.6125C19.8292 19.8708 19.4333 20 19 20H4ZM6.1 18H19L20.8 12H7.9L6.1 18Z"
       fill="#1C1B1F"
       id="path185"
       style="fill:#28619e;fill-opacity:1;fill-rule:nonzero;stroke-width:1;stroke-dasharray:none" />
  </g>
</svg>
