<svg width="65" height="49" viewBox="0 0 65 49" fill="none" xmlns="http://www.w3.org/2000/svg">
<rect x="8" y="2.99231" width="54.1298" height="37.7926" fill="#E6F2F1"/>
<rect x="10.3535" y="30.1256" width="3.29486" height="9.20589" fill="#E06766"/>
<rect x="15.0605" y="18.0125" width="3.29486" height="21.3189" fill="#E06766"/>
<rect x="24.4744" y="18.0125" width="3.29486" height="21.3189" fill="#E06766"/>
<rect x="19.7673" y="11.7139" width="3.29486" height="27.6177" fill="#E06766"/>
<rect x="33.8882" y="22.3733" width="3.29486" height="16.9582" fill="#5381B1"/>
<rect x="38.5952" y="18.0125" width="3.29486" height="16.9582" fill="#5381B1"/>
<rect x="44.2434" y="13.6519" width="3.29486" height="16.9582" fill="#5381B1"/>
<rect x="48.9502" y="22.3733" width="3.29486" height="16.9582" fill="#5381B1"/>
<path d="M54.5984 34.4862H57.8932V39.3314H54.5984V34.4862Z" fill="#5381B1"/>
<path d="M8.70711 0.831608C8.31658 0.441086 7.68342 0.441086 7.29289 0.831608L0.928931 7.19557C0.538406 7.58609 0.538406 8.21926 0.928931 8.60978C1.31946 9.00031 1.95262 9.00031 2.34314 8.60978L8 2.95293L13.6569 8.60978C14.0474 9.00031 14.6805 9.00031 15.0711 8.60978C15.4616 8.21926 15.4616 7.58609 15.0711 7.19557L8.70711 0.831608ZM9 41.7539L9 1.53872L7 1.53872L7 41.7539L9 41.7539Z" fill="#007C70"/>
<path d="M63.7783 41.9768C64.1688 41.5862 64.1688 40.9531 63.7783 40.5625L57.4143 34.1986C57.0238 33.8081 56.3906 33.8081 56.0001 34.1986C55.6096 34.5891 55.6096 35.2223 56.0001 35.6128L61.657 41.2697L56.0001 46.9265C55.6096 47.317 55.6096 47.9502 56.0001 48.3407C56.3906 48.7312 57.0238 48.7312 57.4143 48.3407L63.7783 41.9768ZM8 42.2697H63.0712V40.2697H8V42.2697Z" fill="#007C70"/>
<rect x="10.3535" y="34.9707" width="3.29486" height="4.36068" fill="#FFC107"/>
<rect x="19.7673" y="24.3113" width="3.29486" height="15.0201" fill="#FFC107"/>
<rect x="33.8882" y="24.3113" width="3.29486" height="15.0201" fill="#FFC107"/>
<rect x="15.0605" y="27.2184" width="3.29486" height="12.113" fill="#FFC107"/>
<rect x="44.2434" y="27.2184" width="3.29486" height="12.113" fill="#FFC107"/>
<rect x="29.1814" y="18.0125" width="3.29486" height="21.3189" fill="#FFC107"/>
<rect x="24.4744" y="20.9196" width="3.29486" height="18.4118" fill="#FFC107"/>
<rect x="38.5952" y="20.9196" width="3.29486" height="18.4118" fill="#FFC107"/>
<rect x="48.9502" y="31.0945" width="3.29486" height="8.23685" fill="#E06766"/>
<rect x="54.5984" y="36.9091" width="3.29486" height="2.4226" fill="#E06766"/>
<rect x="48.9502" y="33.0327" width="3.29486" height="6.29876" fill="#FFC107"/>
<rect x="54.5984" y="38.3624" width="3.29486" height="0.969041" fill="#FFC107"/>
</svg>
