<?xml version="1.0" encoding="UTF-8" standalone="no"?>
<svg
   width="18"
   height="18"
   viewBox="0 0 18 18"
   fill="none"
   version="1.1"
   id="svg1"
   sodipodi:docname="hypothesisVisualizer.svg"
   inkscape:version="1.4 (e7c3feb1, 2024-10-09)"
   xmlns:inkscape="http://www.inkscape.org/namespaces/inkscape"
   xmlns:sodipodi="http://sodipodi.sourceforge.net/DTD/sodipodi-0.dtd"
   xmlns="http://www.w3.org/2000/svg"
   xmlns:svg="http://www.w3.org/2000/svg">
  <defs
     id="defs1">
    <mask
       id="mask0_1411_690"
       maskUnits="userSpaceOnUse"
       x="0"
       y="0"
       width="24"
       height="24">
      <rect
         width="24"
         height="24"
         fill="#d9d9d9"
         id="rect1"
         x="0"
         y="0" />
    </mask>
  </defs>
  <sodipodi:namedview
     id="namedview1"
     pagecolor="#505050"
     bordercolor="#eeeeee"
     borderopacity="1"
     inkscape:showpageshadow="0"
     inkscape:pageopacity="0"
     inkscape:pagecheckerboard="0"
     inkscape:deskcolor="#505050"
     inkscape:zoom="17.245549"
     inkscape:cx="8.6109175"
     inkscape:cy="12.524971"
     inkscape:window-width="1200"
     inkscape:window-height="1027"
     inkscape:window-x="2250"
     inkscape:window-y="25"
     inkscape:window-maximized="0"
     inkscape:current-layer="svg1" />
  <path
     d="m 4.1889399,14.716751 c -0.360313,0 -0.6687607,-0.128273 -0.9253495,-0.384881 C 3.0070017,14.075262 2.8787106,13.766833 2.8787106,13.406521 V 2.924686 H 4.1889399 V 13.406521 H 14.670775 v 1.31023 z"
     fill="#1c1b1f"
     id="path1"
     style="stroke-width:0.655114" />
  <path
     d="M 4.8440545,7.1829319 V 13.078965 H 7.4645133 V 7.1829319 Z"
     fill="#1c1b1f"
     id="path2"
     style="stroke-width:0.655114" />
  <path
     d="M 8.1196275,3.9073581 V 13.078965 H 10.740087 V 3.9073581 Z"
     fill="#1c1b1f"
     id="path3"
     style="stroke-width:0.655114" />
  <path
     d="m 11.395202,9.8033905 v 3.2755745 h 2.620457 V 9.8033905 Z"
     fill="#1c1b1f"
     id="path4"
     style="stroke-width:0.655114" />
  <path
     d="m 12.050316,9.1482757 c 0,-1.0044877 0.349372,-1.8561566 1.048183,-2.5549473 0.698811,-0.6987912 1.550459,-1.0481836 2.554948,-1.0481836 -1.004489,0 -1.856137,-0.3493923 -2.554948,-1.0481835 -0.698811,-0.6987912 -1.048183,-1.5504403 -1.048183,-2.5549474 0,1.0045071 -0.349373,1.8561562 -1.048184,2.5549474 -0.698811,0.6987912 -1.5504596,1.0481835 -2.5549462,1.0481835 1.0044866,0 1.8561352,0.3493924 2.5549462,1.0481836 0.698811,0.6987907 1.048184,1.5504596 1.048184,2.5549473 z"
     fill="#ffffff"
     id="path5"
     style="stroke-width:0.655114" />
  <path
     d="m 12.967477,9.1482757 c 0,-1.0044877 0.349372,-1.8561566 1.048182,-2.5549473 0.698812,-0.6987847 1.550461,-1.0481836 2.554949,-1.0481836 -1.004488,0 -1.856137,-0.3493923 -2.554949,-1.0481835 -0.69881,-0.6987912 -1.048182,-1.5504403 -1.048182,-2.5549474 0,1.0045071 -0.349373,1.8561562 -1.048185,2.5549474 -0.69881,0.6987912 -1.55046,1.0481835 -2.5549464,1.0481835 1.0044864,0 1.8561364,0.3493989 2.5549464,1.0481836 0.698812,0.6987907 1.048185,1.5504596 1.048185,2.5549473 z"
     fill="#1c1b1f"
     id="path6"
     style="stroke-width:0.655114" />
</svg>
