<?xml version="1.0" encoding="UTF-8"?>
<svg id="svg5" xmlns="http://www.w3.org/2000/svg" xmlns:svg="http://www.w3.org/2000/svg" xmlns:sodipodi="http://sodipodi.sourceforge.net/DTD/sodipodi-0.dtd" xmlns:inkscape="http://www.inkscape.org/namespaces/inkscape" version="1.1" viewBox="0 0 63 45">
  <!-- Generator: Adobe Illustrator 29.2.1, SVG Export Plug-In . SVG Version: 2.1.0 Build 116)  -->
  <defs>
    <style>
      .st0 {
        fill: none;
        stroke: #000;
        stroke-width: .5px;
      }

      .st1 {
        fill: #9addff;
      }

      .st2 {
        fill: #e6f2f1;
      }

      .st3 {
        fill: #565656;
      }

      .st4 {
        fill: #f48282;
      }
    </style>
  </defs>
  <sodipodi:namedview id="namedview5" bordercolor="#eeeeee" borderopacity="1" inkscape:current-layer="svg5" inkscape:cx="2.0769523" inkscape:cy="-5.6644154" inkscape:deskcolor="#505050" inkscape:pagecheckerboard="0" inkscape:pageopacity="0" inkscape:showpageshadow="0" inkscape:window-height="1027" inkscape:window-maximized="1" inkscape:window-width="1920" inkscape:window-x="1512" inkscape:window-y="25" inkscape:zoom="7.9443326" pagecolor="#505050"/>
  <rect id="rect1" class="st2" x="8" y="2.3" width="53.1" height="34.4"/>
  <g id="rect3">
    <path class="st4" d="M36.2,5.9c.7-1.5,1.9.4,3.6.4s1.7-.6,3.3-.6,1.7.6,3.3.6,3-2,3.6-.4c1.5,3.5-.6,4-.6,7.8s.6,3.8.6,7.7-.6,3.8-.6,7.7,2.1,4.3.6,7.8-1.9-.4-3.6-.4-1.7.6-3.3.6-1.7-.6-3.3-.6-3,2-3.6.4c-1.5-3.5.6-4,.6-7.8s-.6-3.8-.6-7.7,1.2-3.9.6-7.7-2.1-4.2-.6-7.8Z"/>
    <path class="st0" d="M36.2,5.9c.7-1.5,1.9.4,3.6.4s1.7-.6,3.3-.6,1.7.6,3.3.6,3-2,3.6-.4c1.5,3.5-.6,4-.6,7.8s.6,3.8.6,7.7-.6,3.8-.6,7.7,2.1,4.3.6,7.8-1.9-.4-3.6-.4-1.7.6-3.3.6-1.7-.6-3.3-.6-3,2-3.6.4c-1.5-3.5.6-4,.6-7.8s-.6-3.8-.6-7.7,1.2-3.9.6-7.7-2.1-4.2-.6-7.8Z"/>
  </g>
  <path id="path4" class="st3" d="M8.7.3c-.4-.4-1-.4-1.4,0L.9,6.7c-.4.4-.4,1,0,1.4.4.4,1,.4,1.4,0l5.7-5.7,5.7,5.7c.4.4,1,.4,1.4,0,.4-.4.4-1,0-1.4L8.7.3ZM9,38.1V1h-2v37.1h2Z"/>
  <g id="rect2">
    <path class="st1" d="M17.2,14.7c.9-1.5,1.9.3,3.7.3s1.7-.4,3.5-.4,1.7.4,3.5.4,2.7-1.8,3.7-.3c1.5,2.3-.4,2.9-.4,5.6s.4,2.7.4,5.5-.4,2.7-.4,5.5,1.9,3.3.4,5.6-1.9-.3-3.7-.3-1.7.4-3.5.4-1.7-.4-3.5-.4-2.7,1.8-3.7.3c-1.5-2.3.4-2.9.4-5.6s-.4-2.7-.4-5.5.9-2.8.4-5.5-1.9-3.2-.4-5.6Z"/>
    <path class="st0" d="M17.2,14.7c.9-1.5,1.9.3,3.7.3s1.7-.4,3.5-.4,1.7.4,3.5.4,2.7-1.8,3.7-.3c1.5,2.3-.4,2.9-.4,5.6s.4,2.7.4,5.5-.4,2.7-.4,5.5,1.9,3.3.4,5.6-1.9-.3-3.7-.3-1.7.4-3.5.4-1.7-.4-3.5-.4-2.7,1.8-3.7.3c-1.5-2.3.4-2.9.4-5.6s-.4-2.7-.4-5.5.9-2.8.4-5.5-1.9-3.2-.4-5.6Z"/>
  </g>
  <path id="path5" class="st3" d="M62.7,37.9c.4-.4.4-1,0-1.4l-6.5-6.4c-.4-.4-1-.4-1.4,0-.4.4-.4,1,0,1.4l5.8,5.7-5.8,5.7c-.4.4-.4,1,0,1.4.4.4,1,.4,1.4,0l6.5-6.4ZM7,38.2h55v-2H7v2Z"/>
</svg>