<?xml version="1.0" encoding="UTF-8" standalone="no"?>
<svg
   width="18"
   height="18"
   viewBox="0 0 18 18"
   fill="none"
   version="1.1"
   id="svg6"
   sodipodi:docname="hypVis_icon.svg"
   inkscape:version="1.4 (e7c3feb1, 2024-10-09)"
   xmlns:inkscape="http://www.inkscape.org/namespaces/inkscape"
   xmlns:sodipodi="http://sodipodi.sourceforge.net/DTD/sodipodi-0.dtd"
   xmlns="http://www.w3.org/2000/svg"
   xmlns:svg="http://www.w3.org/2000/svg">
  <defs
     id="defs6" />
  <sodipodi:namedview
     id="namedview6"
     pagecolor="#505050"
     bordercolor="#eeeeee"
     borderopacity="1"
     inkscape:showpageshadow="0"
     inkscape:pageopacity="0"
     inkscape:pagecheckerboard="0"
     inkscape:deskcolor="#505050"
     inkscape:zoom="17.245549"
     inkscape:cx="6.4364435"
     inkscape:cy="11.481224"
     inkscape:window-width="1920"
     inkscape:window-height="1027"
     inkscape:window-x="1920"
     inkscape:window-y="25"
     inkscape:window-maximized="1"
     inkscape:current-layer="g6" />
  <mask
     id="mask0_1553_2315"
     style="mask-type:alpha"
     maskUnits="userSpaceOnUse"
     x="0"
     y="0"
     width="18"
     height="18">
    <rect
       width="18"
       height="18"
       fill="#D9D9D9"
       id="rect1" />
  </mask>
  <g
     mask="url(#mask0_1553_2315)"
     id="g6">
    <path
       d="m 2.1156831,16.913515 c -0.4584432,0 -0.8508956,-0.163207 -1.17736549,-0.489701 C 0.61184771,16.097319 0.44861704,15.704891 0.44861704,15.246449 V 1.9099192 H 2.1156831 V 15.246449 H 15.452213 v 1.667066 z"
       fill="#1c1b1f"
       id="path1"
       style="stroke-width:0.833532" />
    <path
       d="M 2.9492161,7.3278845 V 14.829683 H 6.2833483 V 7.3278845 Z"
       fill="#1c1b1f"
       id="path2"
       style="stroke-width:0.833532" />
    <path
       d="M 7.1168808,3.1602188 V 14.829683 H 10.451014 V 3.1602188 Z"
       fill="#1c1b1f"
       id="path3"
       style="stroke-width:0.833532" />
    <path
       d="m 11.284548,10.662016 v 4.167667 h 3.334131 v -4.167667 z"
       fill="#1c1b1f"
       id="path4"
       style="stroke-width:0.833532" />
    <path
       d="m 12.11808,9.8284833 c 0,-1.2780565 0.444523,-2.3616747 1.333653,-3.2507789 0.88913,-0.8891047 1.972722,-1.333653 3.250779,-1.333653 -1.278057,0 -2.361649,-0.4445481 -3.250779,-1.3336528 -0.88913,-0.8891048 -1.333653,-1.9726978 -1.333653,-3.25077915 0,1.27808135 -0.444523,2.36167435 -1.333653,3.25077915 -0.8891298,0.8891047 -1.9727235,1.3336528 -3.2507785,1.3336528 1.278055,0 2.3616487,0.4445483 3.2507785,1.333653 0.88913,0.8891042 1.333653,1.9727224 1.333653,3.2507789 z"
       fill="#ffffff"
       id="path5"
       style="stroke-width:0.833532" />
    <path
       d="m 13.285027,9.8284833 c 0,-1.2780565 0.444522,-2.3616747 1.333652,-3.2507789 0.889131,-0.8890964 1.972723,-1.333653 3.25078,-1.333653 -1.278057,0 -2.361649,-0.4445481 -3.25078,-1.3336528 -0.88913,-0.8891048 -1.333652,-1.9726978 -1.333652,-3.25077915 0,1.27808135 -0.444524,2.36167435 -1.333654,3.25077915 -0.889129,0.8891047 -1.972723,1.3336528 -3.2507791,1.3336528 1.2780561,0 2.3616501,0.4445566 3.2507791,1.333653 0.88913,0.8891042 1.333654,1.9727224 1.333654,3.2507789 z"
       fill="#1c1b1f"
       id="path6"
       style="stroke-width:0.833532" />
  </g>
</svg>
