<svg width="22" height="22" viewBox="0 0 22 22" fill="none" xmlns="http://www.w3.org/2000/svg">
<mask id="mask0_509_2405" style="mask-type:alpha" maskUnits="userSpaceOnUse" x="0" y="0" width="22" height="22">
<rect width="22" height="22" fill="#D9D9D9"/>
</mask>
<g mask="url(#mask0_509_2405)">
<path d="M4.58333 19.25C4.07917 19.25 3.64757 19.0705 3.28854 18.7115C2.92951 18.3524 2.75 17.9208 2.75 17.4167V2.75H4.58333V17.4167H19.25V19.25H4.58333Z" fill="#0D3944"/>
<path d="M16.6863 3.78692L5.738 14.7352L6.57102 15.5682L17.5193 4.61994L16.6863 3.78692ZM10.8551 4.44143C10.7758 4.44143 10.7064 4.47118 10.6469 4.53069C10.5874 4.59019 10.5576 4.65961 10.5576 4.73894C10.5576 4.81828 10.5874 4.8877 10.6469 4.9472C10.7064 5.0067 10.7758 5.03645 10.8551 5.03645C10.9345 5.03645 11.0039 5.0067 11.0634 4.9472C11.1229 4.8877 11.1526 4.81828 11.1526 4.73894C11.1526 4.65961 11.1229 4.59019 11.0634 4.53069C11.0039 4.47118 10.9345 4.44143 10.8551 4.44143ZM13.2352 4.44143C13.1558 4.44143 13.0864 4.47118 13.0269 4.53069C12.9674 4.59019 12.9377 4.65961 12.9377 4.73894C12.9377 4.81828 12.9674 4.8877 13.0269 4.9472C13.0864 5.0067 13.1558 5.03645 13.2352 5.03645C13.3145 5.03645 13.3839 5.0067 13.4434 4.9472C13.5029 4.8877 13.5327 4.81828 13.5327 4.73894C13.5327 4.65961 13.5029 4.59019 13.4434 4.53069C13.3839 4.47118 13.3145 4.44143 13.2352 4.44143ZM8.47507 5.92897C8.30648 5.92897 8.16516 5.98599 8.05112 6.10004C7.93708 6.21408 7.88005 6.3554 7.88005 6.52398C7.88005 6.69257 7.93708 6.83389 8.05112 6.94793C8.16516 7.06198 8.30648 7.119 8.47507 7.119C8.64365 7.119 8.78497 7.06198 8.89901 6.94793C9.01306 6.83389 9.07008 6.69257 9.07008 6.52398C9.07008 6.3554 9.01306 6.21408 8.89901 6.10004C8.78497 5.98599 8.64365 5.92897 8.47507 5.92897ZM10.8551 5.92897C10.6865 5.92897 10.5452 5.98599 10.4312 6.10004C10.3171 6.21408 10.2601 6.3554 10.2601 6.52398C10.2601 6.69257 10.3171 6.83389 10.4312 6.94793C10.5452 7.06198 10.6865 7.119 10.8551 7.119C11.0237 7.119 11.165 7.06198 11.2791 6.94793C11.3931 6.83389 11.4501 6.69257 11.4501 6.52398C11.4501 6.3554 11.3931 6.21408 11.2791 6.10004C11.165 5.98599 11.0237 5.92897 10.8551 5.92897ZM13.2352 5.92897C13.0666 5.92897 12.9253 5.98599 12.8112 6.10004C12.6972 6.21408 12.6402 6.3554 12.6402 6.52398C12.6402 6.69257 12.6972 6.83389 12.8112 6.94793C12.9253 7.06198 13.0666 7.119 13.2352 7.119C13.4038 7.119 13.5451 7.06198 13.6591 6.94793C13.7732 6.83389 13.8302 6.69257 13.8302 6.52398C13.8302 6.3554 13.7732 6.21408 13.6591 6.10004C13.5451 5.98599 13.4038 5.92897 13.2352 5.92897ZM10.8551 8.01152C10.5973 8.01152 10.3841 8.09581 10.2155 8.2644C10.0469 8.43299 9.9626 8.6462 9.9626 8.90404C9.9626 9.16188 10.0469 9.37509 10.2155 9.54368C10.3841 9.71227 10.5973 9.79656 10.8551 9.79656C11.113 9.79656 11.3262 9.71227 11.4948 9.54368C11.6634 9.37509 11.7476 9.16188 11.7476 8.90404C11.7476 8.6462 11.6634 8.43299 11.4948 8.2644C11.3262 8.09581 11.113 8.01152 10.8551 8.01152ZM8.47507 8.30903C8.30648 8.30903 8.16516 8.36605 8.05112 8.48009C7.93708 8.59414 7.88005 8.73545 7.88005 8.90404C7.88005 9.07263 7.93708 9.21394 8.05112 9.32799C8.16516 9.44203 8.30648 9.49906 8.47507 9.49906C8.64365 9.49906 8.78497 9.44203 8.89901 9.32799C9.01306 9.21394 9.07008 9.07263 9.07008 8.90404C9.07008 8.73545 9.01306 8.59414 8.89901 8.48009C8.78497 8.36605 8.64365 8.30903 8.47507 8.30903ZM15.4962 8.3239L15.0351 8.78504C14.9954 8.98338 15.0376 9.15196 15.1615 9.2908C15.2855 9.42964 15.4367 9.49906 15.6152 9.49906C15.7838 9.49906 15.9251 9.44203 16.0392 9.32799C16.1532 9.21394 16.2103 9.07263 16.2103 8.90404C16.2103 8.72554 16.1408 8.5743 16.002 8.45034C15.8632 8.32638 15.6946 8.28423 15.4962 8.3239ZM6.69002 8.60653C6.61069 8.60653 6.54127 8.63628 6.48177 8.69579C6.42227 8.75529 6.39252 8.82471 6.39252 8.90404C6.39252 8.98338 6.42227 9.05279 6.48177 9.1123C6.54127 9.1718 6.61069 9.20155 6.69002 9.20155C6.76936 9.20155 6.83878 9.1718 6.89828 9.1123C6.95778 9.05279 6.98753 8.98338 6.98753 8.90404C6.98753 8.82471 6.95778 8.75529 6.89828 8.69579C6.83878 8.63628 6.76936 8.60653 6.69002 8.60653ZM17.4003 8.60653C17.3209 8.60653 17.2515 8.63628 17.192 8.69579C17.1325 8.75529 17.1028 8.82471 17.1028 8.90404C17.1028 8.98338 17.1325 9.05279 17.192 9.1123C17.2515 9.1718 17.3209 9.20155 17.4003 9.20155C17.4796 9.20155 17.549 9.1718 17.6085 9.1123C17.668 9.05279 17.6978 8.98338 17.6978 8.90404C17.6978 8.82471 17.668 8.75529 17.6085 8.69579C17.549 8.63628 17.4796 8.60653 17.4003 8.60653ZM13.4137 10.4213L12.3724 11.4626C12.422 11.6709 12.5212 11.8419 12.6699 11.9758C12.8187 12.1097 13.0071 12.1766 13.2352 12.1766C13.493 12.1766 13.7062 12.0923 13.8748 11.9237C14.0434 11.7552 14.1277 11.5419 14.1277 11.2841C14.1277 11.056 14.0583 10.8651 13.9194 10.7114C13.7806 10.5577 13.612 10.461 13.4137 10.4213ZM8.47507 10.6891C8.30648 10.6891 8.16516 10.7461 8.05112 10.8601C7.93708 10.9742 7.88005 11.1155 7.88005 11.2841C7.88005 11.4527 7.93708 11.594 8.05112 11.708C8.16516 11.8221 8.30648 11.8791 8.47507 11.8791C8.64365 11.8791 8.78497 11.8221 8.89901 11.708C9.01306 11.594 9.07008 11.4527 9.07008 11.2841C9.07008 11.1155 9.01306 10.9742 8.89901 10.8601C8.78497 10.7461 8.64365 10.6891 8.47507 10.6891ZM15.6152 10.6891C15.4467 10.6891 15.3053 10.7461 15.1913 10.8601C15.0772 10.9742 15.0202 11.1155 15.0202 11.2841C15.0202 11.4527 15.0772 11.594 15.1913 11.708C15.3053 11.8221 15.4467 11.8791 15.6152 11.8791C15.7838 11.8791 15.9251 11.8221 16.0392 11.708C16.1532 11.594 16.2103 11.4527 16.2103 11.2841C16.2103 11.1155 16.1532 10.9742 16.0392 10.8601C15.9251 10.7461 15.7838 10.6891 15.6152 10.6891ZM6.69002 10.9866C6.61069 10.9866 6.54127 11.0163 6.48177 11.0758C6.42227 11.1353 6.39252 11.2048 6.39252 11.2841C6.39252 11.3634 6.42227 11.4329 6.48177 11.4924C6.54127 11.5519 6.61069 11.5816 6.69002 11.5816C6.76936 11.5816 6.83878 11.5519 6.89828 11.4924C6.95778 11.4329 6.98753 11.3634 6.98753 11.2841C6.98753 11.2048 6.95778 11.1353 6.89828 11.0758C6.83878 11.0163 6.76936 10.9866 6.69002 10.9866ZM17.4003 10.9866C17.3209 10.9866 17.2515 11.0163 17.192 11.0758C17.1325 11.1353 17.1028 11.2048 17.1028 11.2841C17.1028 11.3634 17.1325 11.4329 17.192 11.4924C17.2515 11.5519 17.3209 11.5816 17.4003 11.5816C17.4796 11.5816 17.549 11.5519 17.6085 11.4924C17.668 11.4329 17.6978 11.3634 17.6978 11.2841C17.6978 11.2048 17.668 11.1353 17.6085 11.0758C17.549 11.0163 17.4796 10.9866 17.4003 10.9866ZM13.2352 13.0691C13.0666 13.0691 12.9253 13.1262 12.8112 13.2402C12.6972 13.3543 12.6402 13.4956 12.6402 13.6642C12.6402 13.8327 12.6972 13.9741 12.8112 14.0881C12.9253 14.2021 13.0666 14.2592 13.2352 14.2592C13.4038 14.2592 13.5451 14.2021 13.6591 14.0881C13.7732 13.9741 13.8302 13.8327 13.8302 13.6642C13.8302 13.4956 13.7732 13.3543 13.6591 13.2402C13.5451 13.1262 13.4038 13.0691 13.2352 13.0691ZM10.751 13.084L10.275 13.56C10.2452 13.7584 10.2899 13.9245 10.4089 14.0584C10.5279 14.1922 10.6766 14.2592 10.8551 14.2592C11.0237 14.2592 11.165 14.2021 11.2791 14.0881C11.3931 13.9741 11.4501 13.8327 11.4501 13.6642C11.4501 13.4857 11.3832 13.3369 11.2493 13.2179C11.1154 13.0989 10.9493 13.0543 10.751 13.084ZM15.6152 13.0691C15.4467 13.0691 15.3053 13.1262 15.1913 13.2402C15.0772 13.3543 15.0202 13.4956 15.0202 13.6642C15.0202 13.8327 15.0772 13.9741 15.1913 14.0881C15.3053 14.2021 15.4467 14.2592 15.6152 14.2592C15.7838 14.2592 15.9251 14.2021 16.0392 14.0881C16.1532 13.9741 16.2103 13.8327 16.2103 13.6642C16.2103 13.4956 16.1532 13.3543 16.0392 13.2402C15.9251 13.1262 15.7838 13.0691 15.6152 13.0691ZM10.8551 15.1517C10.7758 15.1517 10.7064 15.1814 10.6469 15.2409C10.5874 15.3004 10.5576 15.3699 10.5576 15.4492C10.5576 15.5285 10.5874 15.598 10.6469 15.6575C10.7064 15.717 10.7758 15.7467 10.8551 15.7467C10.9345 15.7467 11.0039 15.717 11.0634 15.6575C11.1229 15.598 11.1526 15.5285 11.1526 15.4492C11.1526 15.3699 11.1229 15.3004 11.0634 15.2409C11.0039 15.1814 10.9345 15.1517 10.8551 15.1517ZM13.2352 15.1517C13.1558 15.1517 13.0864 15.1814 13.0269 15.2409C12.9674 15.3004 12.9377 15.3699 12.9377 15.4492C12.9377 15.5285 12.9674 15.598 13.0269 15.6575C13.0864 15.717 13.1558 15.7467 13.2352 15.7467C13.3145 15.7467 13.3839 15.717 13.4434 15.6575C13.5029 15.598 13.5327 15.5285 13.5327 15.4492C13.5327 15.3699 13.5029 15.3004 13.4434 15.2409C13.3839 15.1814 13.3145 15.1517 13.2352 15.1517Z" fill="#0D3944"/>
</g>
</svg>

