<svg width="25" height="25" viewBox="0 0 25 25" fill="none" xmlns="http://www.w3.org/2000/svg">
<mask id="mask0_1278_376" style="mask-type:alpha" maskUnits="userSpaceOnUse" x="0" y="0" width="25" 
height="25">
<rect x="0.430664" y="0.508911" width="24" height="24" fill="#D9D9D9"/>
</mask>
<g mask="url(#mask0_1278_376)">
<path d="M9.93066 13.5089C10.214 13.5089 10.4515 13.4131 10.6432 13.2214C10.8348 13.0297 10.9307 
12.7922 10.9307 12.5089C10.9307 12.2256 10.8348 11.9881 10.6432 11.7964C10.4515 11.6047 10.214 11.5089 
9.93066 11.5089C9.64733 11.5089 9.40983 11.6047 9.21816 11.7964C9.0265 11.9881 8.93066 12.2256 8.93066 
12.5089C8.93066 12.7922 9.0265 13.0297 9.21816 13.2214C9.40983 13.4131 9.64733 13.5089 9.93066 
13.5089ZM13.4307 13.5089C13.714 13.5089 13.9515 13.4131 14.1432 13.2214C14.3348 13.0297 14.4307 12.7922 
14.4307 12.5089C14.4307 12.2256 14.3348 11.9881 14.1432 11.7964C13.9515 11.6047 13.714 11.5089 13.4307 
11.5089C13.1473 11.5089 12.9098 11.6047 12.7182 11.7964C12.5265 11.9881 12.4307 12.2256 12.4307 
12.5089C12.4307 12.7922 12.5265 13.0297 12.7182 13.2214C12.9098 13.4131 13.1473 13.5089 13.4307 
13.5089ZM16.9307 13.5089C17.214 13.5089 17.4515 13.4131 17.6432 13.2214C17.8348 13.0297 17.9307 12.7922 
17.9307 12.5089C17.9307 12.2256 17.8348 11.9881 17.6432 11.7964C17.4515 11.6047 17.214 11.5089 16.9307 
11.5089C16.6473 11.5089 16.4098 11.6047 16.2182 11.7964C16.0265 11.9881 15.9307 12.2256 15.9307 
12.5089C15.9307 12.7922 16.0265 13.0297 16.2182 13.2214C16.4098 13.4131 16.6473 13.5089 16.9307 
13.5089ZM9.43066 19.5089C9.09733 19.5089 8.78483 19.4339 8.49316 19.2839C8.2015 19.1339 7.964 18.9256 
7.78066 18.6589L3.43066 12.5089L7.78066 6.35891C7.964 6.09224 8.2015 5.88391 8.49316 5.73391C8.78483 
5.58391 9.09733 5.50891 9.43066 5.50891H19.4307C19.9807 5.50891 20.4515 5.70474 20.8432 6.09641C21.2348 
6.48808 21.4307 6.95891 21.4307 7.50891V17.5089C21.4307 18.0589 21.2348 18.5297 20.8432 18.9214C20.4515 
19.3131 19.9807 19.5089 19.4307 19.5089H9.43066ZM9.43066 17.5089H19.4307V7.50891H9.43066L5.88066 
12.5089L9.43066 17.5089Z" fill="#1C1B1F"/>
</g>
</svg>

