<svg width="63" height="47" viewBox="0 0 63 47" fill="none" xmlns="http://www.w3.org/2000/svg">
<g id="Group 1147">
<rect id="Rectangle 2908" x="8" y="3.49194" width="53.0769" height="34.4767" fill="#E6F2F1"/>
<path id="Arrow 5" d="M8.70711 1.45882C8.31658 1.0683 7.68342 1.0683 7.29289 1.45882L0.928931 7.82279C0.538406 8.21331 0.538406 8.84648 0.928931 9.237C1.31946 9.62752 1.95262 9.62752 2.34314 9.237L8 3.58015L13.6569 9.237C14.0474 9.62752 14.6805 9.62752 15.0711 9.237C15.4616 8.84648 15.4616 8.21331 15.0711 7.82279L8.70711 1.45882ZM9 38.8527L9 2.16593L7 2.16593L7 38.8527L9 38.8527Z" fill="#007C70"/>
<path id="Arrow 6" d="M62.7071 39.1178C63.0976 38.7272 63.0976 38.0941 62.7071 37.7035L56.3432 31.3396C55.9526 30.9491 55.3195 30.9491 54.9289 31.3396C54.5384 31.7301 54.5384 32.3633 54.9289 32.7538L60.5858 38.4106L54.9289 44.0675C54.5384 44.458 54.5384 45.0912 54.9289 45.4817C55.3195 45.8722 55.9526 45.8722 56.3432 45.4817L62.7071 39.1178ZM8 39.4106H62V37.4106H8V39.4106Z" fill="#007C70"/>
<path id="Line 3" d="M10.0769 35.9796L14 21.6143L21.8461 28.9075L24.6153 20.9513L33.3846 24.0453L41.4615 33.1065L48.3846 17.1942L56 11.0061" stroke="#5381B1"/>
<ellipse id="Ellipse 42" cx="21.846" cy="28.6864" rx="1.38462" ry="1.32603" fill="#E06766"/>
<ellipse id="Ellipse 43" cx="24.6151" cy="20.7302" rx="1.38462" ry="1.32603" fill="#E06766"/>
<ellipse id="Ellipse 44" cx="33.3846" cy="23.8243" rx="1.38462" ry="1.32603" fill="#E06766"/>
<ellipse id="Ellipse 47" cx="41.2308" cy="33.1065" rx="1.38462" ry="1.32603" fill="#E06766"/>
<ellipse id="Ellipse 48" cx="14.0001" cy="21.6144" rx="1.38462" ry="1.32603" fill="#E06766"/>
<ellipse id="Ellipse 49" cx="10.3077" cy="35.7586" rx="1.38462" ry="1.32603" fill="#E06766"/>
<ellipse id="Ellipse 45" cx="48.1539" cy="17.1942" rx="1.38462" ry="1.32603" fill="#E06766"/>
</g>
</svg>
