<?xml version="1.0" encoding="UTF-8" standalone="no"?>
<svg
   width="25"
   height="25"
   viewBox="0 0 25 25"
   fill="none"
   version="1.1"
   id="svg189"
   sodipodi:docname="save.svg"
   inkscape:version="1.2.2 (b0a8486, 2022-12-01)"
   xmlns:inkscape="http://www.inkscape.org/namespaces/inkscape"
   xmlns:sodipodi="http://sodipodi.sourceforge.net/DTD/sodipodi-0.dtd"
   xmlns="http://www.w3.org/2000/svg"
   xmlns:svg="http://www.w3.org/2000/svg">
  <defs
     id="defs193" />
  <sodipodi:namedview
     id="namedview191"
     pagecolor="#ffffff"
     bordercolor="#000000"
     borderopacity="0.25"
     inkscape:showpageshadow="2"
     inkscape:pageopacity="0.0"
     inkscape:pagecheckerboard="0"
     inkscape:deskcolor="#d1d1d1"
     showgrid="false"
     inkscape:zoom="11.16976"
     inkscape:cx="1.7905488"
     inkscape:cy="9.4899088"
     inkscape:window-width="1309"
     inkscape:window-height="430"
     inkscape:window-x="0"
     inkscape:window-y="0"
     inkscape:window-maximized="0"
     inkscape:current-layer="g187" />
  <mask
     id="mask0_209_40"
     style="mask-type:alpha"
     maskUnits="userSpaceOnUse"
     x="0"
     y="0"
     width="25"
     height="25">
    <rect
       x="0.442993"
       y="0.355164"
       width="24"
       height="24"
       fill="#D9D9D9"
       id="rect182" />
  </mask>
  <g
     mask="url(#mask0_209_40)"
     id="g187"
     style="fill:#db2828;fill-opacity:1">
    <path
       d="M 21.443,7.35516 V 19.3552 c 0,0.55 -0.1958,1.0208 -0.5875,1.4125 -0.3917,0.3916 -0.8625,0.5875 -1.4125,0.5875 H 5.44299 c -0.55,0 -1.02083,-0.1959 -1.4125,-0.5875 C 3.63883,20.376 3.44299,19.9052 3.44299,19.3552 V 5.35516 c 0,-0.55 0.19584,-1.02083 0.5875,-1.4125 0.39167,-0.39166 0.8625,-0.5875 1.4125,-0.5875 H 17.443 Z m -2,0.85 -2.85,-2.85 H 5.44299 V 19.3552 H 19.443 Z m -7,10.15004 c 0.8333,0 1.5417,-0.2917 2.125,-0.875 0.5833,-0.5834 0.875,-1.2917 0.875,-2.125 0,-0.8334 -0.2917,-1.5417 -0.875,-2.125 -0.5833,-0.5834 -1.2917,-0.875 -2.125,-0.875 -0.8333,0 -1.5417,0.2916 -2.125,0.875 -0.58334,0.5833 -0.87501,1.2916 -0.87501,2.125 0,0.8333 0.29167,1.5416 0.87501,2.125 0.5833,0.5833 1.2917,0.875 2.125,0.875 z M 6.44299,9.8180354 H 15.443 v -2.00004 H 6.44299 Z"
       fill="#1C1B1F"
       id="path185"
       style="fill:#db2828;fill-opacity:1"
       sodipodi:nodetypes="cscsscsscsccccccccscscscscsccccc" />
  </g>
</svg>
