<svg width="58" height="44" viewBox="0 0 58 44" fill="none" xmlns="http://www.w3.org/2000/svg">
<g id="Group 1148">
<rect id="Rectangle 2666" x="8" y="2.29333" width="48.1624" height="33.6262" fill="#E6F2F1"/>
<path id="Arrow 3" d="M8.70711 0.292976C8.31658 -0.0975456 7.68342 -0.0975456 7.29289 0.292976L0.928931 6.65694C0.538407 7.04746 0.538407 7.68063 0.928931 8.07115C1.31946 8.46168 1.95262 8.46168 2.34314 8.07115L8 2.4143L13.6569 8.07115C14.0474 8.46168 14.6805 8.46168 15.0711 8.07115C15.4616 7.68063 15.4616 7.04746 15.0711 6.65694L8.70711 0.292976ZM9 36.7819L9 1.00008L7 1.00008L7 36.7819L9 36.7819Z" fill="#007C70"/>
<path id="Arrow 4" d="M57.7071 37.0578C58.0976 36.6673 58.0976 36.0341 57.7071 35.6436L51.3431 29.2796C50.9526 28.8891 50.3195 28.8891 49.9289 29.2796C49.5384 29.6702 49.5384 30.3033 49.9289 30.6939L55.5858 36.3507L49.9289 42.0076C49.5384 42.3981 49.5384 43.0313 49.9289 43.4218C50.3195 43.8123 50.9526 43.8123 51.3431 43.4218L57.7071 37.0578ZM8 37.3507H57V35.3507H8V37.3507Z" fill="#007C70"/>
<line id="Line 2" x1="14.6584" y1="19.5817" x2="47.4507" y2="12.0432" stroke="#E06766" stroke-width="1.5"/>
<circle id="Ellipse 50" cx="19.7265" cy="9.75873" r="0.753846" fill="#FFC107"/>
<circle id="Ellipse 53" cx="30.2802" cy="12.7741" r="0.753846" fill="#FFC107"/>
<circle id="Ellipse 63" cx="38.9496" cy="15.0357" r="0.753846" fill="#FFC107"/>
<circle id="Ellipse 56" cx="21.2343" cy="17.2972" r="0.753846" fill="#FFC107"/>
<circle id="Ellipse 66" cx="22.3649" cy="21.0665" r="0.753846" fill="#FFC107"/>
<circle id="Ellipse 51" cx="28.3957" cy="8.25104" r="0.753846" fill="#FFC107"/>
<circle id="Ellipse 64" cx="17.842" cy="17.6741" r="0.753846" fill="#FFC107"/>
<circle id="Ellipse 54" cx="38.9496" cy="11.2664" r="0.753846" fill="#FFC107"/>
<circle id="Ellipse 57" cx="29.9033" cy="15.7895" r="0.753846" fill="#FFC107"/>
<circle id="Ellipse 67" cx="31.0344" cy="19.5588" r="0.753846" fill="#FFC107"/>
<circle id="Ellipse 52" cx="26.5109" cy="15.0357" r="0.753846" fill="#FFC107"/>
<circle id="Ellipse 68" cx="27.642" cy="18.8049" r="0.753846" fill="#FFC107"/>
<circle id="Ellipse 65" cx="17.842" cy="23.3281" r="0.753846" fill="#FFC107"/>
<circle id="Ellipse 60" cx="34.0497" cy="12.7741" r="0.753846" fill="#FFC107"/>
<circle id="Ellipse 55" cx="37.0649" cy="18.0511" r="0.753846" fill="#FFC107"/>
<circle id="Ellipse 61" cx="44.6035" cy="15.7895" r="0.753846" fill="#FFC107"/>
<circle id="Ellipse 58" cx="28.0187" cy="22.574" r="0.753846" fill="#FFC107"/>
<circle id="Ellipse 62" cx="35.5573" cy="20.3126" r="0.753846" fill="#FFC107"/>
</g>
</svg>
