<?xml version="1.0" encoding="UTF-8" standalone="no"?>
<svg
   width="63"
   height="45"
   viewBox="0 0 63 45"
   fill="none"
   version="1.1"
   id="svg14"
   sodipodi:docname="stattest_ttest copy.svg"
   inkscape:version="1.2.2 (b0a8486, 2022-12-01)"
   xml:space="preserve"
   xmlns:inkscape="http://www.inkscape.org/namespaces/inkscape"
   xmlns:sodipodi="http://sodipodi.sourceforge.net/DTD/sodipodi-0.dtd"
   xmlns="http://www.w3.org/2000/svg"
   xmlns:svg="http://www.w3.org/2000/svg"><defs
     id="defs18"><mask
       id="mask0_717_7267"
       maskUnits="userSpaceOnUse"
       x="0"
       y="0"
       width="18"
       height="18"><rect
         id="Bounding box"
         width="18"
         height="18"
         fill="#d9d9d9"
         x="0"
         y="0" /></mask><mask
       id="mask0_1244_382"
       maskUnits="userSpaceOnUse"
       x="0"
       y="0"
       width="54"
       height="55"><rect
         width="38.1138"
         height="38.1138"
         transform="matrix(-0.793464,-0.608617,-0.608617,0.793464,53.7764,24.1433)"
         fill="#d9d9d9"
         id="rect8735"
         x="0"
         y="0" /></mask><mask
       id="mask0_717_7267-4"
       maskUnits="userSpaceOnUse"
       x="0"
       y="0"
       width="18"
       height="18"><rect
         id="Bounding box-3"
         width="18"
         height="18"
         fill="#d9d9d9"
         x="0"
         y="0" /></mask><mask
       id="mask0_1244_382-6"
       maskUnits="userSpaceOnUse"
       x="0"
       y="0"
       width="54"
       height="55"><rect
         width="38.1138"
         height="38.1138"
         transform="matrix(-0.793464,-0.608617,-0.608617,0.793464,53.7764,24.1433)"
         fill="#d9d9d9"
         id="rect8735-5"
         x="0"
         y="0" /></mask><mask
       id="mask0_717_7267-43"
       maskUnits="userSpaceOnUse"
       x="0"
       y="0"
       width="18"
       height="18"><rect
         id="Bounding box-6"
         width="18"
         height="18"
         fill="#d9d9d9"
         x="0"
         y="0" /></mask><mask
       id="mask0_1244_382-5"
       maskUnits="userSpaceOnUse"
       x="0"
       y="0"
       width="54"
       height="55"><rect
         width="38.1138"
         height="38.1138"
         transform="matrix(-0.793464,-0.608617,-0.608617,0.793464,53.7764,24.1433)"
         fill="#d9d9d9"
         id="rect8735-9"
         x="0"
         y="0" /></mask></defs><sodipodi:namedview
     id="namedview16"
     pagecolor="#ffffff"
     bordercolor="#000000"
     borderopacity="0.25"
     inkscape:showpageshadow="2"
     inkscape:pageopacity="0.0"
     inkscape:pagecheckerboard="0"
     inkscape:deskcolor="#d1d1d1"
     showgrid="false"
     inkscape:zoom="15.008456"
     inkscape:cx="15.824413"
     inkscape:cy="20.022047"
     inkscape:window-width="1920"
     inkscape:window-height="945"
     inkscape:window-x="0"
     inkscape:window-y="0"
     inkscape:window-maximized="0"
     inkscape:current-layer="g8485" /><path
     d="m 46.002039,18.780013 c 0.0468,-0.0019 0.0926,-0.0019 0.1385,-0.0019 7.7367,0 9.3016,14.909 10.4454,25.8121 0.2948,2.8023 0.5719,5.4483 0.9275,7.52 2.1284,12.3894 8.21,21.3841 16.6865,24.6768 1.781771,0.681888 2.815875,-1.981467 1.0408,-2.6806 -7.5121,-2.9183 -12.9407,-11.1127 -14.8932,-22.4829 -0.34,-1.9786 -0.613,-4.5787 -0.9013,-7.3323 -1.2589,-11.9949 -2.9782,-28.3884 -13.2851,-28.3884 -0.0749,0 -0.15,9e-4 -0.2246,0.0019 -2.333499,0.01662 -4.568905,0.940862 -6.2328,2.577 -1.942,-5.2364 -5.0639,-9.0913996 -10.3451,-9.0913996 -0.0739,0 -0.15,10e-4 -0.2237,0.0019 -9.6807,0.1984 -11.8437,11.7706996 -13.9347,22.9611996 -0.6636,3.5529 -1.3506,7.2256 -2.2622,10.3181 -1.933847,6.871233 -5.894765,12.999634 -11.3655,17.5849 -1.553333,1.1232 0.131467,3.4532 1.6848,2.33 0.3538,-0.2546 8.69,-6.3917 12.4381,-19.1012 0.9537,-3.2328 1.6538,-6.98 2.3314,-10.6026 2.2389,-11.9832 4.35,-20.4752 11.1661,-20.6147 0.0478,-9e-4 0.0927,-0.0019 0.14,-0.0019 4.1777,0 6.6633,3.8831 8.2215,8.9522 -2.9928,4.9345 -4.287,12.6327 -5.5521,20.18 -0.6655,3.9685 -1.3534,8.0727 -2.2688,11.5339 -3.4767,13.1395 -11.336,19.6388 -11.4156,19.7032 -1.491333,1.204266 0.315067,3.441266 1.8064,2.237 0.351,-0.2836 8.6577,-7.1021 12.3885,-21.2053 0.95,-3.59 1.6483,-7.761 2.325,-11.7941 0.9906,-5.9122 2.0005,-11.9269 3.7921,-16.3367 0.735011,3.982032 1.269949,7.998405 1.6028,12.034 0.1563,1.608 0.3042,3.1271 0.4661,4.4019 1.2701,10.0094 3.0784,19.2278 11.136,22.0632 1.817481,0.655789 2.782252,-2.085224 0.9547,-2.7124 -5.9275,-2.0854 -7.82,-8.536 -9.238,-19.7124 -0.1572,-1.2327 -0.3023,-2.7312 -0.4567,-4.3176 -0.380634,-5.246337 -1.174259,-10.454503 -2.3735,-15.5761 1.191011,-1.76522 3.152786,-2.856238 5.2807,-2.9368 z"
     id="path5849" /><g
     id="g8485"
     transform="translate(-0.67138885,-52.354491)"
     style="fill:#000000;fill-opacity:1"><path
       d="m 1.591639,53.533485 c -0.74045256,-2.6e-5 -0.5479139,0.530426 -0.5479139,1.052242 V 95.16431 c -1.541e-4,0.521893 0.6001679,0.94502 1.3407293,0.944994 H 62.242711 c 1.800455,0.0092 1.769963,-0.953187 -0.03049,-0.944023 L 2.1393475,95.294209 2.1088613,54.650187 c -3.93e-5,-0.521748 0.2231442,-1.116629 -0.5172102,-1.11671 z"
       id="path8467"
       style="fill:#000000;fill-opacity:1;stroke-width:0.587122"
       sodipodi:nodetypes="csccccccc" /><path
       d="m 30.506469,63.557076 c 0.02742,-9.37e-4 0.595126,-9.37e-4 0.622015,-9.37e-4 4.532348,0 5.011348,7.145866 5.681414,12.519756 0.172701,1.381191 0.231911,2.887784 0.440231,3.908877 1.246869,6.106455 4.809618,10.539736 9.77536,12.162634 1.043805,0.336086 1.289021,-0.430545 0.249139,-0.775132 -4.400772,-1.438363 -7.941563,-5.901922 -9.085384,-11.506034 -0.199182,-0.975208 -0.187923,-2.580529 -0.356816,-3.937715 -0.737495,-5.912014 -1.209751,-13.203616 -7.247786,-13.203616 -0.04388,0 -0.01272,-0.0038 -0.05642,-0.0034 -1.367021,0.0081 -3.180114,0.979778 -4.154864,1.786193 -1.461282,-3.138401 -2.214943,-5.345345 -5.308799,-5.345345 -0.04329,0 0.0071,-0.0067 -0.03613,-0.0063 -5.671191,0.09779 -7.878945,8.929331 -8.20808,10.940207 -0.388753,2.001445 -0.733839,2.493851 -1.267875,4.125347 -1.132895,3.386674 -4.536371,6.920137 -7.7412621,9.180111 -0.909701,0.553636 -0.4135945,1.116949 0.4961066,0.563311 0.2072647,-0.125479 5.7121525,-3.019274 7.9078815,-9.283497 0.5587,-1.593373 0.983148,-2.388207 1.380102,-4.173704 1.311602,-5.906246 3.255994,-10.61298 7.249033,-10.681736 0.028,-4.43e-4 0.0593,6.41e-4 0.08701,6.41e-4 2.447399,0 3.999376,2.786689 4.912208,5.285133 -1.753256,2.432102 -2.797321,5.873209 -3.538449,9.593101 -0.389865,1.955984 -0.832557,3.542122 -1.36882,5.248068 -1.083873,2.029468 -6.90801,6.980968 -6.954642,7.012709 -0.873514,0.593569 -0.434731,1.24942 0.438784,0.655853 0.205625,-0.139782 1.435424,-1.184919 7.035443,-7.222905 0.556534,-1.769429 1.442046,-3.584986 1.838473,-5.57281 0.580317,-2.913988 1.530271,-8.554103 3.072538,-9.14484 0.977543,1.864043 0.916417,4.03057 1.111409,6.019623 0.09156,0.792547 0.373549,3.579194 0.468393,4.207514 0.744055,4.933405 1.217379,8.16216 5.976786,9.9541 1.064726,0.323223 0.848547,-0.534715 -0.222077,-0.843836 -3.472475,-1.027846 -4.346739,-4.601636 -5.177438,-10.110229 -0.0921,-0.607538 -0.177096,-1.346115 -0.267548,-2.128015 -0.222984,-2.585801 -0.454491,-5.100658 -1.157037,-7.624977 0.697724,-0.870035 2.160518,-1.558513 3.407102,-1.59822 z"
       id="path8469"
       style="fill:#000000;fill-opacity:1;stroke-width:0.537344"
       sodipodi:nodetypes="csccccccsccsccccccccsccccccccccccccccc" /><text
       x="0"
       y="115"
       fill="#000000"
       font-size="5px"
       font-weight="bold"
       font-family="'Helvetica Neue', Helvetica, Arial-Unicode, Arial, Sans-serif"
       id="text8471"
       style="fill:#000000;fill-opacity:1">Created by Aidan Stonehouse</text><text
       x="0"
       y="120"
       fill="#000000"
       font-size="5px"
       font-weight="bold"
       font-family="'Helvetica Neue', Helvetica, Arial-Unicode, Arial, Sans-serif"
       id="text8473"
       style="fill:#000000;fill-opacity:1">from the Noun Project</text><rect
       style="fill:#d53533;fill-opacity:1;stroke:none;stroke-width:0.83952;stroke-opacity:0.446078"
       id="rect9732"
       width="0.60596853"
       height="6.6464944"
       x="20.749094"
       y="56.585861" /><rect
       style="fill:#d53533;fill-opacity:1;stroke:none;stroke-width:0.83952;stroke-opacity:0.446078"
       id="rect9734"
       width="0.60596853"
       height="6.6464944"
       x="20.749094"
       y="64.585869" /><rect
       style="fill:#d53533;fill-opacity:1;stroke:none;stroke-width:0.83952;stroke-opacity:0.446078"
       id="rect9736"
       width="0.60596853"
       height="6.6464944"
       x="20.749094"
       y="72.585869" /><rect
       style="fill:#d53533;fill-opacity:1;stroke:none;stroke-width:0.694754;stroke-opacity:0.446078"
       id="rect9740"
       width="0.60596853"
       height="4.5519171"
       x="20.749094"
       y="88.585869" /><rect
       style="fill:#007c70;fill-opacity:1;stroke:none;stroke-width:0.757062;stroke-opacity:0.446078"
       id="rect9742"
       width="0.49277714"
       height="6.6464944"
       x="30.800751"
       y="56.585861" /><rect
       style="fill:#007c70;fill-opacity:1;stroke:none;stroke-width:0.757062;stroke-opacity:0.446078"
       id="rect9744"
       width="0.49277714"
       height="6.6464944"
       x="30.800751"
       y="64.585869" /><rect
       style="fill:#007c70;fill-opacity:1;stroke:none;stroke-width:0.757062;stroke-opacity:0.446078"
       id="rect9746"
       width="0.49277714"
       height="6.6464944"
       x="30.800751"
       y="72.585869" /><rect
       style="fill:#007c70;fill-opacity:1;stroke:none;stroke-width:0.626516;stroke-opacity:0.446078"
       id="rect9750"
       width="0.49277714"
       height="4.5519171"
       x="30.800751"
       y="88.585869" /><path
       d="m 40.641519,67.205694 c 0.02742,-9.37e-4 0.595126,-9.37e-4 0.622015,-9.37e-4 4.532348,0 5.011348,7.145866 5.681414,12.519756 0.172701,1.381191 0.231911,2.887784 0.440231,3.908877 1.246869,6.106455 4.809618,10.539736 9.77536,12.162634 1.043805,0.336086 1.289021,-0.430545 0.249139,-0.775132 C 53.008906,93.582529 49.468115,89.11897 48.324294,83.514858 48.125112,82.53965 48.136371,80.934329 47.967478,79.577143 47.229983,73.665129 46.757727,66.373527 40.719692,66.373527 c -0.04388,0 -0.01272,-0.0038 -0.05642,-0.0034 -1.367021,0.0081 -3.246967,0.750881 -4.221717,1.557296 -1.461282,-3.138401 -2.14809,-5.116448 -5.241946,-5.116448 -0.04329,0 0.0071,-0.0067 -0.03613,-0.0063 -5.671191,0.09779 -7.824575,7.556117 -8.15371,9.566993 -0.388753,2.001445 -0.788209,3.867065 -1.322245,5.498561 -1.132895,3.386674 -4.536371,6.920137 -7.741262,9.180111 -0.909701,0.553636 -0.453297,0.878733 0.456404,0.325095 3.184961,-3.261986 4.9181,-2.939868 7.947584,-9.045281 0.5587,-1.593373 0.733421,-3.534305 1.130375,-5.319802 1.311602,-5.906246 3.505721,-9.466882 7.49876,-9.535638 0.028,-4.43e-4 0.0593,6.41e-4 0.08701,6.41e-4 2.447399,0 3.713484,2.433528 4.626316,4.931972 -1.753256,2.432102 -2.511429,6.22637 -3.252557,9.946262 -0.389865,1.955984 -0.792854,3.978851 -1.329117,5.684797 -2.036736,6.476161 -6.947713,9.28372 -6.994345,9.315461 -0.873514,0.593569 -0.434731,1.24942 0.438784,0.655853 0.205625,-0.139782 5.32628,-2.733322 7.511874,-9.684468 0.556534,-1.769429 0.965615,-3.862904 1.362042,-5.850728 0.580317,-2.913988 1.530271,-8.554103 3.072538,-9.14484 0.977543,1.864043 0.916417,4.03057 1.111409,6.019623 0.09156,0.792547 0.373549,3.579194 0.468393,4.207514 0.744055,4.933405 2.566061,7.740697 5.492103,10.649514 1.064726,0.323223 0.911767,-0.450422 -0.222077,-0.843836 -2.43989,-2.629406 -4.473178,-3.779783 -5.303877,-9.288376 -0.0921,-0.607538 -0.219242,-2.31548 -0.309694,-3.09738 -0.222984,-2.585801 -0.311962,-5.680324 -1.014508,-8.204643 0.697724,-0.870035 2.671257,-1.526749 3.917841,-1.566456 z"
       id="path314"
       style="fill:#000000;fill-opacity:1;stroke-width:0.537344"
       sodipodi:nodetypes="csccccccsccsccccccccsccccccccccccccccc" /><rect
       style="fill:#007c70;fill-opacity:1;stroke:none;stroke-width:0.757062;stroke-opacity:0.446078"
       id="rect9748"
       width="0.49277714"
       height="6.6464944"
       x="30.807871"
       y="80.280296" /><rect
       style="fill:#d53533;fill-opacity:1;stroke:none;stroke-width:0.83952;stroke-opacity:0.446078"
       id="rect9738"
       width="0.60596853"
       height="6.6464944"
       x="20.75691"
       y="80.613441" /><rect
       style="fill:#ffc107;fill-opacity:1;stroke:none;stroke-width:0.757062;stroke-opacity:0.446078"
       id="rect536"
       width="0.49277714"
       height="6.6464944"
       x="40.800751"
       y="56.585861" /><rect
       style="fill:#ffc107;fill-opacity:1;stroke:none;stroke-width:0.757062;stroke-opacity:0.446078"
       id="rect538"
       width="0.49277714"
       height="6.6464944"
       x="40.800751"
       y="64.585869" /><rect
       style="fill:#ffc107;fill-opacity:1;stroke:none;stroke-width:0.757062;stroke-opacity:0.446078"
       id="rect540"
       width="0.49277714"
       height="6.6464944"
       x="40.800751"
       y="72.585869" /><rect
       style="fill:#ffc107;fill-opacity:1;stroke:none;stroke-width:0.626516;stroke-opacity:0.446078"
       id="rect542"
       width="0.49277714"
       height="4.5519171"
       x="40.800751"
       y="88.585869" /><rect
       style="fill:#ffc107;fill-opacity:1;stroke:none;stroke-width:0.757062;stroke-opacity:0.446078"
       id="rect544"
       width="0.49277714"
       height="6.6464944"
       x="40.807869"
       y="80.280296" /></g></svg>
