<?xml version="1.0" encoding="UTF-8" standalone="no"?>
<svg
   width="63"
   height="45"
   viewBox="0 0 63 45"
   fill="none"
   version="1.1"
   id="svg14"
   sodipodi:docname="stattest_ttest.svg"
   inkscape:version="1.2.2 (b0a8486, 2022-12-01)"
   xml:space="preserve"
   xmlns:inkscape="http://www.inkscape.org/namespaces/inkscape"
   xmlns:sodipodi="http://sodipodi.sourceforge.net/DTD/sodipodi-0.dtd"
   xmlns="http://www.w3.org/2000/svg"
   xmlns:svg="http://www.w3.org/2000/svg"><defs
     id="defs18"><mask
       id="mask0_717_7267"
       maskUnits="userSpaceOnUse"
       x="0"
       y="0"
       width="18"
       height="18"><rect
         id="Bounding box"
         width="18"
         height="18"
         fill="#d9d9d9"
         x="0"
         y="0" /></mask><mask
       id="mask0_1244_382"
       maskUnits="userSpaceOnUse"
       x="0"
       y="0"
       width="54"
       height="55"><rect
         width="38.1138"
         height="38.1138"
         transform="matrix(-0.793464,-0.608617,-0.608617,0.793464,53.7764,24.1433)"
         fill="#d9d9d9"
         id="rect8735"
         x="0"
         y="0" /></mask><mask
       id="mask0_717_7267-4"
       maskUnits="userSpaceOnUse"
       x="0"
       y="0"
       width="18"
       height="18"><rect
         id="Bounding box-3"
         width="18"
         height="18"
         fill="#d9d9d9"
         x="0"
         y="0" /></mask><mask
       id="mask0_1244_382-6"
       maskUnits="userSpaceOnUse"
       x="0"
       y="0"
       width="54"
       height="55"><rect
         width="38.1138"
         height="38.1138"
         transform="matrix(-0.793464,-0.608617,-0.608617,0.793464,53.7764,24.1433)"
         fill="#d9d9d9"
         id="rect8735-5"
         x="0"
         y="0" /></mask><mask
       id="mask0_717_7267-43"
       maskUnits="userSpaceOnUse"
       x="0"
       y="0"
       width="18"
       height="18"><rect
         id="Bounding box-6"
         width="18"
         height="18"
         fill="#d9d9d9"
         x="0"
         y="0" /></mask><mask
       id="mask0_1244_382-5"
       maskUnits="userSpaceOnUse"
       x="0"
       y="0"
       width="54"
       height="55"><rect
         width="38.1138"
         height="38.1138"
         transform="matrix(-0.793464,-0.608617,-0.608617,0.793464,53.7764,24.1433)"
         fill="#d9d9d9"
         id="rect8735-9"
         x="0"
         y="0" /></mask></defs><sodipodi:namedview
     id="namedview16"
     pagecolor="#ffffff"
     bordercolor="#000000"
     borderopacity="0.25"
     inkscape:showpageshadow="2"
     inkscape:pageopacity="0.0"
     inkscape:pagecheckerboard="0"
     inkscape:deskcolor="#d1d1d1"
     showgrid="false"
     inkscape:zoom="14.800124"
     inkscape:cx="23.952503"
     inkscape:cy="22.567379"
     inkscape:window-width="1920"
     inkscape:window-height="1052"
     inkscape:window-x="0"
     inkscape:window-y="0"
     inkscape:window-maximized="1"
     inkscape:current-layer="g8485" /><path
     d="m 46.002039,18.780013 c 0.0468,-0.0019 0.0926,-0.0019 0.1385,-0.0019 7.7367,0 9.3016,14.909 10.4454,25.8121 0.2948,2.8023 0.5719,5.4483 0.9275,7.52 2.1284,12.3894 8.21,21.3841 16.6865,24.6768 1.781771,0.681888 2.815875,-1.981467 1.0408,-2.6806 -7.5121,-2.9183 -12.9407,-11.1127 -14.8932,-22.4829 -0.34,-1.9786 -0.613,-4.5787 -0.9013,-7.3323 -1.2589,-11.9949 -2.9782,-28.3884 -13.2851,-28.3884 -0.0749,0 -0.15,9e-4 -0.2246,0.0019 -2.333499,0.01662 -4.568905,0.940862 -6.2328,2.577 -1.942,-5.2364 -5.0639,-9.0913996 -10.3451,-9.0913996 -0.0739,0 -0.15,10e-4 -0.2237,0.0019 -9.6807,0.1984 -11.8437,11.7706996 -13.9347,22.9611996 -0.6636,3.5529 -1.3506,7.2256 -2.2622,10.3181 -1.933847,6.871233 -5.894765,12.999634 -11.3655,17.5849 -1.553333,1.1232 0.131467,3.4532 1.6848,2.33 0.3538,-0.2546 8.69,-6.3917 12.4381,-19.1012 0.9537,-3.2328 1.6538,-6.98 2.3314,-10.6026 2.2389,-11.9832 4.35,-20.4752 11.1661,-20.6147 0.0478,-9e-4 0.0927,-0.0019 0.14,-0.0019 4.1777,0 6.6633,3.8831 8.2215,8.9522 -2.9928,4.9345 -4.287,12.6327 -5.5521,20.18 -0.6655,3.9685 -1.3534,8.0727 -2.2688,11.5339 -3.4767,13.1395 -11.336,19.6388 -11.4156,19.7032 -1.491333,1.204266 0.315067,3.441266 1.8064,2.237 0.351,-0.2836 8.6577,-7.1021 12.3885,-21.2053 0.95,-3.59 1.6483,-7.761 2.325,-11.7941 0.9906,-5.9122 2.0005,-11.9269 3.7921,-16.3367 0.735011,3.982032 1.269949,7.998405 1.6028,12.034 0.1563,1.608 0.3042,3.1271 0.4661,4.4019 1.2701,10.0094 3.0784,19.2278 11.136,22.0632 1.817481,0.655789 2.782252,-2.085224 0.9547,-2.7124 -5.9275,-2.0854 -7.82,-8.536 -9.238,-19.7124 -0.1572,-1.2327 -0.3023,-2.7312 -0.4567,-4.3176 -0.380634,-5.246337 -1.174259,-10.454503 -2.3735,-15.5761 1.191011,-1.76522 3.152786,-2.856238 5.2807,-2.9368 z"
     id="path5849" /><g
     id="g8485"
     transform="translate(-0.67138885,-52.354491)"
     style="fill:#000000;fill-opacity:1"><path
       d="m 1.591639,53.533485 c -0.74045256,-2.6e-5 -0.5479139,0.530426 -0.5479139,1.052242 V 95.16431 c -1.541e-4,0.521893 0.6001679,0.94502 1.3407293,0.944994 H 62.242711 c 1.800455,0.0092 1.769963,-0.953187 -0.03049,-0.944023 L 2.1393475,95.294209 2.1088613,54.650187 c -3.93e-5,-0.521748 0.2231442,-1.116629 -0.5172102,-1.11671 z"
       id="path8467"
       style="fill:#000000;fill-opacity:1;stroke-width:0.587122"
       sodipodi:nodetypes="csccccccc" /><path
       d="m 37.396636,64.232746 c 0.03274,-9.37e-4 0.710494,-9.37e-4 0.742595,-9.37e-4 5.410963,0 5.982819,7.145866 6.78278,12.519756 0.20618,1.381191 0.276868,2.887784 0.525572,3.908877 1.48858,6.106455 5.741983,10.539736 11.670355,12.162634 1.246151,0.336086 1.538904,-0.430545 0.297436,-0.775132 -5.25388,-1.438363 -9.481069,-5.901922 -10.846625,-11.506034 -0.237794,-0.975208 -0.224352,-2.580529 -0.425986,-3.937715 -0.880461,-5.912014 -1.444266,-13.203616 -8.6528,-13.203616 -0.05239,0 -0.01518,-0.0038 -0.06736,-0.0034 -1.632023,0.0081 -3.796592,0.979778 -4.960302,1.786193 -1.744557,-3.138401 -2.644319,-5.345345 -6.337932,-5.345345 -0.05168,0 0.0085,-0.0067 -0.04313,-0.0063 -6.770576,0.09779 -9.406312,8.929331 -9.799251,10.940207 -0.464115,2.001445 -0.876097,2.493851 -1.513659,4.125347 -1.352511,3.386674 -5.4157654,6.920137 -9.2419383,9.180111 -1.0860504,0.553636 -0.4937715,1.116949 0.592279,0.563311 0.2474439,-0.125479 6.8194773,-3.019274 9.4408583,-9.283497 0.667006,-1.593373 1.173735,-2.388207 1.64764,-4.173704 1.565862,-5.906246 3.887183,-10.61298 8.654289,-10.681736 0.03343,-4.43e-4 0.07079,6.41e-4 0.103877,6.41e-4 2.921838,0 4.433359,2.433528 5.523147,4.931972 -2.093131,2.432102 -2.99828,6.22637 -3.883078,9.946262 -0.465443,1.955984 -0.946553,3.978851 -1.586773,5.684797 -2.431565,6.476161 -8.294556,9.28372 -8.350228,9.315461 -1.042848,0.593569 -0.519005,1.24942 0.523844,0.655853 0.245486,-0.139782 6.358802,-2.733322 8.968083,-9.684468 0.66442,-1.769429 1.152803,-3.862904 1.62608,-5.850728 0.692814,-2.913988 1.82692,-8.554103 3.668162,-9.14484 1.167044,1.864043 1.094068,4.03057 1.326861,6.019623 0.109315,0.792547 0.445962,3.579194 0.559192,4.207514 0.888294,4.933405 1.453374,8.16216 7.135412,9.9541 1.271127,0.323223 1.013041,-0.534715 -0.265128,-0.843836 -4.145629,-1.027846 -5.189372,-4.601636 -6.181106,-10.110229 -0.10995,-0.607538 -0.211427,-1.346115 -0.319413,-2.128015 -0.266211,-2.585801 -0.542597,-5.100658 -1.381334,-7.624977 0.832981,-0.870035 2.579344,-1.558513 4.067583,-1.59822 z"
       id="path8469"
       style="fill:#000000;fill-opacity:1;stroke-width:0.587122"
       sodipodi:nodetypes="csccccccsccsccccccccscccccccccccccccc" /><text
       x="0"
       y="115"
       fill="#000000"
       font-size="5px"
       font-weight="bold"
       font-family="'Helvetica Neue', Helvetica, Arial-Unicode, Arial, Sans-serif"
       id="text8471"
       style="fill:#000000;fill-opacity:1">Created by Aidan Stonehouse</text><text
       x="0"
       y="120"
       fill="#000000"
       font-size="5px"
       font-weight="bold"
       font-family="'Helvetica Neue', Helvetica, Arial-Unicode, Arial, Sans-serif"
       id="text8473"
       style="fill:#000000;fill-opacity:1">from the Noun Project</text><rect
       style="fill:#d53533;fill-opacity:1;stroke:none;stroke-width:0.91729;stroke-opacity:0.446078"
       id="rect9732"
       width="0.72343808"
       height="6.6464944"
       x="25.747753"
       y="57.261532" /><rect
       style="fill:#d53533;fill-opacity:1;stroke:none;stroke-width:0.91729;stroke-opacity:0.446078"
       id="rect9734"
       width="0.72343808"
       height="6.6464944"
       x="25.747753"
       y="65.261536" /><rect
       style="fill:#d53533;fill-opacity:1;stroke:none;stroke-width:0.91729;stroke-opacity:0.446078"
       id="rect9736"
       width="0.72343808"
       height="6.6464944"
       x="25.747753"
       y="73.261536" /><rect
       style="fill:#d53533;fill-opacity:1;stroke:none;stroke-width:0.91729;stroke-opacity:0.446078"
       id="rect9738"
       width="0.72343808"
       height="6.6464944"
       x="25.747753"
       y="81.261536" /><rect
       style="fill:#d53533;fill-opacity:1;stroke:none;stroke-width:0.759114;stroke-opacity:0.446078"
       id="rect9740"
       width="0.72343808"
       height="4.5519171"
       x="25.747753"
       y="89.261536" /><rect
       style="fill:#007c70;fill-opacity:1;stroke:none;stroke-width:0.827193;stroke-opacity:0.446078"
       id="rect9742"
       width="0.5883041"
       height="6.6464944"
       x="37.747967"
       y="57.261532" /><rect
       style="fill:#007c70;fill-opacity:1;stroke:none;stroke-width:0.827193;stroke-opacity:0.446078"
       id="rect9744"
       width="0.5883041"
       height="6.6464944"
       x="37.747967"
       y="65.261536" /><rect
       style="fill:#007c70;fill-opacity:1;stroke:none;stroke-width:0.827193;stroke-opacity:0.446078"
       id="rect9746"
       width="0.5883041"
       height="6.6464944"
       x="37.747967"
       y="73.261536" /><rect
       style="fill:#007c70;fill-opacity:1;stroke:none;stroke-width:0.827193;stroke-opacity:0.446078"
       id="rect9748"
       width="0.5883041"
       height="6.6464944"
       x="37.747967"
       y="81.261536" /><rect
       style="fill:#007c70;fill-opacity:1;stroke:none;stroke-width:0.684554;stroke-opacity:0.446078"
       id="rect9750"
       width="0.5883041"
       height="4.5519171"
       x="37.747967"
       y="89.261536" /></g></svg>
