<svg width="18" height="18" viewBox="0 0 18 18" fill="none" xmlns="http://www.w3.org/2000/svg">
<g id="table_chart_view">
<mask id="mask0_759_3740" style="mask-type:alpha" maskUnits="userSpaceOnUse" x="0" y="0" width="18" height="18">
<rect id="Bounding box" width="18" height="18" fill="#D9D9D9"/>
</mask>
<g mask="url(#mask0_759_3740)">
<path id="table_chart_view_2" d="M5.54998 16.2404L4.75961 15.45L9.67498 10.5231L12.3 13.1481L16.1812 9.26683L16.9831 10.0687L12.3 14.7404L9.67498 12.1154L5.54998 16.2404ZM3.23078 15.375C2.85193 15.375 2.53125 15.2437 2.26875 14.9812C2.00625 14.7187 1.875 14.398 1.875 14.0192V3.98078C1.875 3.60193 2.00625 3.28125 2.26875 3.01875C2.53125 2.75625 2.85193 2.625 3.23078 2.625H13.2692C13.648 2.625 13.9687 2.75625 14.2312 3.01875C14.4937 3.28125 14.625 3.60193 14.625 3.98078V7.13078H2.99998V14.0192C2.99998 14.0769 3.02402 14.1298 3.07209 14.1779C3.12018 14.2259 3.17308 14.25 3.23078 14.25V15.375ZM2.99998 6.00579H13.5V3.98078C13.5 3.92308 13.4759 3.87018 13.4279 3.82209C13.3798 3.77402 13.3269 3.74998 13.2692 3.74998H3.23078C3.17308 3.74998 3.12018 3.77402 3.07209 3.82209C3.02402 3.87018 2.99998 3.92308 2.99998 3.98078V6.00579Z" fill="#1C1B1F"/>
</g>
</g>
</svg>
