<svg width="18" height="18" viewBox="0 0 18 18" fill="none" xmlns="http://www.w3.org/2000/svg">
<g id="table_view">
<mask id="mask0_717_7267" style="mask-type:alpha" maskUnits="userSpaceOnUse" x="0" y="0" width="18" height="18">
<rect id="Bounding box" width="18" height="18" fill="#D9D9D9"/>
</mask>
<g mask="url(#mask0_717_7267)">
<path id="table_view_2" d="M6.98077 15.375C6.60674 15.375 6.28727 15.2425 6.02237 14.9776C5.75746 14.7127 5.625 14.3932 5.625 14.0192V6.98078C5.625 6.60674 5.75746 6.28727 6.02237 6.02237C6.28727 5.75746 6.60674 5.625 6.98077 5.625H14.0192C14.3932 5.625 14.7127 5.75746 14.9776 6.02237C15.2425 6.28727 15.375 6.60674 15.375 6.98078V14.0192C15.375 14.3932 15.2425 14.7127 14.9776 14.9776C14.7127 15.2425 14.3932 15.375 14.0192 15.375H6.98077ZM6.74998 8.49519H14.25V6.98078C14.25 6.91346 14.2283 6.85817 14.1851 6.81489C14.1418 6.77162 14.0865 6.74998 14.0192 6.74998H6.98077C6.91346 6.74998 6.85817 6.77162 6.81489 6.81489C6.77162 6.85817 6.74998 6.91346 6.74998 6.98078V8.49519ZM9.62016 11.3798H11.3798V9.62016H9.62016V11.3798ZM9.62016 14.25H11.3798V12.5048H9.62016V14.25ZM6.74998 11.3798H8.49519V9.62016H6.74998V11.3798ZM12.5048 11.3798H14.25V9.62016H12.5048V11.3798ZM6.98077 14.25H8.49519V12.5048H6.74998V14.0192C6.74998 14.0865 6.77162 14.1418 6.81489 14.1851C6.85817 14.2283 6.91346 14.25 6.98077 14.25ZM12.5048 14.25H14.0192C14.0865 14.25 14.1418 14.2283 14.1851 14.1851C14.2283 14.1418 14.25 14.0865 14.25 14.0192V12.5048H12.5048V14.25ZM3.98078 12.375C3.60674 12.375 3.28727 12.2425 3.02237 11.9776C2.75746 11.7127 2.625 11.3932 2.625 11.0192V3.98078C2.625 3.60674 2.75746 3.28727 3.02237 3.02237C3.28727 2.75746 3.60674 2.625 3.98078 2.625H11.0192C11.3932 2.625 11.7127 2.75746 11.9776 3.02237C12.2425 3.28727 12.375 3.60674 12.375 3.98078V4.875H11.25V3.98078C11.25 3.91346 11.2283 3.85817 11.1851 3.81489C11.1418 3.77162 11.0865 3.74998 11.0192 3.74998H3.98078C3.91346 3.74998 3.85817 3.77162 3.81489 3.81489C3.77162 3.85817 3.74998 3.91346 3.74998 3.98078V11.0192C3.74998 11.0865 3.77162 11.1418 3.81489 11.1851C3.85817 11.2283 3.91346 11.25 3.98078 11.25H4.875V12.375H3.98078Z" fill="#1C1B1F"/>
</g>
</g>
</svg>
