<svg width="14" height="14" viewBox="0 0 14 14" fill="none" xmlns="http://www.w3.org/2000/svg">
<mask id="mask0_742_218" style="mask-type:alpha" maskUnits="userSpaceOnUse" x="0" y="0" width="14" height="14">
<rect width="14" height="14" fill="#D9D9D9"/>
</mask>
<g mask="url(#mask0_742_218)">
<path d="M3.83068 11.3974L4.41402 9.06404H2.19287L2.41161 8.18906H4.63277L5.22731 5.81084H3.00617L3.2249 4.93587H5.44606L6.0294 2.60254H6.89315L6.30982 4.93587H8.72168L9.30502 2.60254H10.1688L9.58544 4.93587H11.8066L11.5878 5.81084H9.36669L8.77214 8.18906H10.9933L10.7746 9.06404H8.55339L7.97006 11.3974H7.1063L7.68964 9.06404H5.27777L4.69444 11.3974H3.83068ZM5.49652 8.18906H7.90839L8.50293 5.81084H6.09107L5.49652 8.18906Z" fill="#1C1B1F"/>
</g>
</svg>
