<?xml version="1.0" encoding="UTF-8" standalone="no"?>
<!-- Created with Inkscape (http://www.inkscape.org/) -->

<svg
   version="1.1"
   id="svg1"
   width="772.87488"
   height="114.06326"
   viewBox="0 0 772.87487 114.06326"
   sodipodi:docname="logo_yq.svg"
   inkscape:version="1.4 (e7c3feb1, 2024-10-09)"
   xmlns:inkscape="http://www.inkscape.org/namespaces/inkscape"
   xmlns:sodipodi="http://sodipodi.sourceforge.net/DTD/sodipodi-0.dtd"
   xmlns="http://www.w3.org/2000/svg"
   xmlns:svg="http://www.w3.org/2000/svg">
  <defs
     id="defs1" />
  <sodipodi:namedview
     id="namedview1"
     pagecolor="#505050"
     bordercolor="#eeeeee"
     borderopacity="1"
     inkscape:showpageshadow="0"
     inkscape:pageopacity="0"
     inkscape:pagecheckerboard="0"
     inkscape:deskcolor="#505050"
     inkscape:zoom="1.0410336"
     inkscape:cx="445.71088"
     inkscape:cy="50.430649"
     inkscape:window-width="1200"
     inkscape:window-height="1022"
     inkscape:window-x="0"
     inkscape:window-y="30"
     inkscape:window-maximized="0"
     inkscape:current-layer="g1" />
  <g
     inkscape:groupmode="layer"
     inkscape:label="Image"
     id="g1"
     transform="translate(14.408757,12.487589)">
    <path
       style="fill:#000000;stroke-width:1.23588"
       d="m 251.95236,85.579602 -3.60849,-4.132682 -4.11959,1.312652 c -6.68891,2.131336 -17.7773,1.258298 -24.60624,-1.937352 -13.7457,-6.432395 -21.09694,-19.411984 -21.09694,-37.249446 0,-17.82394 7.35236,-30.817567 21.0703,-37.2369679 13.86432,-6.48789536 32.72129,-2.5701647 41.85434,8.6956679 6.19443,7.640961 8.9758,16.322246 9.01231,28.129345 0.0393,12.717138 -2.98202,22.076046 -9.57122,29.647797 l -2.85643,3.282373 5.31814,6.810647 5.31814,6.810648 h -6.55292 -6.55292 z M 239.48125,70.910256 c 0.73468,-0.466557 -0.37221,-2.472043 -3.91363,-7.090809 -2.7159,-3.54213 -4.93801,-6.580577 -4.93801,-6.752104 0,-0.171516 2.74084,-0.31185 6.09077,-0.31185 h 6.09077 l 3.14908,4.129346 c 1.73199,2.271138 3.533,4.002766 4.00224,3.848059 1.80761,-0.595979 5.40424,-9.402423 6.20237,-15.186698 0.91853,-6.656793 0.0188,-15.559303 -2.08019,-20.58293 -4.26327,-10.203417 -14.23458,-15.187103 -25.14799,-12.569017 -3.38835,0.812851 -5.29798,1.971014 -8.66221,5.25349 -5.37706,5.246417 -7.77108,12.00082 -7.77108,21.925031 0,14.205842 5.94735,24.041676 16.47306,27.243456 2.77467,0.844019 9.23281,0.901822 10.50482,0.09405 z M 85.845969,82.628878 C 80.492819,80.661283 74.721459,74.964447 71.988064,68.949904 68.682494,61.67632 68.114534,49.518096 70.71931,41.790006 c 2.680215,-7.951933 6.365373,-12.393474 12.985905,-15.651327 4.975948,-2.448571 6.320659,-2.746542 12.19865,-2.703063 8.193905,0.06056 13.791085,2.295705 18.475625,7.377827 6.26611,6.797931 8.93406,15.455081 8.07152,26.191092 -0.90348,11.245639 -5.55435,19.359435 -13.72509,23.944535 -3.95781,2.220962 -5.38585,2.548594 -11.946842,2.740959 -5.167373,0.151494 -8.51893,-0.173802 -10.933109,-1.061151 z m 15.992541,-7.799574 c 3.13033,-1.182712 6.65952,-4.637329 8.60809,-8.426202 3.5578,-6.917934 3.22594,-19.095104 -0.71787,-26.341165 -6.65762,-12.232253 -23.370984,-11.276164 -28.861292,1.651024 -5.070863,11.93961 -1.594976,27.736053 7.115935,32.33895 3.352953,1.77172 10.205782,2.156227 13.855137,0.777393 z m 50.51872,8.355077 c -5.07535,-1.162567 -7.10794,-2.326172 -10.03339,-5.743911 -4.67083,-5.456816 -4.99261,-7.338257 -5.40476,-31.601908 l -0.37437,-22.039857 h 5.02255 5.02254 l 0.001,20.803977 c 0.001,18.178132 0.18311,21.160556 1.44187,23.629114 4.96612,9.739176 20.38651,9.063273 25.0002,-1.095792 1.35883,-2.992052 1.5358,-5.655743 1.55183,-23.357246 l 0.018,-19.980053 h 4.94352 4.94352 V 53.45981 83.120919 h -4.53155 -4.53156 v -5.41953 -5.419529 l -2.71622,3.56571 c -4.73007,6.209405 -12.71291,9.086965 -20.35354,7.336811 z m 147.48161,0 c -4.71112,-1.079133 -6.85573,-2.221184 -9.63929,-5.133139 -5.29448,-5.538681 -5.56,-6.979308 -5.8609,-31.800725 l -0.27217,-22.451812 h 7.06227 7.06226 l 0.005,20.392009 c 0.005,18.45115 0.15047,20.611986 1.52929,22.703168 2.42978,3.685109 5.01162,5.045627 9.56759,5.041746 5.12417,-0.0049 8.7391,-2.015052 11.06587,-6.154989 1.616,-2.875273 1.72549,-4.304815 1.72549,-22.526017 V 23.798705 h 7.00333 7.00332 V 53.45981 83.120919 h -6.59137 -6.59135 v -5.860553 -5.860553 l -2.67775,3.995944 c -4.37821,6.533551 -12.43575,9.611089 -20.39201,7.788624 z m 58.75272,-0.592987 c -10.61873,-3.761808 -14.45902,-18.688167 -6.93964,-26.97291 3.25586,-3.587276 7.97216,-5.30767 19.33027,-7.051212 12.25312,-1.880934 13.72039,-2.510627 13.72039,-5.888323 0,-5.713372 -3.91092,-9.016074 -10.62793,-8.975105 -4.16559,0.02546 -9.77095,2.763019 -10.94832,5.34707 -0.71492,1.569097 -1.43942,2.044948 -2.67861,1.759311 -0.93424,-0.215327 -3.8117,-0.848938 -6.39435,-1.408 l -4.69574,-1.016474 1.28632,-2.555984 c 1.83467,-3.64561 5.94647,-7.792604 9.58607,-9.668174 1.72082,-0.886769 6.0207,-2.033811 9.55529,-2.548987 11.89529,-1.733754 22.23391,2.364371 26.40711,10.467514 2.08281,4.044193 2.1076,4.322093 2.36977,26.56387 l 0.26492,22.476929 h -6.65031 -6.6503 v -4.097917 -4.097917 l -3.50167,3.496599 c -2.02953,2.026608 -4.92736,3.922571 -6.89292,4.509873 -4.48483,1.34004 -12.24824,1.180376 -16.54035,-0.340163 z m 19.46945,-10.155816 c 4.63688,-2.365559 6.64157,-6.097434 6.64157,-12.363825 0,-4.224063 -0.21967,-5.056106 -1.23229,-4.667533 -0.67774,0.260078 -4.45416,1.076599 -8.39202,1.814493 -3.93784,0.737882 -7.98227,1.654336 -8.98758,2.036557 -4.49282,1.70817 -6.55141,6.771099 -4.39299,10.804157 2.09051,3.906158 10.86633,5.18051 16.36331,2.376151 z m 114.36126,10.331619 c -3.43512,-1.225782 -5.3503,-2.548136 -7.2015,-4.972338 -2.7856,-3.647859 -3.1703,-6.617035 -3.233,-24.952988 l -0.0627,-18.332209 h -4.11959 -4.1196 v -5.355474 -5.355483 h 4.1196 4.11959 V 16.795392 9.7920758 h 7.00332 7.00333 v 7.0033162 7.003313 h 5.76742 5.76745 v 5.355483 5.355474 h -5.76745 -5.76742 v 17.655416 c 0,20.28962 -0.0145,20.244893 6.56205,20.244893 4.43709,0 4.61639,0.212683 5.44497,6.458929 l 0.53159,4.00724 -3.17961,0.525286 c -4.88699,0.807351 -9.46027,0.581951 -12.86847,-0.634229 z m 142.33992,0.07156 c -7.32441,-2.419519 -12.69937,-6.926314 -15.90108,-13.332742 -2.39191,-4.786055 -3.76888,-12.841122 -3.20779,-18.765076 1.14531,-12.092265 5.86794,-19.844257 14.89447,-24.448675 4.97033,-2.535342 6.33019,-2.860366 11.91582,-2.848007 7.33994,0.01619 11.62377,1.108423 16.19993,4.130257 7.03227,4.643694 10.88892,12.516073 11.28185,23.029082 l 0.24534,6.563892 -20.39201,0.220382 -20.39202,0.22037 v 2.197233 c 0,3.955333 3.18792,9.176232 6.94887,11.3803 6.40769,3.755158 16.10032,2.243059 19.19415,-2.994376 0.83704,-1.416985 1.90972,-2.228637 2.66541,-2.016807 0.69555,0.194973 3.39654,0.777084 6.00218,1.293571 2.60565,0.516486 4.73754,1.301962 4.73754,1.745494 0,3.432655 -6.10583,9.756095 -11.94683,12.372637 -5.06532,2.269062 -17.11474,2.947461 -22.24583,1.252465 z m 21.55837,-38.172672 c -2.01124,-12.393808 -19.68209,-14.560119 -25.27823,-3.098919 -3.06478,6.276847 -3.36342,6.125254 12.06686,6.125254 h 13.70248 z m 40.55057,38.141305 c -7.5614,-2.702065 -12.2925,-7.786943 -15.3089,-16.453622 -2.27271,-6.529918 -1.9812,-20.776185 0.55833,-27.286971 2.73046,-7.000232 8.93358,-13.052532 15.26394,-14.892815 8.68398,-2.524507 17.44249,0.05994 21.62255,6.380324 l 2.26671,3.427329 0.22456,-14.978478 0.22457,-14.9784807 h 6.98472 6.98473 V 43.572811 83.120956 h -7.00331 -7.00332 l -0.005,-4.737534 -0.005,-4.737534 -3.27157,3.81663 c -1.83387,2.139419 -4.73544,4.402376 -6.60271,5.149502 -3.96404,1.586103 -10.78799,1.675396 -14.92966,0.195368 z m 17.81126,-11.981987 c 4.05214,-2.267839 6.43817,-7.596754 6.83806,-15.271998 0.40374,-7.749348 -0.69144,-12.561776 -3.6622,-16.092313 -2.88812,-3.432359 -6.08744,-4.951391 -10.42837,-4.951391 -7.37944,0 -12.72884,6.621126 -13.54289,16.762456 -1.27072,15.83043 9.44472,25.905802 20.7954,19.553246 z M 29.593192,66.725123 V 50.329291 L 18.389464,32.326481 C 12.227401,22.424901 5.7228313,11.98979 3.9348473,9.1373131 L 0.68398991,3.9509924 6.5877863,4.1937958 12.491583,4.4365979 21.107742,18.443232 c 4.738893,7.703641 9.738347,16.205813 11.109914,18.893715 l 2.493761,4.887075 3.414303,-6.152492 C 40.003589,32.687667 45.062291,24.104066 49.367267,16.996848 L 57.194512,4.0746397 62.75597,4.0496379 c 3.058802,-0.013755 5.561458,0.1534801 5.561458,0.371624 0,0.2181438 -6.488367,10.8233321 -14.418598,23.5670841 L 39.480231,51.158813 V 67.13986 83.120919 H 34.536713 29.593192 Z M 413.53976,53.45981 V 23.798705 h 6.08342 6.08341 l 0.59081,5.516939 c 0.47937,4.476269 0.75107,5.214497 1.44037,3.913622 1.30595,-2.46469 5.75222,-6.977108 8.04782,-8.167544 5.81088,-3.013369 15.60882,-2.083592 21.27171,2.018574 2.08596,1.51106 4.11167,4.094395 5.60662,7.149946 l 2.34062,4.784065 0.31652,22.053306 0.31652,22.053306 h -7.09876 -7.09875 l -10e-4,-19.568089 c -0.001,-17.001512 -0.19022,-19.938641 -1.44185,-22.393246 -2.25915,-4.430455 -5.3541,-6.245208 -10.56421,-6.194414 -5.10657,0.04981 -8.01606,1.749499 -10.65044,6.221974 -1.49901,2.544911 -1.67235,4.565005 -1.91917,22.365686 l -0.27134,19.568089 h -6.526 -6.52601 z m 104.6378,0 V 23.798705 h 7.00331 7.00332 V 53.45981 83.120919 h -7.00332 -7.00331 z m 32.95678,5.355487 V 34.509662 h -5.35547 -5.35548 v -5.355474 -5.355483 h 5.23598 5.23598 l 0.47738,-5.694268 c 0.74354,-8.868848 3.68458,-13.3654095 10.71731,-16.3857495 2.47727,-1.06390316 11.06785,-1.32255791 15.36717,-0.462691 2.86986,0.5739709 2.82877,0.1420223 0.76259,8.0164921 -0.80385,3.0635714 -0.94751,3.1700374 -3.67948,2.7266984 -3.47194,-0.563415 -7.50492,0.736156 -8.59281,2.768904 -0.4436,0.828855 -0.80653,3.199822 -0.80653,5.268814 v 3.7618 h 6.1794 6.1794 v 5.355483 5.355474 h -6.1794 -6.1794 v 24.305635 24.305622 h -7.00332 -7.00332 z M 589.85857,53.45981 V 23.798705 h 6.59136 6.59135 V 53.45981 83.120919 h -6.59135 -6.59136 z M 521.74409,14.338453 c -3.05613,-1.306026 -4.39045,-3.433851 -4.39045,-7.0014214 0,-3.9079795 3.15302,-6.60807225 7.71655,-6.60807225 3.08871,0 4.0106,0.40258655 5.80488,2.53497425 2.74009,3.2564078 2.7007,5.8995233 -0.13274,8.9074764 -2.78702,2.958673 -5.57477,3.630047 -8.99824,2.167043 z m 71.8218,0.0592 c -2.93524,-1.25551 -4.30658,-2.769188 -4.54573,-5.0175333 -0.35278,-3.3167192 0.0564,-4.648372 2.03683,-6.6288096 2.70982,-2.70980919 7.71896,-2.77736855 10.77884,-0.1453753 6.17145,5.3084639 -0.65874,15.0473132 -8.26994,11.7917182 z"
       id="path1" />
  </g>
</svg>
