<svg width="18" height="18" viewBox="0 0 18 18" fill="none" xmlns="http://www.w3.org/2000/svg">
<path fill-rule="evenodd" clip-rule="evenodd" d="M9 1.8C7.09044 1.8 5.25909 2.55857 3.90883 3.90883C2.55857 5.25909 1.8 7.09044 1.8 9C1.8 10.9096 2.55857 12.7409 3.90883 14.0912C5.25909 15.4414 7.09044 16.2 9 16.2C10.9096 16.2 12.7409 15.4414 14.0912 14.0912C15.4414 12.7409 16.2 10.9096 16.2 9C16.2 7.09044 15.4414 5.25909 14.0912 3.90883C12.7409 2.55857 10.9096 1.8 9 1.8ZM0 9C0 4.0293 4.0293 0 9 0C13.9707 0 18 4.0293 18 9C18 13.9707 13.9707 18 9 18C4.0293 18 0 13.9707 0 9Z" fill="#3B3B3B"/>
<path d="M9 4C9.16576 4 9.32473 4.06585 9.44194 4.18306C9.55915 4.30027 9.625 4.45924 9.625 4.625V8.375H13.375C13.5408 8.375 13.6997 8.44085 13.8169 8.55806C13.9342 8.67527 14 8.83424 14 9C14 9.16576 13.9342 9.32473 13.8169 9.44194C13.6997 9.55915 13.5408 9.625 13.375 9.625H9.625V13.375C9.625 13.5408 9.55915 13.6997 9.44194 13.8169C9.32473 13.9342 9.16576 14 9 14C8.83424 14 8.67527 13.9342 8.55806 13.8169C8.44085 13.6997 8.375 13.5408 8.375 13.375V9.625H4.625C4.45924 9.625 4.30027 9.55915 4.18306 9.44194C4.06585 9.32473 4 9.16576 4 9C4 8.83424 4.06585 8.67527 4.18306 8.55806C4.30027 8.44085 4.45924 8.375 4.625 8.375H8.375V4.625C8.375 4.45924 8.44085 4.30027 8.55806 4.18306C8.67527 4.06585 8.83424 4 9 4Z" fill="#3B3B3B"/>
</svg>
