<svg width="15" height="16" viewBox="0 0 15 16" fill="none" xmlns="http://www.w3.org/2000/svg">
<path d="M7.49205 0.90332C4.82805 0.90332 2.99205 2.73933 2.99205 5.40333C2.99205 5.76709 2.99205 6.15334 2.99205 6.90334C2.99205 7.65334 2.87056 8.05834 2.45281 8.40334C2.40556 8.44234 2.20755 8.61259 2.1483 8.66134C1.19955 9.44584 0.733801 10.1808 0.742051 11.4034C0.748051 12.2119 1.4118 12.9116 2.24205 12.9034H5.3853C5.3853 12.9034 5.24205 13.3616 5.24205 13.6534C5.24205 14.8961 6.2493 15.9034 7.49205 15.9034C8.7348 15.9034 9.74205 14.8961 9.74205 13.6534C9.74205 13.3616 9.6048 12.9034 9.6048 12.9034H12.7421C13.5701 12.9056 14.2413 12.2164 14.2421 11.4034C14.2436 10.1898 13.7726 9.44209 12.8358 8.66134C12.7743 8.60959 12.5568 8.44384 12.5081 8.40334C12.0993 8.06284 11.9921 7.65334 11.9921 6.90334C11.9921 5.96584 11.9921 5.40333 11.9921 5.40333C11.9921 2.73933 10.1561 0.90332 7.49205 0.90332ZM7.49205 12.9034C7.90605 12.9034 8.24205 13.2394 8.24205 13.6534C8.24205 14.0674 7.90605 14.4034 7.49205 14.4034C7.07805 14.4034 6.74205 14.0674 6.74205 13.6534C6.74205 13.2394 7.07805 12.9034 7.49205 12.9034Z" fill="#004A43"/>
</svg>
