<svg width="23" height="17" viewBox="0 0 23 17" fill="none" xmlns="http://www.w3.org/2000/svg">
<path d="M11.25 2.16667C15.1261 2.16667 18.583 4.47417 20.2705 8.125C18.583 11.7758 15.1261 14.0833 11.25 14.0833C7.37386 14.0833 3.91705 11.7758 2.22955 8.125C3.91705 4.47417 7.37386 2.16667 11.25 2.16667ZM11.25 0C6.13636 0 1.76932 3.36917 0 8.125C1.76932 12.8808 6.13636 16.25 11.25 16.25C16.3636 16.25 20.7307 12.8808 22.5 8.125C20.7307 3.36917 16.3636 0 11.25 0ZM11.25 5.41667C12.6614 5.41667 13.8068 6.63 13.8068 8.125C13.8068 9.62 12.6614 10.8333 11.25 10.8333C9.83864 10.8333 8.69318 9.62 8.69318 8.125C8.69318 6.63 9.83864 5.41667 11.25 5.41667ZM11.25 3.25C8.71364 3.25 6.64773 5.43833 6.64773 8.125C6.64773 10.8117 8.71364 13 11.25 13C13.7864 13 15.8523 10.8117 15.8523 8.125C15.8523 5.43833 13.7864 3.25 11.25 3.25Z" fill="#626269"/>
</svg>
