<?xml version="1.0" encoding="UTF-8" standalone="no"?>
<svg
   width="18"
   height="18"
   viewBox="0 0 18 18"
   fill="none"
   version="1.1"
   id="svg2"
   sodipodi:docname="add copy.svg"
   inkscape:version="1.4 (e7c3feb1, 2024-10-09)"
   xmlns:inkscape="http://www.inkscape.org/namespaces/inkscape"
   xmlns:sodipodi="http://sodipodi.sourceforge.net/DTD/sodipodi-0.dtd"
   xmlns="http://www.w3.org/2000/svg"
   xmlns:svg="http://www.w3.org/2000/svg">
  <defs
     id="defs2" />
  <sodipodi:namedview
     id="namedview2"
     pagecolor="#505050"
     bordercolor="#eeeeee"
     borderopacity="1"
     inkscape:showpageshadow="0"
     inkscape:pageopacity="0"
     inkscape:pagecheckerboard="0"
     inkscape:deskcolor="#505050"
     inkscape:zoom="18.566825"
     inkscape:cx="16.103992"
     inkscape:cy="12.226107"
     inkscape:window-width="1200"
     inkscape:window-height="1027"
     inkscape:window-x="2228"
     inkscape:window-y="25"
     inkscape:window-maximized="0"
     inkscape:current-layer="svg2" />
  <path
     d="M9 4C9.16576 4 9.32473 4.06585 9.44194 4.18306C9.55915 4.30027 9.625 4.45924 9.625 4.625V8.375H13.375C13.5408 8.375 13.6997 8.44085 13.8169 8.55806C13.9342 8.67527 14 8.83424 14 9C14 9.16576 13.9342 9.32473 13.8169 9.44194C13.6997 9.55915 13.5408 9.625 13.375 9.625H9.625V13.375C9.625 13.5408 9.55915 13.6997 9.44194 13.8169C9.32473 13.9342 9.16576 14 9 14C8.83424 14 8.67527 13.9342 8.55806 13.8169C8.44085 13.6997 8.375 13.5408 8.375 13.375V9.625H4.625C4.45924 9.625 4.30027 9.55915 4.18306 9.44194C4.06585 9.32473 4 9.16576 4 9C4 8.83424 4.06585 8.67527 4.18306 8.55806C4.30027 8.44085 4.45924 8.375 4.625 8.375H8.375V4.625C8.375 4.45924 8.44085 4.30027 8.55806 4.18306C8.67527 4.06585 8.83424 4 9 4Z"
     fill="#3B3B3B"
     id="path2" />
</svg>
