<svg width="24" height="24" viewBox="0 0 24 24" fill="none" xmlns="http://www.w3.org/2000/svg">
<mask id="mask0_3967_41" style="mask-type:alpha" maskUnits="userSpaceOnUse" x="0" y="-1" width="24" height="24">
<rect y="-1" width="24" height="24" fill="#D9D9D9"/>
</mask>
<g mask="url(#mask0_3967_41)">
<path d="M4 19C3.45 19 2.97917 18.8042 2.5875 18.4125C2.19583 18.0208 2 17.55 2 17V5C2 4.45 2.19583 3.97917 2.5875 3.5875C2.97917 3.19583 3.45 3 4 3H20C20.55 3 21.0208 3.19583 21.4125 3.5875C21.8042 3.97917 22 4.45 22 5V17C22 17.55 21.8042 18.0208 21.4125 18.4125C21.0208 18.8042 20.55 19 20 19H4ZM4 17H20V5H4V17ZM11 16H13L13.3 14.5C13.5 14.4167 13.6875 14.3292 13.8625 14.2375C14.0375 14.1458 14.2167 14.0333 14.4 13.9L15.85 14.35L16.85 12.65L15.7 11.65C15.7333 11.4333 15.75 11.2167 15.75 11C15.75 10.7833 15.7333 10.5667 15.7 10.35L16.85 9.35L15.85 7.65L14.4 8.1C14.2167 7.96667 14.0375 7.85417 13.8625 7.7625C13.6875 7.67083 13.5 7.58333 13.3 7.5L13 6H11L10.7 7.5C10.5 7.58333 10.3125 7.67083 10.1375 7.7625C9.9625 7.85417 9.78333 7.96667 9.6 8.1L8.15 7.65L7.15 9.35L8.3 10.35C8.26667 10.5667 8.25 10.7833 8.25 11C8.25 11.2167 8.26667 11.4333 8.3 11.65L7.15 12.65L8.15 14.35L9.6 13.9C9.78333 14.0333 9.9625 14.1458 10.1375 14.2375C10.3125 14.3292 10.5 14.4167 10.7 14.5L11 16ZM10.5875 12.4125C10.1958 12.0208 10 11.55 10 11C10 10.45 10.1958 9.97917 10.5875 9.5875C10.9792 9.19583 11.45 9 12 9C12.55 9 13.0208 9.19583 13.4125 9.5875C13.8042 9.97917 14 10.45 14 11C14 11.55 13.8042 12.0208 13.4125 12.4125C13.0208 12.8042 12.55 13 12 13C11.45 13 10.9792 12.8042 10.5875 12.4125Z" fill="#1C1B1F"/>
</g>
</svg>

