<svg width="24" height="24" viewBox="0 0 24 24" fill="none" xmlns="http://www.w3.org/2000/svg">
<path d="M10.1918 4.07219C10.8878 2.50481 13.1122 2.50481 13.8082 4.07219V4.07219C14.2359 5.03544 15.3437 5.49429 16.3272 5.11561V5.11561C17.9277 4.49943 19.5006 6.07235 18.8844 7.67277V7.67277C18.5057 8.65634 18.9646 9.7641 19.9278 10.1918V10.1918C21.4952 10.8878 21.4952 13.1122 19.9278 13.8082V13.8082C18.9646 14.2359 18.5057 15.3437 18.8844 16.3272V16.3272C19.5006 17.9277 17.9277 19.5006 16.3272 18.8844V18.8844C15.3437 18.5057 14.2359 18.9646 13.8082 19.9278V19.9278C13.1122 21.4952 10.8878 21.4952 10.1918 19.9278V19.9278C9.7641 18.9646 8.65634 18.5057 7.67277 18.8844V18.8844C6.07235 19.5006 4.49943 17.9277 5.11561 16.3272V16.3272C5.49429 15.3437 5.03544 14.2359 4.07219 13.8082V13.8082C2.50481 13.1122 2.50481 10.8878 4.07219 10.1918V10.1918C5.03544 9.76409 5.49429 8.65634 5.11561 7.67277V7.67277C4.49943 6.07235 6.07235 4.49943 7.67277 5.11561V5.11561C8.65634 5.49429 9.7641 5.03544 10.1918 4.07219V4.07219Z" stroke="#212529" stroke-width="1.5"/>
<circle cx="12" cy="12" r="3" stroke="#212529" stroke-width="1.5"/>
</svg>
