<svg width="24" height="24" viewBox="0 0 24 24" fill="none" xmlns="http://www.w3.org/2000/svg">
<mask id="mask0_1079_2476" style="mask-type:alpha" maskUnits="userSpaceOnUse" x="0" y="0" width="24" height="24">
<rect width="24" height="24" fill="#D9D9D9"/>
</mask>
<g mask="url(#mask0_1079_2476)">
<path d="M17.4762 21.0952H7.52381V9.33333L13.8571 3L14.9881 4.13095C15.0937 4.23651 15.1804 4.37976 15.2482 4.56071C15.3161 4.74167 15.35 4.91508 15.35 5.08095V5.39762L14.3548 9.33333H20.1905C20.673 9.33333 21.0952 9.51429 21.4571 9.87619C21.819 10.2381 22 10.6603 22 11.1429V12.9524C22 13.0579 21.9849 13.171 21.9548 13.2917C21.9246 13.4123 21.8944 13.5254 21.8643 13.631L19.15 20.0095C19.0143 20.3111 18.7881 20.5675 18.4714 20.7786C18.1548 20.9897 17.823 21.0952 17.4762 21.0952ZM9.33333 19.2857H17.4762L20.1905 12.9524V11.1429H12.0476L13.269 6.16667L9.33333 10.1024V19.2857ZM7.52381 9.33333V11.1429H4.80952V19.2857H7.52381V21.0952H3V9.33333H7.52381Z" fill="#6A6A6A"/>
</g>
</svg>
