<svg width="24" height="24" viewBox="0 0 24 24" fill="none" xmlns="http://www.w3.org/2000/svg">
<mask id="mask0_2879_2258" style="mask-type:alpha" maskUnits="userSpaceOnUse" x="0" y="0" width="24" height="24">
<rect width="24" height="24" fill="#D9D9D9"/>
</mask>
<g mask="url(#mask0_2879_2258)">
<path d="M19.25 16.45L17.75 14.9C18.4167 14.7167 18.9583 14.3625 19.375 13.8375C19.7917 13.3125 20 12.7 20 12C20 11.1667 19.7083 10.4583 19.125 9.875C18.5417 9.29167 17.8333 9 17 9H13V7H17C18.3833 7 19.5625 7.4875 20.5375 8.4625C21.5125 9.4375 22 10.6167 22 12C22 12.95 21.7542 13.825 21.2625 14.625C20.7708 15.425 20.1 16.0333 19.25 16.45ZM15.85 13L13.85 11H16V13H15.85ZM19.8 22.6L1.4 4.2L2.8 2.8L21.2 21.2L19.8 22.6ZM11 17H7C5.61667 17 4.4375 16.5125 3.4625 15.5375C2.4875 14.5625 2 13.3833 2 12C2 10.85 2.35 9.825 3.05 8.925C3.75 8.025 4.65 7.43334 5.75 7.15L7.6 9H7C6.16667 9 5.45833 9.29167 4.875 9.875C4.29167 10.4583 4 11.1667 4 12C4 12.8333 4.29167 13.5417 4.875 14.125C5.45833 14.7083 6.16667 15 7 15H11V17ZM8 13V11H9.625L11.6 13H8Z" fill="#171717"/>
</g>
</svg>

