<svg width="24" height="24" viewBox="0 0 24 24" fill="none" xmlns="http://www.w3.org/2000/svg">
<g clip-path="url(#clip0_1960_2488)">
<path d="M2.73157 9.23618C2.99224 6.22438 4.77502 3.44694 7.27246 1.78318C8.64109 0.871452 10.2268 0.311845 11.8544 0.10016C16.3405 -0.48333 21.0651 1.48706 22.7575 5.89348C24.2123 9.68159 22.7779 13.4423 20.1726 16.3104C19.2325 17.3454 19.1021 19.2915 19.1021 20.6024V23.2609C19.1021 23.6691 18.7712 24 18.3631 24H8.74344C8.35407 24 8.03227 23.6978 8.00595 23.3094C7.97054 22.7864 7.91239 22.3266 7.91239 22.3266C7.71125 21.464 6.97576 20.7723 5.41168 21.0234C3.77074 21.2866 2.73573 20.7977 2.64369 19.7051C2.61333 19.3446 2.59377 16.2661 2.59377 16.2661C2.51537 16.2213 2.00094 16.119 1.25118 15.9485C0.668159 15.816 0.462826 15.0921 0.887924 14.6716C2.59259 12.9853 2.82121 12.1992 2.86353 12.03C3.07463 11.1893 2.6551 10.1196 2.73157 9.23618ZM5.90878 8.22971C6.1456 8.52975 6.41537 8.58838 6.55803 8.59622C6.60501 8.59881 6.63776 8.64352 6.62494 8.68877C6.55168 8.94689 6.47717 9.65783 7.74992 9.93465C8.94356 10.1941 9.66536 11.1225 10.1367 11.594C10.4988 11.9557 10.9886 12.1232 11.4772 12.2332C11.9764 12.3455 12.471 12.4437 12.8648 12.7985C13.2796 13.1721 13.8646 15.2292 13.9639 15.5868C13.9726 15.6183 14.0012 15.6399 14.0338 15.6399H14.6464C14.6808 15.6399 14.7106 15.6158 14.7177 15.5821L15.0145 14.1781C15.027 14.1191 17.9046 14.3559 18.1261 13.0714C18.1339 13.0263 18.1794 12.9984 18.2224 13.0139C18.4992 13.1137 19.3868 13.3594 19.866 12.617C20.2057 12.0906 20.1155 11.5991 20.0681 11.4294C20.0583 11.3943 20.076 11.3577 20.1095 11.3433C20.3536 11.2383 21.2357 10.7437 21.1161 9.1165C21.0196 7.80481 20.1324 7.22344 20.2564 7.02172C20.6142 6.43987 20.3032 5.47541 19.5702 5.26011C19.5406 5.25144 19.5197 5.22529 19.5169 5.19462L19.4859 4.8527C19.3841 3.64709 17.8 2.88306 16.723 3.38427C16.6815 3.4036 16.6321 3.38302 16.6183 3.33937C16.4835 2.912 16.2114 2.79435 16.1388 2.75357C15.8049 2.56568 15.3713 2.5889 15.0261 2.73059C14.9982 2.74204 14.9664 2.73506 14.9458 2.71302C14.8477 2.60796 14.4456 2.27451 13.7796 2.27451C13.0965 2.27451 12.7492 2.60647 12.6278 2.69941C12.6055 2.71647 12.5755 2.71953 12.5505 2.70678C12.3968 2.62819 11.8356 2.37694 11.2738 2.57047C10.8496 2.71682 10.6088 3.10294 10.5329 3.24345C10.5167 3.27349 10.4827 3.28882 10.4495 3.28098C10.248 3.23325 9.55136 3.09945 8.96607 3.36376C8.34756 3.64337 8.15458 4.04741 8.10537 4.18286C8.09537 4.21043 8.06952 4.2289 8.04019 4.23007C7.90607 4.23541 7.53595 4.26788 7.30721 4.46011C6.90329 4.79972 6.94274 5.06748 6.98925 5.18207C7.00341 5.21697 6.98776 5.25697 6.95392 5.27356C6.76945 5.36403 6.25227 5.66286 5.93145 6.29756C5.4898 7.17191 5.66651 7.92277 5.90878 8.22971Z" fill="#007C70"/>
</g>
<defs>
<clipPath id="clip0_1960_2488">
<rect width="24" height="24" fill="white" transform="matrix(-1 0 0 1 24 0)"/>
</clipPath>
</defs>
</svg>
