<svg width="18" height="18" viewBox="0 0 18 18" fill="none" xmlns="http://www.w3.org/2000/svg">
<path fill-rule="evenodd" clip-rule="evenodd" d="M9 2.25C5.27208 2.25 2.25 5.27208 2.25 9C2.25 12.7279 5.27208 15.75 9 15.75H12.375C12.7233 15.75 12.8974 15.75 13.0441 15.7356C14.4684 15.5953 15.5953 14.4684 15.7356 13.0441C15.75 12.8974 15.75 12.7233 15.75 12.375V9C15.75 5.27208 12.7279 2.25 9 2.25ZM5.75 8.25C5.75 7.69772 6.19772 7.25 6.75 7.25H11.25C11.8023 7.25 12.25 7.69772 12.25 8.25C12.25 8.80228 11.8023 9.25 11.25 9.25H6.75C6.19772 9.25 5.75 8.80228 5.75 8.25ZM8 11.25C8 10.6977 8.44772 10.25 9 10.25H11.25C11.8023 10.25 12.25 10.6977 12.25 11.25C12.25 11.8023 11.8023 12.25 11.25 12.25H9C8.44772 12.25 8 11.8023 8 11.25Z" fill="#33363F"/>
</svg>
