<svg width="22" height="22" viewBox="0 0 22 22" fill="none" xmlns="http://www.w3.org/2000/svg">
<g clip-path="url(#clip0_1352_10770)">
<path d="M14.7888 0.733333C14.6978 0.945359 14.6725 1.17981 14.716 1.4064C14.7596 1.63299 14.8701 1.8413 15.0333 2.00444L16.6857 3.65811L12.5644 7.78555C12.3648 8.00807 12.2581 8.29863 12.2662 8.59745C12.2743 8.89626 12.3966 9.18061 12.608 9.39198C12.8193 9.60335 13.1037 9.72567 13.4025 9.73378C13.7013 9.74188 13.9919 9.63516 14.2144 9.43555L18.348 5.30444L20.0004 6.95689C20.1635 7.12006 20.3719 7.23058 20.5984 7.27415C20.825 7.31773 21.0595 7.29236 21.2715 7.20133C21.4846 7.11439 21.6673 6.96658 21.7969 6.77638C21.9264 6.58617 21.9971 6.36201 22 6.13189V1.17333C21.9987 0.862542 21.8746 0.564847 21.6549 0.345083C21.4351 0.125319 21.1374 0.00128694 20.8266 0H15.8681C15.6357 0.00135847 15.409 0.0718159 15.2168 0.202405C15.0247 0.332995 14.8757 0.517811 14.7888 0.733333Z" fill="#28619E"/>
<path d="M17.1111 13.4444V19.5556C17.1092 20.2033 16.851 20.8239 16.393 21.2819C15.935 21.7399 15.3144 21.9981 14.6667 22H2.44444C1.79673 21.9981 1.1761 21.7399 0.718098 21.2819C0.260095 20.8239 0.00193444 20.2033 0 19.5556L0 7.33333C0.00193444 6.68562 0.260095 6.06499 0.718098 5.60698C1.1761 5.14898 1.79673 4.89082 2.44444 4.88889H8.55555C8.87971 4.88889 9.19059 5.01766 9.4198 5.24687C9.64901 5.47608 9.77778 5.78695 9.77778 6.11111C9.77778 6.43526 9.64901 6.74614 9.4198 6.97535C9.19059 7.20456 8.87971 7.33333 8.55555 7.33333H2.44444V19.5556H14.6667V13.4444C14.6667 13.1203 14.7954 12.8094 15.0246 12.5802C15.2539 12.351 15.5647 12.2222 15.8889 12.2222C16.213 12.2222 16.5239 12.351 16.7531 12.5802C16.9823 12.8094 17.1111 13.1203 17.1111 13.4444Z" fill="#28619E"/>
</g>
<defs>
<clipPath id="clip0_1352_10770">
<rect width="22" height="22" fill="white"/>
</clipPath>
</defs>
</svg>
