<svg width="18" height="18" viewBox="0 0 18 18" fill="none" xmlns="http://www.w3.org/2000/svg">
<path d="M6.75 4.5C6.75 4.79547 6.8082 5.08806 6.92127 5.36104C7.03434 5.63402 7.20008 5.88206 7.40901 6.09099C7.61794 6.29992 7.86598 6.46566 8.13896 6.57873C8.41195 6.6918 8.70453 6.75 9 6.75C9.29547 6.75 9.58806 6.6918 9.86104 6.57873C10.134 6.46566 10.3821 6.29992 10.591 6.09099C10.7999 5.88206 10.9657 5.63402 11.0787 5.36104C11.1918 5.08805 11.25 4.79547 11.25 4.5C11.25 4.20453 11.1918 3.91194 11.0787 3.63896C10.9657 3.36598 10.7999 3.11794 10.591 2.90901C10.3821 2.70008 10.134 2.53434 9.86104 2.42127C9.58805 2.3082 9.29547 2.25 9 2.25C8.70452 2.25 8.41194 2.3082 8.13896 2.42127C7.86598 2.53434 7.61794 2.70008 7.40901 2.90901C7.20008 3.11794 7.03434 3.36598 6.92127 3.63896C6.8082 3.91195 6.75 4.20453 6.75 4.5L6.75 4.5Z" stroke="#33363F" stroke-width="2"/>
<path d="M3.3283 10.4261C3.07241 10.5739 2.84813 10.7706 2.66825 11.005C2.48838 11.2394 2.35644 11.5069 2.27997 11.7923C2.20349 12.0777 2.18398 12.3754 2.22255 12.6684C2.26111 12.9613 2.357 13.2438 2.50474 13.4997C2.65248 13.7556 2.84917 13.9799 3.08359 14.1597C3.318 14.3396 3.58555 14.4715 3.87096 14.548C4.15636 14.6245 4.45404 14.644 4.74698 14.6054C5.03993 14.5669 5.32241 14.471 5.5783 14.3232C5.83419 14.1755 6.05847 13.9788 6.23834 13.7444C6.41822 13.51 6.55016 13.2424 6.62663 12.957C6.70311 12.6716 6.72262 12.3739 6.68405 12.081C6.64548 11.7881 6.54959 11.5056 6.40185 11.2497C6.25412 10.9938 6.05743 10.7695 5.82301 10.5896C5.5886 10.4098 5.32105 10.2778 5.03564 10.2014C4.75023 10.1249 4.45256 10.1054 4.15961 10.1439C3.86667 10.1825 3.58419 10.2784 3.3283 10.4261L3.3283 10.4261Z" stroke="#33363F" stroke-width="2"/>
<path d="M14.6717 10.4261C14.9276 10.5739 15.1519 10.7706 15.3317 11.005C15.5116 11.2394 15.6436 11.5069 15.72 11.7923C15.7965 12.0777 15.816 12.3754 15.7775 12.6684C15.7389 12.9613 15.643 13.2438 15.4953 13.4997C15.3475 13.7556 15.1508 13.9799 14.9164 14.1597C14.682 14.3396 14.4145 14.4715 14.129 14.548C13.8436 14.6245 13.546 14.644 13.253 14.6054C12.9601 14.5669 12.6776 14.471 12.4217 14.3232C12.1658 14.1755 11.9415 13.9788 11.7617 13.7444C11.5818 13.51 11.4498 13.2424 11.3734 12.957C11.2969 12.6716 11.2774 12.3739 11.316 12.081C11.3545 11.7881 11.4504 11.5056 11.5981 11.2497C11.7459 10.9938 11.9426 10.7695 12.177 10.5896C12.4114 10.4098 12.679 10.2778 12.9644 10.2014C13.2498 10.1249 13.5474 10.1054 13.8404 10.1439C14.1333 10.1825 14.4158 10.2784 14.6717 10.4261L14.6717 10.4261Z" stroke="#33363F" stroke-width="2"/>
<path fill-rule="evenodd" clip-rule="evenodd" d="M6.87037 5.22643C6.79074 4.99292 6.74995 4.74758 6.74995 4.50021C6.74995 4.20474 6.80815 3.91216 6.92122 3.63918C7.02867 3.37978 7.18366 3.14291 7.37809 2.94071C7.01812 3.02644 6.66468 3.14079 6.32121 3.28306C5.47193 3.63484 4.70026 4.15046 4.05025 4.80047C3.40024 5.45048 2.88462 6.22215 2.53284 7.07143C2.18106 7.92071 2 8.83097 2 9.75022C2 10.4287 2.09865 11.1023 2.29178 11.7502C2.36967 11.4807 2.49732 11.228 2.66826 11.0052C2.84814 10.7708 3.07242 10.5741 3.32831 10.4263C3.54254 10.3027 3.7754 10.2153 4.01745 10.1675C4.00584 10.0289 4 9.88973 4 9.75022C4 9.09361 4.12933 8.44343 4.3806 7.8368C4.63187 7.23017 5.00017 6.67897 5.46446 6.21468C5.87297 5.80618 6.34875 5.47198 6.87037 5.22643ZM11.1295 5.22638C11.6512 5.47195 12.127 5.80615 12.5355 6.21468C12.9998 6.67897 13.3681 7.23017 13.6194 7.83679C13.8707 8.44342 14 9.0936 14 9.75021C14 9.88973 13.9942 10.029 13.9826 10.1675C14.2246 10.2153 14.4574 10.3027 14.6716 10.4263C14.9275 10.5741 15.1518 10.7708 15.3316 11.0052C15.5026 11.228 15.6303 11.4808 15.7082 11.7503C15.9013 11.1025 16 10.4288 16 9.75021C16 8.83096 15.8189 7.92071 15.4672 7.07143C15.1154 6.22215 14.5998 5.45047 13.9497 4.80046C13.2997 4.15045 12.5281 3.63484 11.6788 3.28306C11.3353 3.14077 10.9818 3.02642 10.6218 2.94067C10.8162 3.14288 10.9712 3.37976 11.0787 3.63917C11.1918 3.91216 11.2499 4.20474 11.2499 4.50021C11.2499 4.74756 11.2092 4.99289 11.1295 5.22638ZM14.0867 14.5591C13.8142 14.6265 13.5314 14.6423 13.2529 14.6056C12.96 14.5671 12.6775 14.4712 12.4216 14.3235C12.2075 14.1998 12.0154 14.0419 11.8531 13.8563C11.5598 14.0601 11.2449 14.2323 10.9134 14.3696C10.3068 14.6209 9.65661 14.7502 9 14.7502C8.34339 14.7502 7.69321 14.6209 7.08658 14.3696C6.75507 14.2323 6.44012 14.06 6.14685 13.8563C5.98448 14.0419 5.79246 14.1998 5.57831 14.3235C5.32242 14.4712 5.03994 14.5671 4.74699 14.6056C4.46851 14.6423 4.18576 14.6265 3.91333 14.5591C3.95829 14.6067 4.00393 14.6536 4.05025 14.7C4.70026 15.35 5.47194 15.8656 6.32122 16.2174C7.1705 16.5692 8.08075 16.7502 9 16.7502C9.91925 16.7502 10.8295 16.5692 11.6788 16.2174C12.5281 15.8656 13.2997 15.35 13.9497 14.7C13.9961 14.6536 14.0417 14.6067 14.0867 14.5591Z" fill="#33363F"/>
</svg>
