<svg width="20" height="20" viewBox="0 0 20 20" fill="none" xmlns="http://www.w3.org/2000/svg">
<path d="M4.9917 12.502C4.86037 12.502 4.73032 12.5278 4.60898 12.5781C4.48764 12.6283 4.37739 12.702 4.28452 12.7948C4.19166 12.8877 4.118 12.998 4.06776 13.1193C4.01751 13.2406 3.99167 13.3707 3.9917 13.502V15.2843C2.70275 13.8266 1.99141 11.9479 1.9917 10.002C1.99152 9.70794 2.00913 9.41411 2.04443 9.12215C2.06062 8.99159 2.05089 8.85911 2.01579 8.73232C1.98069 8.60553 1.92092 8.48691 1.83989 8.38327C1.75887 8.27962 1.65818 8.19298 1.54361 8.12831C1.42904 8.06364 1.30284 8.02222 1.17223 8.00642C1.04162 7.99061 0.909181 8.00074 0.782494 8.03621C0.655807 8.07169 0.537365 8.13181 0.433957 8.21315C0.330549 8.29448 0.244207 8.39542 0.179879 8.51018C0.115551 8.62494 0.0745023 8.75126 0.0590848 8.88192C0.0137881 9.25356 -0.00871385 9.62763 -0.00829504 10.002C-0.00693632 12.3882 0.850661 14.6946 2.40857 16.502H0.991705C0.726488 16.502 0.472134 16.6074 0.284598 16.7949C0.0970616 16.9825 -0.00829504 17.2368 -0.00829504 17.502C-0.00829504 17.7672 0.0970616 18.0216 0.284598 18.2091C0.472134 18.3967 0.726488 18.502 0.991705 18.502H4.9917C5.1481 18.5001 5.30177 18.4608 5.4399 18.3874C5.57804 18.314 5.69664 18.2087 5.78583 18.0802C5.79749 18.0648 5.81238 18.0534 5.82324 18.0372C5.8299 18.0273 5.83008 18.0155 5.8363 18.0054C5.88396 17.9248 5.91967 17.8378 5.9423 17.7471C5.95711 17.6961 5.96762 17.6439 5.97373 17.5912C5.9766 17.5603 5.99173 17.5337 5.99173 17.5021V13.5021C5.99177 13.3707 5.96593 13.2407 5.91569 13.1193C5.86545 12.998 5.79179 12.8877 5.69892 12.7948C5.60605 12.702 5.49579 12.6283 5.37444 12.5781C5.2531 12.5278 5.12304 12.502 4.9917 12.502ZM6.4917 4.00203H4.70923C6.16704 2.71314 8.04583 2.0018 9.9917 2.00203C10.2856 2.00132 10.5793 2.01894 10.8711 2.05477C11.0015 2.07061 11.1338 2.0606 11.2603 2.02532C11.3869 1.99004 11.5053 1.93018 11.6087 1.84916C11.7121 1.76813 11.7986 1.66753 11.8631 1.55309C11.9277 1.43866 11.969 1.31263 11.9849 1.18221C12.0007 1.05178 11.9907 0.919516 11.9554 0.792959C11.9201 0.666402 11.8603 0.548032 11.7793 0.444609C11.6982 0.341186 11.5976 0.254734 11.4832 0.190191C11.3688 0.125647 11.2427 0.084275 11.1123 0.0684369C10.7405 0.0235779 10.3662 0.00140037 9.9917 0.00202708C7.60557 0.00332419 5.29912 0.860858 3.49171 2.41872V1.00203C3.49171 0.736811 3.38635 0.482457 3.19881 0.29492C3.01128 0.107384 2.75692 0.00202708 2.49171 0.00202708C2.22649 0.00202708 1.97213 0.107384 1.7846 0.29492C1.59706 0.482457 1.4917 0.736811 1.4917 1.00203V5.00203C1.49799 5.06812 1.51117 5.13338 1.53101 5.19674L1.53125 5.19796C1.55554 5.32101 1.60348 5.43818 1.67242 5.54296L1.68384 5.55986C1.74992 5.65596 1.83274 5.7394 1.92834 5.8062C1.93927 5.8142 1.9447 5.82646 1.95605 5.83409C1.97034 5.84355 1.98652 5.84655 2.00111 5.85521C2.05782 5.88932 2.11791 5.91748 2.18042 5.93921C2.26491 5.9686 2.35299 5.98638 2.44226 5.99206C2.45959 5.99298 2.47419 6.00206 2.49171 6.00206H6.4917C6.75692 6.00206 7.01128 5.8967 7.19881 5.70916C7.38635 5.52163 7.4917 5.26727 7.4917 5.00206C7.4917 4.73684 7.38635 4.48249 7.19881 4.29495C7.01128 4.10741 6.75692 4.00206 6.4917 4.00206V4.00203ZM18.4522 14.8061C18.4279 14.683 18.3799 14.5658 18.3109 14.461L18.2996 14.4442C18.2335 14.3481 18.1506 14.2646 18.0549 14.1978C18.044 14.1898 18.0386 14.1775 18.0273 14.1699C18.0165 14.1628 18.0037 14.1626 17.9927 14.1558C17.8659 14.0853 17.7269 14.0394 17.583 14.0204C17.5514 14.0174 17.5241 14.002 17.4917 14.002H13.4917C13.2265 14.002 12.9721 14.1073 12.7846 14.2949C12.5971 14.4824 12.4917 14.7368 12.4917 15.002C12.4917 15.2672 12.5971 15.5215 12.7846 15.7091C12.9721 15.8966 13.2265 16.002 13.4917 16.002H15.2741C13.8163 17.2909 11.9376 18.0022 9.9917 18.002C9.69774 18.0024 9.40404 17.9844 9.1123 17.9483C8.8489 17.9163 8.58358 17.9902 8.37471 18.1539C8.16583 18.3175 8.03052 18.5574 7.99854 18.8208C7.96655 19.0842 8.04051 19.3496 8.20415 19.5584C8.36778 19.7673 8.60769 19.9026 8.87109 19.9346C9.24295 19.9794 9.61716 20.0019 9.9917 20.002C12.3778 20.0007 14.6843 19.1431 16.4917 17.5853V19.002C16.4917 19.2672 16.5971 19.5216 16.7846 19.7091C16.9721 19.8967 17.2265 20.002 17.4917 20.002C17.7569 20.002 18.0113 19.8967 18.1988 19.7091C18.3863 19.5216 18.4917 19.2672 18.4917 19.002V15.002C18.4854 14.9359 18.4722 14.8707 18.4524 14.8073L18.4522 14.8061ZM18.9917 3.50203C19.2569 3.50203 19.5113 3.39667 19.6988 3.20913C19.8863 3.0216 19.9917 2.76724 19.9917 2.50203C19.9917 2.23681 19.8863 1.98246 19.6988 1.79492C19.5113 1.60738 19.2569 1.50203 18.9917 1.50203H14.9917C14.9266 1.5083 14.8623 1.52127 14.7999 1.54073L14.7932 1.54207C14.6718 1.56636 14.5561 1.61373 14.4525 1.6816L14.4329 1.69484C14.3373 1.76081 14.2542 1.84338 14.1876 1.93862C14.1798 1.94942 14.1676 1.95473 14.1602 1.9659C14.153 1.97664 14.1528 1.98934 14.1461 2.00026C14.0747 2.12785 14.0284 2.26792 14.0097 2.41292C14.0068 2.44381 13.9917 2.47042 13.9917 2.50203V6.50203C13.9917 6.76724 14.0971 7.0216 14.2846 7.20913C14.4721 7.39667 14.7265 7.50203 14.9917 7.50203C15.2569 7.50203 15.5113 7.39667 15.6988 7.20913C15.8863 7.0216 15.9917 6.76724 15.9917 6.50203V4.71915C17.2806 6.17712 17.9919 8.05601 17.9917 10.002C17.9919 10.2961 17.9743 10.5899 17.939 10.8819C17.9073 11.1451 17.9813 11.4101 18.1448 11.6188C18.3083 11.8276 18.5479 11.9629 18.811 11.9951C18.8516 11.9998 18.8923 12.0021 18.9331 12.002C19.1773 12.0017 19.4129 11.912 19.5955 11.7499C19.7781 11.5878 19.8951 11.3645 19.9243 11.1221C19.9696 10.7505 19.9921 10.3764 19.9917 10.002C19.9903 7.61585 19.1327 5.30939 17.5747 3.50203H18.9917Z" fill="#007C70"/>
</svg>
