<svg width="12" height="12" viewBox="0 0 12 12" fill="none" xmlns="http://www.w3.org/2000/svg">
<path d="M3 7.5C2.9212 7.49998 2.84317 7.51549 2.77037 7.54563C2.69756 7.57578 2.63141 7.61997 2.57569 7.67569C2.51997 7.73141 2.47578 7.79756 2.44563 7.87037C2.41549 7.94317 2.39998 8.0212 2.4 8.1V9.16938C1.62663 8.29476 1.19982 7.1675 1.2 6C1.19989 5.82355 1.21046 5.64725 1.23164 5.47208C1.24135 5.39374 1.23551 5.31426 1.21445 5.23818C1.19339 5.16211 1.15753 5.09094 1.10891 5.02875C1.0603 4.96656 0.99989 4.91457 0.931148 4.87577C0.862406 4.83697 0.786683 4.81212 0.708318 4.80264C0.629954 4.79316 0.550489 4.79923 0.474476 4.82052C0.398464 4.8418 0.327399 4.87788 0.265354 4.92668C0.20331 4.97547 0.151504 5.03604 0.112908 5.10489C0.0743111 5.17375 0.0496818 5.24955 0.0404313 5.32794C0.0132533 5.55092 -0.00024784 5.77537 3.44363e-06 6C0.000818677 7.4317 0.515377 8.81557 1.45012 9.9H0.600003C0.440873 9.9 0.288261 9.96321 0.175739 10.0757C0.0632174 10.1883 3.44363e-06 10.3409 3.44363e-06 10.5C3.44363e-06 10.6591 0.0632174 10.8117 0.175739 10.9243C0.288261 11.0368 0.440873 11.1 0.600003 11.1H3C3.09384 11.0988 3.18604 11.0752 3.26892 11.0312C3.3518 10.9872 3.42296 10.924 3.47648 10.8469C3.48348 10.8377 3.49241 10.8308 3.49893 10.8211C3.50292 10.8151 3.50303 10.8081 3.50676 10.802C3.53536 10.7537 3.55678 10.7015 3.57036 10.647C3.57924 10.6164 3.58555 10.5851 3.58922 10.5535C3.59094 10.535 3.60002 10.519 3.60002 10.5V8.10002C3.60004 8.02122 3.58454 7.94318 3.55439 7.87038C3.52425 7.79757 3.48005 7.73141 3.42433 7.67569C3.36861 7.61997 3.30245 7.57578 3.22965 7.54563C3.15684 7.51548 3.0788 7.49998 3 7.5ZM3.9 2.40001H2.83052C3.7052 1.62667 4.83248 1.19987 6 1.20001C6.17636 1.19958 6.35258 1.21015 6.52763 1.23165C6.60589 1.24115 6.68525 1.23515 6.76118 1.21398C6.83712 1.19282 6.90814 1.1569 6.97019 1.10828C7.03225 1.05967 7.08412 0.999308 7.12284 0.930647C7.16157 0.861986 7.18639 0.78637 7.1959 0.708115C7.2054 0.629861 7.19939 0.550501 7.17823 0.474566C7.15706 0.398632 7.12114 0.32761 7.07253 0.265557C7.02391 0.203503 6.96355 0.151632 6.89489 0.112906C6.82623 0.0741796 6.75061 0.0493565 6.67236 0.0398536C6.44926 0.0129382 6.22472 -0.000368274 6 7.75066e-06C4.56832 0.00078602 3.18445 0.515306 2.1 1.45002V0.600007C2.1 0.440878 2.03679 0.288265 1.92427 0.175744C1.81174 0.0632218 1.65913 7.75066e-06 1.5 7.75066e-06C1.34087 7.75066e-06 1.18826 0.0632218 1.07574 0.175744C0.963217 0.288265 0.900003 0.440878 0.900003 0.600007V3.00001C0.903776 3.03966 0.911681 3.07882 0.923589 3.11683L0.923733 3.11756C0.938303 3.1914 0.967069 3.2617 1.00843 3.32456L1.01529 3.3347C1.05493 3.39237 1.10462 3.44243 1.16199 3.48251C1.16854 3.48731 1.1718 3.49466 1.17861 3.49924C1.18719 3.50492 1.19689 3.50672 1.20564 3.51191C1.23967 3.53238 1.27573 3.54927 1.31323 3.56231C1.36393 3.57995 1.41678 3.59062 1.47034 3.59402C1.48074 3.59458 1.48949 3.60002 1.5 3.60002H3.9C4.05913 3.60002 4.21174 3.53681 4.32427 3.42429C4.43679 3.31177 4.5 3.15915 4.5 3.00002C4.5 2.84089 4.43679 2.68828 4.32427 2.57576C4.21174 2.46324 4.05913 2.40002 3.9 2.40002V2.40001ZM11.0763 8.88246C11.0617 8.8086 11.0329 8.73827 10.9915 8.6754L10.9847 8.66533C10.9451 8.60763 10.8953 8.55754 10.8379 8.51745C10.8314 8.51269 10.8282 8.5053 10.8214 8.50075C10.8149 8.49647 10.8072 8.49633 10.8006 8.49229C10.7245 8.44999 10.6411 8.42242 10.5548 8.41104C10.5358 8.40924 10.5194 8.39997 10.5 8.39997H8.1C7.94087 8.39997 7.78826 8.46319 7.67573 8.57571C7.56321 8.68823 7.5 8.84084 7.5 8.99997C7.5 9.1591 7.56321 9.31171 7.67573 9.42424C7.78826 9.53676 7.94087 9.59997 8.1 9.59997H9.16945C8.29478 10.3733 7.16751 10.8001 6 10.8C5.82362 10.8002 5.6474 10.7894 5.47236 10.7677C5.31432 10.7486 5.15513 10.7929 5.0298 10.8911C4.90448 10.9893 4.82329 11.1332 4.8041 11.2913C4.78491 11.4493 4.82928 11.6085 4.92746 11.7338C5.02565 11.8592 5.16959 11.9404 5.32763 11.9595C5.55075 11.9865 5.77527 12 6 12C7.43168 11.9992 8.81555 11.4847 9.9 10.55V11.4C9.9 11.5591 9.96321 11.7117 10.0757 11.8243C10.1883 11.9368 10.3409 12 10.5 12C10.6591 12 10.8117 11.9368 10.9243 11.8243C11.0368 11.7117 11.1 11.5591 11.1 11.4V9C11.0962 8.96035 11.0883 8.92119 11.0764 8.88318L11.0763 8.88246ZM11.4 2.10001C11.5591 2.10001 11.7117 2.03679 11.8243 1.92427C11.9368 1.81175 12 1.65914 12 1.50001C12 1.34088 11.9368 1.18826 11.8243 1.07574C11.7117 0.963221 11.5591 0.900007 11.4 0.900007H9C8.96094 0.903772 8.92237 0.911553 8.8849 0.923227L8.8809 0.924031C8.80804 0.938608 8.73864 0.967027 8.67649 1.00775L8.66473 1.01569C8.60734 1.05528 8.55749 1.10482 8.51755 1.16196C8.51283 1.16844 8.50555 1.17163 8.50107 1.17833C8.49679 1.18477 8.49664 1.19239 8.49262 1.19894C8.44979 1.2755 8.42202 1.35954 8.4108 1.44654C8.40908 1.46507 8.4 1.48104 8.4 1.50001V3.90001C8.4 4.05913 8.46321 4.21175 8.57574 4.32427C8.68826 4.43679 8.84087 4.5 9 4.5C9.15913 4.5 9.31174 4.43679 9.42426 4.32427C9.53678 4.21175 9.6 4.05913 9.6 3.90001V2.83028C10.3733 3.70506 10.8001 4.83239 10.8 5.99997C10.8001 6.17643 10.7895 6.35273 10.7684 6.52791C10.7493 6.68584 10.7938 6.84487 10.8918 6.97009C10.9899 7.09532 11.1337 7.17652 11.2916 7.19587C11.3159 7.19869 11.3404 7.20006 11.3648 7.19997C11.5113 7.19978 11.6527 7.14599 11.7623 7.04873C11.8718 6.95148 11.942 6.81749 11.9596 6.67205C11.9867 6.44907 12.0002 6.22463 12 6C11.9992 4.5683 11.4846 3.18442 10.5498 2.10001H11.4Z" fill="#666666"/>
</svg>
