<svg width="24" height="24" viewBox="0 0 24 24" fill="none" xmlns="http://www.w3.org/2000/svg">
<g clip-path="url(#clip0_1383_237)">
<g clip-path="url(#clip1_1383_237)">
<path fill-rule="evenodd" clip-rule="evenodd" d="M3 21V5.88754C3 4.2926 4.09957 3 5.45455 3H18.5455C19.9004 3 21 4.2926 21 5.88754V15.9786C21 17.5735 19.9004 18.8661 18.5455 18.8661L8.1645 19.1904L3 21ZM6.5756 13.2416C6.57515 13.2418 6.5747 13.242 6.22078 12.3067C5.86685 11.3714 5.86644 11.3716 5.86603 11.3718L5.8626 11.3731L5.87694 11.3672C5.89253 11.3608 5.92001 11.3491 5.95842 11.3318C6.03526 11.2971 6.15571 11.2397 6.31214 11.1557C6.62506 10.9877 7.08128 10.7134 7.62015 10.3017C8.69615 9.47955 10.107 8.10551 11.3678 5.92206L13.0998 6.92214C11.6939 9.35699 10.0982 10.9253 8.83439 11.8909C8.20335 12.373 7.65633 12.704 7.25848 12.9177C7.05952 13.0245 6.89771 13.1021 6.78113 13.1548C6.72283 13.1811 6.67581 13.2011 6.64108 13.2155C6.62372 13.2227 6.60942 13.2284 6.59832 13.2328L6.58407 13.2384L6.57877 13.2404L6.57658 13.2413L6.5756 13.2416ZM13.7576 15.5755C14.5849 16.1371 14.5851 16.1369 14.5853 16.1366L14.5868 16.1344L14.5897 16.13L14.5987 16.1165C14.6061 16.1054 14.6162 16.0902 14.6288 16.0708C14.654 16.0321 14.6892 15.9771 14.7329 15.9067C14.8201 15.7662 14.9411 15.5642 15.0826 15.3089C15.3651 14.7993 15.7321 14.0724 16.0749 13.1947C16.754 11.4558 17.3716 9.03968 16.961 6.52391L14.9871 6.84611C15.3167 8.86539 14.8261 10.8945 14.2119 12.4671C13.9081 13.2451 13.5821 13.8905 13.3334 14.3392C13.2093 14.5632 13.1051 14.7368 13.0335 14.8522C12.9977 14.9098 12.9702 14.9528 12.9524 14.9801L12.9333 15.0091L12.9299 15.0142C12.9301 15.014 12.9302 15.0138 13.7576 15.5755Z" fill="white"/>
</g>
</g>
<defs>
<clipPath id="clip0_1383_237">
<rect width="24" height="24" fill="white"/>
</clipPath>
<clipPath id="clip1_1383_237">
<rect width="18" height="18" fill="white" transform="translate(3 3)"/>
</clipPath>
</defs>
</svg>

