<svg width="24" height="24" viewBox="0 0 24 24" fill="none" xmlns="http://www.w3.org/2000/svg">
<mask id="mask0_2267_87" style="mask-type:alpha" maskUnits="userSpaceOnUse" x="0" y="0" width="24" height="24">
<rect width="24" height="24" fill="#D9D9D9"/>
</mask>
<g mask="url(#mask0_2267_87)">
<path d="M7 23L10.075 7.45C10.175 6.96667 10.4 6.60417 10.75 6.3625C11.1 6.12083 11.4667 6 11.85 6C12.2333 6 12.5875 6.08333 12.9125 6.25C13.2375 6.41667 13.5 6.66667 13.7 7L14.7 8.6C15 9.08333 15.3875 9.52083 15.8625 9.9125C16.3375 10.3042 16.8833 10.5917 17.5 10.775V9H19V23H17.5V12.85C16.7 12.6667 15.9583 12.375 15.275 11.975C14.5917 11.575 14 11.0833 13.5 10.5L12.9 13.5L15 15.5V23H13V17L10.9 15L9.1 23H7ZM7.425 13.125L5.3 12.725C5.03333 12.675 4.825 12.5375 4.675 12.3125C4.525 12.0875 4.475 11.8333 4.525 11.55L5.275 7.625C5.375 7.09167 5.65833 6.67083 6.125 6.3625C6.59167 6.05417 7.09167 5.95 7.625 6.05L8.775 6.275L7.425 13.125ZM13.5 5.5C12.95 5.5 12.4792 5.30417 12.0875 4.9125C11.6958 4.52083 11.5 4.05 11.5 3.5C11.5 2.95 11.6958 2.47917 12.0875 2.0875C12.4792 1.69583 12.95 1.5 13.5 1.5C14.05 1.5 14.5208 1.69583 14.9125 2.0875C15.3042 2.47917 15.5 2.95 15.5 3.5C15.5 4.05 15.3042 4.52083 14.9125 4.9125C14.5208 5.30417 14.05 5.5 13.5 5.5Z" fill="#F6F9F8"/>
</g>
</svg>

